<?xml version="1.0" standalone="no"?>
<!DOCTYPE svg PUBLIC "-//W3C//DTD SVG 1.1//EN" "http://www.w3.org/Graphics/SVG/1.1/DTD/svg11.dtd" >
<svg xmlns="http://www.w3.org/2000/svg" xmlns:xlink="http://www.w3.org/1999/xlink" version="1.1">
<metadata>
Created by FontForge 20170924 at Tue Sep 13 14:10:19 2011
 By www-data
2010 Copyright Jean Francois Porchez, Typofonderie. All rights reserved. Distributed exclusively by Typofonderie, France. Singulier is an exclusive sanserif typeface available in 6 weights, with Latin, Greek and Cyrillic scripts support designed solely and exclusively for YSL Beaute. This font software may not be reproduced, modified, disclosed or transferred without the express written approval of Jean Francois Porchez, Typofonderie.
</metadata>
<defs>
<font id="Singulier-Regular" horiz-adv-x="540" >
  <font-face 
    font-family="Singulier"
    font-weight="400"
    font-stretch="normal"
    units-per-em="1000"
    panose-1="2 11 4 3 5 6 3 6 2 4"
    ascent="800"
    descent="-200"
    x-height="506"
    cap-height="682"
    bbox="-141 -251 1192 995"
    underline-thickness="71"
    underline-position="-228"
    unicode-range="U+000D-FB06"
  />
<missing-glyph horiz-adv-x="250" 
 />
    <glyph glyph-name="f_b" unicode="fb" horiz-adv-x="886" 
d="M848 253q0 -126 -67.5 -198.5t-174.5 -72.5q-85 0 -151 48h-1l-76 -36h-3v645q-41 41 -100 41q-44 0 -70 -23.5t-26 -67.5v-83h122v-76h-122v-430h-86v430h-44v4l44 72v90q0 76 44 118.5t120 42.5q75 0 124 -37h1l76 36h3v-291h1q65 59 156 59q101 0 165.5 -72.5
t64.5 -198.5zM757 253q0 90 -45 141.5t-119 51.5q-80 0 -132 -62v-274q52 -50 125 -50q78 0 124.5 51t46.5 142z" />
    <glyph glyph-name="f_f_b" unicode="ffb" horiz-adv-x="1168" 
d="M1130 253q0 -126 -67.5 -198.5t-174.5 -72.5q-87 0 -151 48h-1l-76 -36h-3v645q-41 41 -100 41q-44 0 -70 -23.5t-26 -67.5v-83h122v-76h-122v-430h-86v430h-196v-430h-86v430h-44v4l44 72v90q0 77 46 119t130 42q90 0 152 -43q43 43 118 43t124 -37h1l76 36h3v-291h1
q65 59 156 59q101 0 165.5 -72.5t64.5 -198.5zM1039 253q0 90 -45 141.5t-119 51.5q-80 0 -132 -62v-274q52 -50 125 -50q78 0 124.5 51t46.5 142zM375 506v90q0 34 10 54q-41 34 -105 34q-48 0 -74.5 -24t-26.5 -71v-83h196z" />
    <glyph glyph-name="f_h" unicode="fh" horiz-adv-x="888" 
d="M798 0h-86v314q0 65 -34 98.5t-89 33.5q-76 0 -128 -62v-384h-86v639q-41 41 -100 41q-44 0 -70 -23.5t-26 -67.5v-83h122v-76h-122v-430h-86v430h-44v4l44 72v90q0 76 44 118.5t120 42.5q75 0 124 -37h1l76 36h3v-291h1q64 59 152 59q80 0 132 -47t52 -136v-341z" />
    <glyph glyph-name="f_f_h" unicode="ffh" horiz-adv-x="1170" 
d="M1080 0h-86v314q0 65 -34 98.5t-89 33.5q-76 0 -128 -62v-384h-86v639q-41 41 -100 41q-44 0 -70 -23.5t-26 -67.5v-83h122v-76h-122v-430h-86v430h-196v-430h-86v430h-44v4l44 72v90q0 77 46 119t130 42q90 0 152 -43q43 43 118 43t124 -37h1l76 36h3v-291h1
q64 59 152 59q80 0 132 -47t52 -136v-341zM375 506v90q0 33 10 54q-41 34 -105 34q-48 0 -74.5 -24t-26.5 -71v-83h196z" />
    <glyph glyph-name="f_j" unicode="fj" horiz-adv-x="547" 
d="M317 -193q-57 0 -95 27v84h3q32 -34 74 -34q76 0 76 94v452h-196v-430h-86v430h-44v4l44 72v90q0 79 52 120t148 41q101 0 171 -42v-88h-4q-52 53 -153 53q-128 0 -128 -94v-80h282v-533q0 -80 -38.5 -123t-105.5 -43z" />
    <glyph glyph-name="f_f_j" unicode="ffj" horiz-adv-x="829" 
d="M599 -193q-57 0 -95 27v84h3q31 -34 74 -34q76 0 76 95v451h-196v-430h-86v430h-196v-430h-86v430h-44v4l44 72v90q0 77 46 119t130 42q92 0 157 -45q50 45 149 45q101 0 171 -42v-88h-4q-52 53 -153 53q-128 0 -128 -94v-80h282v-530q0 -82 -38.5 -125.5t-105.5 -43.5z
M375 506v90q0 33 10 54q-41 34 -105 34q-48 0 -74.5 -24t-26.5 -71v-83h196z" />
    <glyph glyph-name="f_k" unicode="fk" horiz-adv-x="799" 
d="M461 0h-86v639q-41 41 -100 41q-44 0 -70 -23.5t-26 -67.5v-83h122v-76h-122v-430h-86v430h-44v4l44 72v90q0 76 44 118.5t120 42.5q75 0 124 -37h1l76 36h3v-756zM782 0h-105l-204 255v3l196 248h100l-196 -247v-2z" />
    <glyph glyph-name="f_f_k" unicode="ffk" horiz-adv-x="1081" 
d="M743 0h-86v639q-41 41 -100 41q-44 0 -70 -23.5t-26 -67.5v-83h122v-76h-122v-430h-86v430h-196v-430h-86v430h-44v4l44 72v90q0 77 46 119t130 42q90 0 152 -43q43 43 118 43t124 -37h1l76 36h3v-756zM1064 0h-105l-204 255v3l196 248h100l-197 -247v-2zM375 506v90
q0 33 10 54q-41 34 -105 34q-48 0 -74.5 -24t-26.5 -71v-83h196z" />
    <glyph glyph-name="f_t" unicode="ft" horiz-adv-x="610" 
d="M461 0h-86v430h-196v-430h-86v430h-44v4l44 72v90q0 74 36 117.5t105 43.5q52 0 89 -25v-82h-3q-30 30 -69 30q-72 0 -72 -91v-83h196v152h86v-152h122v-76h-122v-430z" />
    <glyph glyph-name="f_f_t" unicode="fft" horiz-adv-x="892" 
d="M743 0h-86v430h-196v-430h-86v430h-196v-430h-86v430h-44v4l44 72v90q0 77 46 119t130 42q86 0 148 -40q37 40 99 40q52 0 88 -25v-82h-3q-30 30 -68 30q-72 0 -72 -91v-83h196v152h86v-152h122v-76h-122v-430zM375 506v90q0 29 8 56q-41 32 -103 32q-48 0 -74.5 -24
t-26.5 -71v-83h196z" />
    <glyph glyph-name="f_f" unicode="ff" horiz-adv-x="565" 
d="M461 0h-86v430h-196v-430h-86v430h-44v4l44 72v90q0 77 46 119t130 42q88 0 148 -41q38 41 102 41q53 0 92 -25v-84h-4q-32 32 -71 32q-75 0 -75 -91v-83h122v-76h-122v-430zM375 506v90q0 30 8 56q-39 32 -103 32q-48 0 -74.5 -24t-26.5 -71v-83h196z" />
    <glyph glyph-name="fi" unicode="fi" horiz-adv-x="547" 
d="M461 0h-86v430h-196v-430h-86v430h-44v4l44 72v90q0 79 52 120t148 41q101 0 171 -42v-88h-4q-52 53 -153 53q-128 0 -128 -94v-80h282v-506z" />
    <glyph glyph-name="fl" unicode="fl" horiz-adv-x="547" 
d="M461 0h-86v639q-41 41 -100 41q-44 0 -70 -23.5t-26 -67.5v-83h122v-76h-122v-430h-86v430h-44v4l44 72v90q0 76 44 118.5t120 42.5q75 0 124 -37h1l76 36h3v-756z" />
    <glyph glyph-name="f_f_i" unicode="ffi" horiz-adv-x="829" 
d="M743 0h-86v430h-196v-430h-86v430h-196v-430h-86v430h-44v4l44 72v90q0 77 46 119t130 42q92 0 157 -45q50 45 149 45q101 0 171 -42v-88h-4q-52 53 -153 53q-128 0 -128 -94v-80h282v-506zM375 506v90q0 33 10 54q-41 34 -105 34q-48 0 -74.5 -24t-26.5 -71v-83h196z
" />
    <glyph glyph-name="f_f_l" unicode="ffl" horiz-adv-x="829" 
d="M743 0h-86v639q-41 41 -100 41q-44 0 -70 -23.5t-26 -67.5v-83h122v-76h-122v-430h-86v430h-196v-430h-86v430h-44v4l44 72v90q0 77 46 119t130 42q90 0 152 -43q43 43 118 43t124 -37h1l76 36h3v-756zM375 506v90q0 33 10 54q-41 34 -105 34q-48 0 -74.5 -24t-26.5 -71
v-83h196z" />
    <glyph glyph-name=".notdef" horiz-adv-x="250" 
 />
    <glyph glyph-name=".null" horiz-adv-x="0" 
 />
    <glyph glyph-name=".null" horiz-adv-x="0" 
 />
    <glyph glyph-name="nonmarkingreturn" horiz-adv-x="333" 
 />
    <glyph glyph-name="CR" unicode="&#xd;" horiz-adv-x="0" 
 />
    <glyph glyph-name="space" unicode=" " horiz-adv-x="270" 
 />
    <glyph glyph-name="space" unicode="&#xa0;" horiz-adv-x="270" 
 />
    <glyph glyph-name="exclam" unicode="!" horiz-adv-x="278" 
d="M176 206h-74l-11 544h96zM183 0h-88v97h88v-97z" />
    <glyph glyph-name="quotedbl" unicode="&#x22;" horiz-adv-x="429" 
d="M169 441h-73l-3 241h79zM334 441h-73l-3 241h79z" />
    <glyph glyph-name="numbersign" unicode="#" horiz-adv-x="530" 
d="M368 205l-25 -205h-62l25 205h-116l-25 -205h-63l25 205h-96v57h102l20 159h-98v57h105l24 204h62l-24 -204h117l24 204h62l-24 -204h98v-57h-105l-20 -159h101v-57h-107zM312 262l20 159h-117l-19 -159h116z" />
    <glyph glyph-name="dollar" unicode="$" horiz-adv-x="491" 
d="M281 -142h-76v125q-95 7 -153 59v92h4q49 -63 149 -72v251q-34 16 -56.5 30.5t-46 38t-35.5 56.5t-12 76q0 71 38.5 121.5t117.5 61.5v127h75v-126q77 -10 133 -57v-90h-4q-52 58 -129 68v-242q73 -33 113.5 -77t40.5 -126q0 -73 -41.5 -124.5t-117.5 -63.5v-128z
M362 168q0 38 -21 63.5t-60 46.5v-212q81 20 81 102zM133 518q0 -37 20 -61.5t58 -44.5v205q-78 -16 -78 -99z" />
    <glyph glyph-name="percent" unicode="%" horiz-adv-x="829" 
d="M335 461q0 -119 -45 -176.5t-116 -57.5q-70 0 -115 57.5t-45 176.5t45 176t115 57q71 0 116 -57t45 -176zM265 461q0 170 -91 170q-90 0 -90 -170q0 -172 90 -172q91 0 91 172zM815 222q0 -119 -45 -176.5t-116 -57.5q-70 0 -115 57.5t-45 176.5t45 176t115 57
q71 0 116 -57t45 -176zM745 222q0 170 -91 170q-90 0 -90 -170q0 -172 90 -172q91 0 91 172zM263 0h-71l375 682h71z" />
    <glyph glyph-name="ampersand" unicode="&#x26;" horiz-adv-x="709" 
d="M319 -18q-130 0 -202 52t-72 153q0 68 39 115.5t105 68.5v1q-98 50 -98 152q0 79 57 127.5t153 48.5q92 0 159 -47v-92h-3q-55 61 -144 61q-57 0 -92.5 -30t-35.5 -81q0 -47 31.5 -77.5t84.5 -30.5h28v-78h-84q-107 -31 -107 -129q0 -137 181 -137q182 0 182 138
q0 94 -96 128v3l32 75h228v-78h-147v-1q75 -54 75 -141q0 -98 -72 -149.5t-202 -51.5z" />
    <glyph glyph-name="quotesingle" unicode="'" horiz-adv-x="270" 
d="M172 441h-73l-3 241h79z" />
    <glyph glyph-name="parenleft" unicode="(" horiz-adv-x="333" 
d="M317 -142h-85q-76 85 -118 193.5t-42 227.5t42 227.5t118 193.5h85q-76 -85 -118 -193.5t-42 -227.5t42 -227.5t118 -193.5z" />
    <glyph glyph-name="parenright" unicode=")" horiz-adv-x="333" 
d="M101 -142h-85q76 85 118 193.5t42 227.5t-42 227.5t-118 193.5h85q160 -178 160 -421t-160 -421z" />
    <glyph glyph-name="asterisk" unicode="*" horiz-adv-x="530" 
d="M425 286l-54 -43l-106 148l-106 -148l-54 43l107 147l-174 63l24 63l170 -63v186h66v-186l170 63l24 -63l-175 -63z" />
    <glyph glyph-name="plus" unicode="+" 
d="M304 55h-68v190h-179v66h179v190h67v-190h180v-66h-179v-190z" />
    <glyph glyph-name="comma" unicode="," horiz-adv-x="270" 
d="M118 -138h-79l73 241h81v-5z" />
    <glyph glyph-name="hyphen" unicode="-" horiz-adv-x="270" 
d="M258 226h-245v80h245v-80z" />
    <glyph glyph-name="period" unicode="." horiz-adv-x="270" 
d="M183 0h-94v103h94v-103z" />
    <glyph glyph-name="slash" unicode="/" horiz-adv-x="373" 
d="M83 0h-82l289 682h81z" />
    <glyph glyph-name="zero" unicode="0" horiz-adv-x="586" 
d="M538 341q0 -183 -68.5 -271t-176.5 -88t-176.5 88.5t-68.5 270.5q0 184 68.5 271.5t176.5 87.5t176.5 -87.5t68.5 -271.5zM447 341q0 141 -41.5 208.5t-112.5 67.5t-112 -67.5t-41 -208.5t41 -208.5t112 -67.5t112.5 67.5t41.5 208.5z" />
    <glyph glyph-name="one" unicode="1" horiz-adv-x="371" 
d="M279 0h-90v593l-149 -53h-3v85l239 75h3v-700z" />
    <glyph glyph-name="two" unicode="2" horiz-adv-x="530" 
d="M502 0h-465v56q176 151 239.5 236.5t63.5 176.5q0 71 -37 112t-96 41q-92 0 -153 -76h-3v95q72 59 172 59q94 0 153.5 -58.5t59.5 -163.5q0 -25 -4 -50t-8 -44t-17 -43.5t-19 -38.5t-27 -39.5t-28 -35t-34 -37.5t-34.5 -35t-40 -38.5t-39.5 -37.5v-1h317v-78z" />
    <glyph glyph-name="three" unicode="3" horiz-adv-x="520" 
d="M473 174q0 -92 -64 -142t-165 -50q-109 0 -183 53v95h3q30 -33 75.5 -51.5t91.5 -18.5q67 0 108 31.5t41 93.5q0 55 -40 86t-111 31h-91v77h107q95 34 95 121q0 57 -36 89.5t-93 32.5q-85 0 -143 -71h-3v96q72 53 165 53q89 0 146.5 -50.5t57.5 -136.5q0 -109 -100 -162
v-1q59 -14 99 -59t40 -117z" />
    <glyph glyph-name="four" unicode="4" horiz-adv-x="530" 
d="M520 142h-102v-142h-89v142h-317v62l345 496h61v-480h102v-78zM331 220v325h-1l-222 -324v-1h223z" />
    <glyph glyph-name="five" unicode="5" horiz-adv-x="514" 
d="M471 200q0 -105 -65.5 -161.5t-166.5 -56.5q-107 0 -179 53v95h3q30 -34 74 -52.5t90 -18.5q68 0 110 36t42 104q0 65 -43 103t-121 38q-73 0 -138 -37h-3l60 379h314v-79h-249l-33 -203q40 14 90 14q95 0 155 -58.5t60 -155.5z" />
    <glyph glyph-name="six" unicode="6" horiz-adv-x="560" 
d="M517 197q0 -104 -66.5 -159.5t-169.5 -55.5q-107 0 -172 57.5t-65 157.5q0 72 40 134l228 351h106v-2l-188 -286h1q36 13 75 13q90 0 150.5 -57.5t60.5 -152.5zM424 197q0 64 -38 103t-105 39q-65 0 -105 -36t-40 -106q0 -64 38 -102.5t105 -38.5q65 0 105 36t40 105z
" />
    <glyph glyph-name="seven" unicode="7" horiz-adv-x="530" 
d="M173 1h-96v2l298 596v1h-343v83h474v-6z" />
    <glyph glyph-name="eight" unicode="8" horiz-adv-x="545" 
d="M502 184q0 -95 -62.5 -148.5t-166.5 -53.5t-167 53.5t-63 148.5q0 65 31.5 111t88.5 67v1q-97 42 -97 155q0 85 56.5 133.5t150.5 48.5q93 0 149.5 -48.5t56.5 -133.5q0 -111 -96 -155v-1q56 -21 87.5 -66.5t31.5 -111.5zM410 187q0 59 -36.5 95t-100.5 36t-101 -36
t-37 -95q0 -60 36 -95.5t102 -35.5q64 0 100.5 35.5t36.5 95.5zM394 512q0 52 -32 83.5t-89 31.5t-89.5 -31.5t-32.5 -83.5t32.5 -84.5t89.5 -32.5q56 0 88.5 32.5t32.5 84.5z" />
    <glyph glyph-name="nine" unicode="9" horiz-adv-x="560" 
d="M248 0h-106v2l188 286l-1 1q-32 -13 -74 -13q-91 0 -151 57t-60 152q0 104 66.5 159.5t169.5 55.5q106 0 171.5 -57t65.5 -158q0 -71 -54 -155zM425 485q0 64 -38.5 103t-105.5 39q-65 0 -105 -36.5t-40 -105.5q0 -64 38 -103t105 -39q65 0 105.5 36t40.5 106z" />
    <glyph glyph-name="colon" unicode=":" horiz-adv-x="270" 
d="M183 0h-94v103h94v-103zM183 403h-94v103h94v-103z" />
    <glyph glyph-name="semicolon" unicode=";" horiz-adv-x="270" 
d="M183 403h-94v103h94v-103zM112 -138h-79l73 241h81v-5z" />
    <glyph glyph-name="less" unicode="&#x3c;" 
d="M482 81l-424 164v65l424 165v-75l-329 -121v-2l329 -122v-74z" />
    <glyph glyph-name="equal" unicode="=" 
d="M483 144h-426v65h426v-65zM483 348h-426v65h426v-65z" />
    <glyph glyph-name="greater" unicode="&#x3e;" 
d="M482 245l-424 -164v74l329 122v2l-329 121v75l424 -165v-65z" />
    <glyph glyph-name="question" unicode="?" horiz-adv-x="489" 
d="M255 206h-73l-3 113q82 82 117 134.5t35 111.5q0 58 -34.5 86t-85.5 28q-101 0 -163 -68h-4v89q72 57 182 57q90 0 144.5 -46t54.5 -131q0 -74 -40 -134.5t-128 -149.5zM263 0h-89v97h89v-97z" />
    <glyph glyph-name="at" unicode="@" horiz-adv-x="878" 
d="M442 106q66 0 111 53v234q-42 42 -105 42q-68 0 -107 -43t-39 -121q0 -77 38 -121t102 -44zM480 -160q-191 0 -311.5 112.5t-120.5 317.5q0 201 112 315.5t278 114.5q171 0 282 -102t111 -287q0 -123 -55.5 -192t-157.5 -69h-60v36h-1q-57 -52 -136 -52
q-88 0 -144.5 63.5t-56.5 173.5t59 173t153 63q76 0 132 -42h1l61 31h5v-385q66 0 99.5 52.5t33.5 142.5q0 164 -90.5 248t-233.5 84q-141 0 -232.5 -97.5t-91.5 -270.5t100.5 -269t266.5 -96q173 0 259 86h4v-78q-44 -34 -116.5 -53.5t-149.5 -19.5z" />
    <glyph glyph-name="A" unicode="A" horiz-adv-x="667" 
d="M652 0h-101l-83 213h-272l-83 -213h-97l279 700h77zM438 294l-106 274h-1l-105 -274h212z" />
    <glyph glyph-name="B" unicode="B" horiz-adv-x="613" 
d="M548 184q0 -184 -245 -184h-204v682h195q98 0 156.5 -45.5t58.5 -128.5q0 -108 -98 -158v-1q58 -13 97.5 -56t39.5 -109zM454 197q0 51 -39 79t-105 28h-119v-223h109q154 0 154 116zM415 494q0 50 -36 79t-97 29h-91v-220h130q94 30 94 112z" />
    <glyph glyph-name="C" unicode="C" horiz-adv-x="614" 
d="M559 165v-110q-86 -73 -207 -73q-133 0 -218.5 95t-85.5 264q0 167 84 263t217 96q123 0 206 -73v-110h-4q-70 96 -188 96q-100 0 -159.5 -73.5t-59.5 -198.5t60.5 -198.5t162.5 -73.5q57 0 106.5 26t81.5 70h4z" />
    <glyph glyph-name="D" unicode="D" horiz-adv-x="711" 
d="M664 341q0 -111 -48.5 -189.5t-125.5 -115t-174 -36.5h-217v682h217q96 0 173.5 -36.5t126 -115t48.5 -189.5zM570 341q0 123 -71 189t-184 66h-124v-510h124q113 0 184 66t71 189z" />
    <glyph glyph-name="E" unicode="E" horiz-adv-x="543" 
d="M475 0h-376v682h350v-86h-258v-202h248v-87h-248v-221h284v-86z" />
    <glyph glyph-name="F" unicode="F" horiz-adv-x="495" 
d="M191 0h-92v682h350v-86h-258v-228h248v-86h-248v-282z" />
    <glyph glyph-name="G" unicode="G" horiz-adv-x="701" 
d="M360 -18q-135 0 -223.5 95t-88.5 264q0 167 92 263t233 96q128 0 227 -77v-106h-4q-88 97 -213 97q-107 0 -173 -72.5t-66 -202.5q0 -133 60.5 -204t155.5 -71q87 0 141.5 51.5t56.5 161.5h-226v4l41 82h280q0 -4 0.5 -25t0.5 -25q0 -168 -83 -249.5t-211 -81.5z" />
    <glyph glyph-name="H" unicode="H" horiz-adv-x="753" 
d="M654 0h-92v310h-371v-310h-92v682h92v-286h371v286h92v-682z" />
    <glyph glyph-name="I" unicode="I" horiz-adv-x="290" 
d="M191 0h-91v682h91v-682z" />
    <glyph glyph-name="J" unicode="J" horiz-adv-x="420" 
d="M162 -18q-63 0 -105 33v99h4q33 -45 86 -45q93 0 93 119v407h-188v5l41 82h237v-509q0 -88 -41.5 -139.5t-126.5 -51.5z" />
    <glyph glyph-name="K" unicode="K" horiz-adv-x="610" 
d="M191 0h-92v682h92v-682zM589 0h-112l-270 343v4l260 335h109l-262 -334v-2z" />
    <glyph glyph-name="L" unicode="L" horiz-adv-x="488" 
d="M455 0h-356v682h92v-596h264v-86z" />
    <glyph glyph-name="M" unicode="M" horiz-adv-x="872" 
d="M788 0h-92l-41 467h-1l-215 -485h-7l-216 486h-1l-39 -468h-92l60 694h70l222 -518h1l221 518h70z" />
    <glyph glyph-name="N" unicode="N" horiz-adv-x="756" 
d="M657 -12h-71l-394 511h-1v-499h-92v640l-27 37v5h98l395 -518h1v518h91v-694z" />
    <glyph glyph-name="O" unicode="O" horiz-adv-x="742" 
d="M694 341q0 -168 -92.5 -263.5t-231.5 -95.5q-136 0 -229 95.5t-93 263.5t92.5 263.5t231.5 95.5q136 0 229 -95.5t93 -263.5zM599 341q0 129 -64.5 201.5t-162.5 72.5q-99 0 -163.5 -72t-64.5 -202q0 -129 64 -201.5t162 -72.5t163.5 72t65.5 202z" />
    <glyph glyph-name="P" unicode="P" horiz-adv-x="586" 
d="M534 472q0 -107 -80 -172t-263 -79v-221h-92v682h194q105 0 173 -54.5t68 -155.5zM440 465q0 62 -42 97t-111 35h-96v-290q249 12 249 158z" />
    <glyph glyph-name="Q" unicode="Q" horiz-adv-x="742" 
d="M694 341q0 -147 -72.5 -238.5t-185.5 -112.5l164 -183h-108l-152 177q-125 10 -208.5 104t-83.5 253q0 168 93 263.5t231 95.5q136 0 229 -95.5t93 -263.5zM599 341q0 129 -64.5 201.5t-162.5 72.5t-163 -72t-65 -202q0 -129 64 -201t162 -72q99 0 164 71.5t65 201.5z
" />
    <glyph glyph-name="R" unicode="R" horiz-adv-x="628" 
d="M601 0h-115l-279 312v5q130 19 179.5 56.5t49.5 100.5q0 57 -41.5 90t-114.5 33h-89v-597h-92v682h194q107 0 171.5 -51.5t64.5 -146.5q0 -79 -41.5 -130t-136.5 -80v-2z" />
    <glyph glyph-name="S" unicode="S" 
d="M482 174q0 -83 -58 -137.5t-159 -54.5q-121 0 -194 66v103h3q34 -42 83 -64.5t102 -22.5q62 0 97 27t35 76q0 33 -17.5 58.5t-45.5 41.5t-61.5 30.5t-67.5 31.5t-62 39t-45.5 58.5t-17.5 84.5q0 80 52 134.5t153 54.5q110 0 179 -66v-102h-3q-32 42 -77.5 64t-92.5 22
q-57 0 -88 -27t-31 -71q0 -45 32.5 -75t79 -49.5t93 -42t79 -67.5t32.5 -112z" />
    <glyph glyph-name="T" unicode="T" horiz-adv-x="534" 
d="M313 -1h-91v596h-192v86h475v-86h-192v-596z" />
    <glyph glyph-name="U" unicode="U" horiz-adv-x="655" 
d="M328 -18q-110 0 -174.5 58t-64.5 166v476h92v-464q0 -75 38 -112.5t107 -37.5t107.5 37.5t38.5 112.5v464h93v-476q0 -108 -63.5 -166t-173.5 -58z" />
    <glyph glyph-name="V" unicode="V" horiz-adv-x="640" 
d="M356 -18h-71l-273 700h101l209 -557h1l208 557h97z" />
    <glyph glyph-name="W" unicode="W" horiz-adv-x="964" 
d="M696 -18h-71l-143 404h-1l-142 -404h-71l-245 700h99l187 -532h1l129 367l-57 165h97l181 -532h1l184 532h97z" />
    <glyph glyph-name="X" unicode="X" horiz-adv-x="665" 
d="M631 0h-112l-191 278h-1l-174 -278h-110l220 347l-229 335h110l185 -271h1l175 271h109l-219 -337z" />
    <glyph glyph-name="Y" unicode="Y" horiz-adv-x="593" 
d="M342 0h-91v281l-242 401h109l178 -307h1l180 307h107l-242 -401v-281z" />
    <glyph glyph-name="Z" unicode="Z" horiz-adv-x="636" 
d="M580 0h-527v6l348 589v1h-324v86h481v-6l-349 -589v-1h371v-86z" />
    <glyph glyph-name="bracketleft" unicode="[" horiz-adv-x="332" 
d="M293 -142h-203v842h203v-70h-123v-702h123v-70z" />
    <glyph glyph-name="backslash" unicode="\" horiz-adv-x="373" 
d="M371 0h-81l-289 682h82z" />
    <glyph glyph-name="bracketright" unicode="]" horiz-adv-x="332" 
d="M39 700h203v-842h-203v70h123v702h-123v70z" />
    <glyph glyph-name="asciicircum" unicode="^" 
d="M467 192h-77l-119 319h-2l-120 -319h-76l164 406h66z" />
    <glyph glyph-name="underscore" unicode="_" 
d="M530 -193h-520v71h520v-71z" />
    <glyph glyph-name="grave" unicode="`" horiz-adv-x="500" 
d="M358 558h-77l-139 192h93z" />
    <glyph glyph-name="grave" unicode="&#x300;" horiz-adv-x="500" 
d="M358 558h-77l-139 192h93z" />
    <glyph glyph-name="grave" unicode="&#x2cb;" horiz-adv-x="500" 
d="M358 558h-77l-139 192h93z" />
    <glyph glyph-name="a" unicode="a" horiz-adv-x="545" 
d="M465 0h-84v40h-1q-65 -58 -152 -58q-74 0 -122 43t-48 116q0 75 49.5 119.5t138.5 44.5q76 0 133 -34v51q0 64 -37.5 95t-98.5 31q-44 0 -84.5 -20t-66.5 -51h-3v90q71 57 171 57q92 0 148.5 -50t56.5 -149v-325zM379 114v87q-50 32 -118 32q-56 0 -86.5 -22.5
t-30.5 -64.5q0 -39 29 -64t82 -25q73 0 124 57z" />
    <glyph glyph-name="b" unicode="b" horiz-adv-x="599" 
d="M559 253q0 -126 -67.5 -198.5t-174.5 -72.5q-85 0 -151 48h-1l-76 -35h-3v755h86v-285h1q65 59 157 59q101 0 165 -73t64 -198zM468 253q0 90 -45 141.5t-118 51.5q-81 0 -133 -62v-274q52 -50 126 -50q78 0 124 50.5t46 142.5z" />
    <glyph glyph-name="c" unicode="c" horiz-adv-x="469" 
d="M427 132v-94q-66 -56 -157 -56q-100 0 -166 72t-66 199q0 125 64.5 198t165.5 73q95 0 156 -55v-94h-3q-53 72 -140 72q-70 0 -111 -53t-41 -141q0 -89 43.5 -141.5t116.5 -52.5q83 0 135 73h3z" />
    <glyph glyph-name="d" unicode="d" horiz-adv-x="599" 
d="M513 0h-85v42h-1q-68 -60 -158 -60q-101 0 -165 73t-64 198q0 126 67.5 198.5t174.5 72.5q84 0 144 -42h1v268h86v-750zM427 122v274q-52 50 -126 50q-78 0 -124 -50.5t-46 -142.5q0 -90 44.5 -141.5t118.5 -51.5q79 0 133 62z" />
    <glyph glyph-name="e" unicode="e" horiz-adv-x="547" 
d="M476 39q-73 -57 -179 -57q-114 0 -186.5 71.5t-72.5 199.5q0 126 65.5 198.5t171.5 72.5q96 0 160.5 -65t64.5 -170q0 -19 -2 -49h-368q4 -87 53 -134.5t130 -47.5q98 0 160 69h3v-88zM410 312q-2 59 -39.5 97.5t-95.5 38.5q-60 0 -98.5 -35.5t-46.5 -100.5h280z" />
    <glyph glyph-name="f" unicode="f" horiz-adv-x="328" 
d="M179 0h-86v430h-44v4l44 72v90q0 74 36.5 117.5t107.5 43.5q55 0 92 -25v-84h-3q-32 32 -72 32q-75 0 -75 -91v-83h122v-76h-122v-430z" />
    <glyph glyph-name="g" unicode="g" horiz-adv-x="584" 
d="M417 133v267q-49 46 -119 46q-75 0 -120.5 -49t-45.5 -135q0 -84 44.5 -134t115.5 -50q75 0 125 55zM288 -196q-111 0 -182 58v88h4q64 -70 168 -70q71 0 105 37t34 98v42h-1q-64 -57 -154 -57q-96 0 -159.5 69t-63.5 193t66 193t171 69q81 0 147 -48h1l76 35h3v-490
q0 -106 -58 -161.5t-157 -55.5z" />
    <glyph glyph-name="h" unicode="h" horiz-adv-x="590" 
d="M509 0h-86v314q0 65 -34 98.5t-89 33.5q-76 0 -128 -62v-384h-86v750h86v-285h1q64 59 152 59q80 0 132 -47t52 -136v-341z" />
    <glyph glyph-name="i" unicode="i" horiz-adv-x="258" 
d="M172 0h-86v506h86v-506zM176 665h-94v85h94v-85z" />
    <glyph glyph-name="j" unicode="j" horiz-adv-x="258" 
d="M29 -193q-58 0 -96 27v84h3q31 -34 75 -34q35 0 55 23.5t20 70.5v528h86v-530q0 -82 -38.5 -125.5t-104.5 -43.5zM176 665h-94v85h94v-85z" />
    <glyph glyph-name="k" unicode="k" horiz-adv-x="511" 
d="M172 0h-86v750h86v-750zM494 0h-106l-203 255v3l195 248h102l-197 -248v-2z" />
    <glyph glyph-name="l" unicode="l" horiz-adv-x="258" 
d="M172 0h-86v750h86v-750z" />
    <glyph glyph-name="m" unicode="m" horiz-adv-x="927" 
d="M846 0h-86v314q0 65 -34 98.5t-89 33.5q-78 0 -135 -71q7 -24 7 -57v-318h-86v314q0 65 -34 98.5t-89 33.5q-76 0 -128 -62v-384h-86v506h85v-42h1q65 60 154 60q109 0 157 -81h2q80 81 178 81q79 0 131 -47t52 -136v-341z" />
    <glyph glyph-name="n" unicode="n" horiz-adv-x="602" 
d="M521 0h-86v314q0 66 -35.5 99t-93.5 33q-80 0 -134 -62v-384h-86v506h85v-42h1q66 60 159 60q83 0 136.5 -47t53.5 -136v-341z" />
    <glyph glyph-name="o" unicode="o" horiz-adv-x="580" 
d="M451 253q0 90 -44 142.5t-116 52.5t-117 -52t-45 -143q0 -90 44 -142t116 -52q73 0 117.5 51.5t44.5 142.5zM543 253q0 -126 -71.5 -198.5t-182.5 -72.5q-109 0 -180 72.5t-71 198.5t71 198.5t182 72.5q109 0 180.5 -72.5t71.5 -198.5z" />
    <glyph glyph-name="p" unicode="p" horiz-adv-x="599" 
d="M559 253q0 -126 -67.5 -198.5t-174.5 -72.5q-84 0 -144 42h-1v-217h-86v699h85v-42h1q66 60 158 60q101 0 165 -73t64 -198zM468 253q0 90 -45 141.5t-118 51.5q-81 0 -133 -62v-274q52 -50 126 -50q78 0 124 50.5t46 142.5z" />
    <glyph glyph-name="q" unicode="q" horiz-adv-x="599" 
d="M513 -193h-86v234h-1q-67 -59 -157 -59q-101 0 -165 73t-64 198q0 126 67.5 198.5t174.5 72.5q85 0 151 -48h1l76 35h3v-704zM427 122v274q-52 50 -126 50q-78 0 -124 -50.5t-46 -142.5q0 -90 44.5 -141.5t118.5 -51.5q79 0 133 62z" />
    <glyph glyph-name="r" unicode="r" horiz-adv-x="383" 
d="M176 0h-86v506h82v-43h1q63 61 130 61q29 0 53 -9v-87h-3q-29 16 -60 16q-53 0 -117 -60v-384z" />
    <glyph glyph-name="s" unicode="s" horiz-adv-x="451" 
d="M390 131q0 -68 -45 -108.5t-129 -40.5q-95 0 -152 49v90h3q55 -67 147 -67q42 0 67 19.5t25 50.5q0 27 -18 47t-44.5 30.5t-57.5 25t-57.5 30.5t-44.5 47.5t-18 74.5q0 65 41.5 105t120.5 40q89 0 144 -49v-90h-3q-55 67 -135 67q-40 0 -61 -19t-21 -49q0 -31 24.5 -51.5
t59.5 -34t70 -30t59.5 -51t24.5 -86.5z" />
    <glyph glyph-name="t" unicode="t" horiz-adv-x="328" 
d="M179 0h-86v430h-44v4l44 72v152h86v-152h122v-76h-122v-430z" />
    <glyph glyph-name="u" unicode="u" horiz-adv-x="583" 
d="M503 506v-321q0 -95 -57 -149t-155 -54q-97 0 -154 53.5t-57 149.5v321h86v-315q0 -66 32.5 -99t92.5 -33t93 33t33 99v315h86z" />
    <glyph glyph-name="v" unicode="v" horiz-adv-x="521" 
d="M291 -18h-61l-218 524h97l152 -392h1l150 392h97z" />
    <glyph glyph-name="w" unicode="w" horiz-adv-x="815" 
d="M605 -18h-55l-142 349h-1l-142 -349h-56l-190 524h96l128 -363h1l160 381h8l159 -380h1l128 362h95z" />
    <glyph glyph-name="x" unicode="x" horiz-adv-x="516" 
d="M501 0h-104l-143 196h-1l-128 -196h-100l171 258l-180 248h102l140 -192h1l129 192h101l-173 -252z" />
    <glyph glyph-name="y" unicode="y" horiz-adv-x="523" 
d="M240 -193h-94l78 194l-215 505h98l160 -394h1l141 394h95z" />
    <glyph glyph-name="z" unicode="z" horiz-adv-x="480" 
d="M443 0h-412v6l256 423v1h-237v76h379v-6l-257 -423v-1h271v-76z" />
    <glyph glyph-name="braceleft" unicode="{" horiz-adv-x="343" 
d="M311 -142q-111 0 -157 40.5t-46 140.5v184l-58 54v4l58 54v184q0 100 46 140.5t157 40.5v-70q-70 0 -96.5 -27t-26.5 -85v-187l-54 -52l54 -52v-187q0 -58 26.5 -85t96.5 -27v-70z" />
    <glyph glyph-name="bar" unicode="|" horiz-adv-x="270" 
d="M171 -190h-71v980h71v-980z" />
    <glyph glyph-name="braceright" unicode="}" horiz-adv-x="343" 
d="M32 700q111 0 157 -40.5t46 -140.5v-184l58 -54v-4l-58 -54v-184q0 -100 -46 -140.5t-157 -40.5v70q70 0 96.5 27t26.5 85v187l54 52l-54 52v187q0 58 -26.5 85t-96.5 27v70z" />
    <glyph glyph-name="asciitilde" unicode="~" 
d="M478 269q-47 -52 -108 -52q-35 0 -101 30t-98 30q-57 0 -109 -59v73q46 51 108 51q36 0 102 -29.5t97 -29.5q60 0 109 58v-72z" />
    <glyph glyph-name="exclamdown" unicode="&#xa1;" horiz-adv-x="278" 
d="M187 -244h-96l11 544h74zM184 409h-89v97h89v-97z" />
    <glyph glyph-name="cent" unicode="&#xa2;" horiz-adv-x="517" 
d="M346 -142h-75v126q-104 10 -166 84.5t-62 201.5q0 125 62.5 201t165.5 85v126h75v-128q71 -12 122 -54v-97h-4q-43 60 -118 72v-411q73 11 121 73h4v-97q-50 -43 -125 -54v-128zM135 270q0 -84 35.5 -137t100.5 -67v408q-64 -12 -100 -65t-36 -139z" />
    <glyph glyph-name="sterling" unicode="&#xa3;" horiz-adv-x="530" 
d="M468 0h-425v78h108l-25 223h-83v77h74l-6 60q-5 58 -5 71q0 84 55.5 137.5t149.5 53.5q98 0 167 -57v-97h-3q-61 74 -157 74q-57 0 -89 -34.5t-32 -89.5q0 -30 4 -66l6 -52h208v-77h-200l26 -223h227v-78z" />
    <glyph glyph-name="currency" unicode="&#xa4;" 
d="M419 279q0 -43 -24 -78l60 -60l-47 -47l-61 61q-33 -25 -77 -25q-45 0 -79 25l-60 -60l-47 46l61 60q-24 37 -24 78q0 43 24 77l-61 62l47 46l61 -60q35 25 78 25q41 0 78 -25l61 61l46 -47l-61 -60q25 -36 25 -79zM359 279q0 38 -26 65.5t-64 27.5q-37 0 -63.5 -27.5
t-26.5 -65.5t26.5 -65.5t63.5 -27.5q38 0 64 27.5t26 65.5z" />
    <glyph glyph-name="yen" unicode="&#xa5;" horiz-adv-x="530" 
d="M321 0h-88v155h-184v71h184v84h-184v71h152l-163 301h98l140 -280h1l133 280h94l-153 -301h142v-71h-172v-84h172v-71h-172v-155z" />
    <glyph glyph-name="brokenbar" unicode="&#xa6;" horiz-adv-x="270" 
d="M171 398h-71v392h71v-392zM171 -190h-71v392h71v-392z" />
    <glyph glyph-name="section" unicode="&#xa7;" horiz-adv-x="530" 
d="M472 275q0 -69 -36 -111.5t-93 -56.5v-1q42 -19 65 -45t23 -74q0 -66 -45.5 -106.5t-129.5 -40.5q-98 0 -153 49v83h3q25 -30 64.5 -46.5t80.5 -16.5q44 0 68.5 20.5t24.5 54.5q0 25 -9.5 41.5t-28.5 27t-38 17t-46.5 15.5t-46.5 19q-117 42 -117 171q0 67 34 109t91 58
v1q-80 35 -80 114q0 63 42.5 103t122.5 40q86 0 143 -49v-84h-3q-24 29 -61 46.5t-73 17.5q-41 0 -62.5 -19.5t-21.5 -52.5q0 -21 7.5 -36.5t26 -27t31.5 -17t44 -15t43 -13.5q61 -17 95.5 -62t34.5 -113zM380 275q0 51 -30.5 82.5t-83.5 31.5q-52 0 -84 -29t-32 -85
q0 -51 30 -83t84 -32q52 0 84 29.5t32 85.5z" />
    <glyph glyph-name="dieresis" unicode="&#xa8;" horiz-adv-x="500" 
d="M190 665h-88v85h88v-85zM397 665h-88v85h88v-85z" />
    <glyph glyph-name="dieresis" unicode="&#x308;" horiz-adv-x="500" 
d="M190 665h-88v85h88v-85zM397 665h-88v85h88v-85z" />
    <glyph glyph-name="copyright" unicode="&#xa9;" horiz-adv-x="776" 
d="M396 120q-82 0 -134.5 59t-52.5 162q0 102 51.5 161t133.5 59q74 0 127 -43v-72h-3q-42 52 -112 52q-60 0 -95 -42t-35 -115t35.5 -115.5t95.5 -42.5q69 0 114 52h2v-71q-54 -44 -127 -44zM387 -18q-143 0 -241 95.5t-98 263.5t98 263.5t243 95.5q143 0 241 -95.5
t98 -263.5t-97.5 -263.5t-243.5 -95.5zM386 30q124 0 206 81t82 230q0 147 -80 229.5t-203 82.5q-124 0 -206.5 -81.5t-82.5 -230.5q0 -146 80.5 -228.5t203.5 -82.5z" />
    <glyph glyph-name="ordfeminine" unicode="&#xaa;" horiz-adv-x="361" 
d="M309 150h-257v59h257v-59zM310 295h-64v26h-1q-41 -38 -98 -38q-48 0 -79.5 28t-31.5 76q0 49 32 78t90 29q50 0 86 -21v32q0 39 -23.5 58t-62.5 19q-61 0 -99 -43h-3v62q51 36 115 36q62 0 100.5 -33t38.5 -100v-209zM244 366v62q-30 20 -69 20q-35 0 -54 -15.5
t-19 -42.5q0 -24 17.5 -40t49.5 -16q45 0 75 32z" />
    <glyph glyph-name="guillemotleft" unicode="&#xab;" horiz-adv-x="464" 
d="M256 71h-80l-135 191v6l135 191h80l-129 -194zM423 71h-80l-135 191v6l135 191h80l-129 -194z" />
    <glyph glyph-name="logicalnot" unicode="&#xac;" 
d="M483 177h-67v172h-359v66h426v-238z" />
    <glyph glyph-name="registered" unicode="&#xae;" horiz-adv-x="776" 
d="M319 131h-65v419h127q66 0 106 -32t40 -91q0 -47 -25.5 -75.5t-87.5 -46.5v-1l157 -173h-79l-163 193v3q75 11 103.5 33t28.5 59q0 34 -24 54t-66 20h-52v-362zM387 -18q-143 0 -241 95.5t-98 263.5t98 263.5t243 95.5q143 0 241 -95.5t98 -263.5t-97.5 -263.5
t-243.5 -95.5zM386 30q124 0 206 81t82 230q0 147 -80 229.5t-203 82.5q-124 0 -206.5 -81.5t-82.5 -230.5q0 -146 80.5 -228.5t203.5 -82.5z" />
    <glyph glyph-name="macron" unicode="&#xaf;" horiz-adv-x="500" 
d="M411 668h-322v67h322v-67z" />
    <glyph glyph-name="macron" unicode="&#x304;" horiz-adv-x="500" 
d="M411 668h-322v67h322v-67z" />
    <glyph glyph-name="macron" unicode="&#x2c9;" horiz-adv-x="500" 
d="M411 668h-322v67h322v-67z" />
    <glyph glyph-name="degree" unicode="&#xb0;" horiz-adv-x="312" 
d="M285 576q0 -54 -36 -87.5t-93 -33.5q-56 0 -92.5 33.5t-36.5 87.5t36.5 87.5t93.5 33.5q56 0 92 -33.5t36 -87.5zM224 576q0 34 -18.5 54.5t-48.5 20.5q-31 0 -49.5 -20.5t-18.5 -54.5t18.5 -54.5t48.5 -20.5q31 0 49.5 20.5t18.5 54.5z" />
    <glyph glyph-name="plusminus" unicode="&#xb1;" 
d="M483 82h-426v67h426v-67zM303 197h-66v133h-180v66h179v146h67v-146h180v-66h-180v-133z" />
    <glyph glyph-name="twosuperior" unicode="&#xb2;" horiz-adv-x="350" 
d="M331 295h-306v45q113 94 153 148t40 110q0 44 -23 68.5t-60 24.5q-57 0 -99 -44h-2v66q50 37 113 37q62 0 101.5 -38t39.5 -106q0 -20 -4 -39.5t-8 -33.5t-16 -33.5t-17.5 -28t-25 -30t-25 -27t-30.5 -30t-30 -29.5v-1h199v-59z" />
    <glyph glyph-name="threesuperior" unicode="&#xb3;" horiz-adv-x="350" 
d="M317 408q0 -60 -41 -92.5t-108 -32.5q-72 0 -123 35v66h2q41 -43 110 -43q40 0 65.5 19.5t25.5 56.5q0 33 -24.5 51.5t-67.5 18.5h-61v59h68q58 21 58 72q0 34 -21.5 53.5t-57.5 19.5q-55 0 -92 -42h-2v67q48 34 109 34q59 0 96.5 -32.5t37.5 -89.5q0 -72 -67 -106
q40 -8 66.5 -37.5t26.5 -76.5z" />
    <glyph glyph-name="acute" unicode="&#xb4;" horiz-adv-x="500" 
d="M219 557h-77l125 193h91z" />
    <glyph glyph-name="acute" unicode="&#x301;" horiz-adv-x="500" 
d="M219 557h-77l125 193h91z" />
    <glyph glyph-name="acute" unicode="&#x2ca;" horiz-adv-x="500" 
d="M219 557h-77l125 193h91z" />
    <glyph glyph-name="mu" unicode="&#xb5;" horiz-adv-x="595" 
d="M509 0h-82v42h-1q-58 -60 -135 -60q-93 0 -128 65h-2q7 -93 11 -202l-84 -38h-2v699h86v-314q0 -67 34.5 -99.5t90.5 -32.5q82 0 126 69v377h86v-506z" />
    <glyph glyph-name="paragraph" unicode="&#xb6;" horiz-adv-x="584" 
d="M483 -142h-87v366q-185 16 -264 78.5t-79 169.5q0 104 67.5 157t172.5 53h190v-824z" />
    <glyph glyph-name="periodcentered" unicode="&#xb7;" horiz-adv-x="270" 
d="M183 215h-94v102h94v-102z" />
    <glyph glyph-name="periodcentered" unicode="&#x2219;" horiz-adv-x="270" 
d="M183 215h-94v102h94v-102z" />
    <glyph glyph-name="cedilla" unicode="&#xb8;" horiz-adv-x="500" 
d="M350 -119q0 -35 -29.5 -54.5t-79.5 -19.5q-54 0 -91 17v49h3q32 -21 74 -21q52 0 52 31q0 20 -21 27.5t-66 10.5l21 79h63l-13 -46q87 -13 87 -73z" />
    <glyph glyph-name="cedilla" unicode="&#x327;" horiz-adv-x="500" 
d="M350 -119q0 -35 -29.5 -54.5t-79.5 -19.5q-54 0 -91 17v49h3q32 -21 74 -21q52 0 52 31q0 20 -21 27.5t-66 10.5l21 79h63l-13 -46q87 -13 87 -73z" />
    <glyph glyph-name="onesuperior" unicode="&#xb9;" horiz-adv-x="350" 
d="M238 295h-68v375l-98 -33h-2v64l166 49h2v-455z" />
    <glyph glyph-name="ordmasculine" unicode="&#xba;" horiz-adv-x="382" 
d="M320 150h-258v59h258v-59zM289 459q0 55 -27 86.5t-70 31.5q-45 0 -72.5 -31t-27.5 -87q0 -53 27.5 -85t70.5 -32q44 0 71.5 31t27.5 86zM358 459q0 -81 -47 -128.5t-121 -47.5q-72 0 -119 47.5t-47 128.5q0 83 46.5 130.5t121.5 47.5q73 0 119.5 -47.5t46.5 -130.5z" />
    <glyph glyph-name="guillemotright" unicode="&#xbb;" horiz-adv-x="464" 
d="M121 71h-80l129 194l-129 194h80l135 -191v-6zM288 71h-80l129 194l-129 194h80l135 -191v-6z" />
    <glyph glyph-name="onequarter" unicode="&#xbc;" horiz-adv-x="775" 
d="M767 92h-63v-92h-68v92h-200v45l219 318h49v-309h63v-54zM638 146v198h-1l-133 -197v-1h134zM238 239h-68v375l-98 -33h-2v64l166 49h2v-455zM246 0h-71l375 682h71z" />
    <glyph glyph-name="onehalf" unicode="&#xbd;" horiz-adv-x="829" 
d="M811 0h-306v45q113 94 153 148t40 110q0 44 -23 68.5t-60 24.5q-57 0 -99 -44h-2v66q50 37 113 37q62 0 101.5 -38t39.5 -106q0 -20 -4 -39.5t-8 -33.5t-16 -33.5t-17.5 -28t-25 -30t-25 -27t-30.5 -30t-30 -29.5v-1h199v-59zM238 239h-68v375l-98 -33h-2v64l166 49h2
v-455zM246 0h-71l375 682h71z" />
    <glyph glyph-name="threequarters" unicode="&#xbe;" horiz-adv-x="799" 
d="M791 92h-63v-92h-68v92h-200v45l219 318h49v-309h63v-54zM317 352q0 -60 -41 -92.5t-108 -32.5q-72 0 -123 35v66h2q41 -43 110 -43q40 0 65.5 19.5t25.5 56.5q0 33 -24.5 51.5t-67.5 18.5h-61v59h68q58 21 58 72q0 34 -21.5 53.5t-57.5 19.5q-55 0 -92 -42h-2v67
q48 34 109 34q59 0 96.5 -32.5t37.5 -89.5q0 -72 -67 -106q40 -8 66.5 -37.5t26.5 -76.5zM270 0h-71l375 682h71zM662 146v198h-1l-133 -197v-1h134z" />
    <glyph glyph-name="questiondown" unicode="&#xbf;" horiz-adv-x="489" 
d="M234 300h74l2 -113q-81 -81 -116.5 -133.5t-35.5 -111.5t34 -87t86 -28q102 0 163 69h4v-90q-72 -57 -182 -57q-90 0 -144.5 46t-54.5 131q0 74 40 134.5t128 149.5zM227 506h88v-97h-88v97z" />
    <glyph glyph-name="Agrave" unicode="&#xc0;" horiz-adv-x="667" 
d="M652 0h-101l-83 213h-272l-83 -213h-97l276 693l-85 107h93l64 -100h8zM438 294l-106 274h-1l-105 -274h212z" />
    <glyph glyph-name="Aacute" unicode="&#xc1;" horiz-adv-x="667" 
d="M652 0h-101l-83 213h-272l-83 -213h-97l279 700h7l65 100h93l-85 -107zM438 294l-106 274h-1l-105 -274h212z" />
    <glyph glyph-name="Acircumflex" unicode="&#xc2;" horiz-adv-x="667" 
d="M652 0h-101l-83 213h-272l-83 -213h-97l279 700h77zM438 294l-106 274h-1l-105 -274h212zM468 682h-75l-58 72h-1l-59 -72h-75l100 128h68z" />
    <glyph glyph-name="Atilde" unicode="&#xc3;" horiz-adv-x="667" 
d="M652 0h-101l-83 213h-272l-83 -213h-97l279 700h77zM438 294l-106 274h-1l-105 -274h212zM400 701q-24 0 -67 25.5t-58 25.5q-12 0 -20.5 -8t-11.5 -15t-11 -28h-58q16 55 35.5 81.5t58.5 26.5q24 0 67 -25.5t58 -25.5q12 0 20 6t11.5 14t9.5 25q1 4 2 6h58
q-15 -56 -35 -82t-59 -26z" />
    <glyph glyph-name="Adieresis" unicode="&#xc4;" horiz-adv-x="667" 
d="M652 0h-101l-83 213h-272l-83 -213h-97l279 700h77zM438 294l-106 274h-1l-105 -274h212zM274 732h-88v77h88v-77zM481 732h-88v77h88v-77z" />
    <glyph glyph-name="Aring" unicode="&#xc5;" horiz-adv-x="667" 
d="M444 772q0 -32 -18.5 -53.5t-48.5 -30.5l275 -688h-101l-83 213h-272l-83 -213h-97l274 687q-67 19 -67 85q0 42 32 65t80 23q47 0 78 -23t31 -65zM438 294l-106 274h-1l-105 -274h212zM388 772q0 20 -15.5 32t-38.5 12q-24 0 -40 -12t-16 -32q0 -22 15.5 -34t40.5 -12
q24 0 39 12t15 34z" />
    <glyph glyph-name="AE" unicode="&#xc6;" horiz-adv-x="915" 
d="M847 0h-375v277h-193l-163 -277h-106l400 682h411v-86h-258v-220h248v-86h-248v-204h284v-86zM470 611l-146 -248h148v248h-2z" />
    <glyph glyph-name="Ccedilla" unicode="&#xc7;" horiz-adv-x="613" 
d="M445 -119q0 -35 -29.5 -54.5t-79.5 -19.5q-54 0 -91 17v49h3q32 -21 74 -21q52 0 52 31q0 20 -21 27.5t-66 10.5l17 65q-114 16 -185 109t-71 246q0 167 84 263t217 96q123 0 206 -73v-110h-4q-70 96 -188 96q-100 0 -159.5 -73.5t-59.5 -198.5t60.5 -198.5t162.5 -73.5
q57 0 106.5 26t81.5 70h4v-110q-79 -69 -193 -73l-8 -28q87 -13 87 -73z" />
    <glyph glyph-name="Egrave" unicode="&#xc8;" horiz-adv-x="543" 
d="M475 0h-376v682h148l-94 118h93l76 -118h127v-86h-258v-202h248v-87h-248v-221h284v-86z" />
    <glyph glyph-name="Eacute" unicode="&#xc9;" horiz-adv-x="543" 
d="M475 0h-376v682h133l76 118h93l-94 -118h142v-86h-258v-202h248v-87h-248v-221h284v-86z" />
    <glyph glyph-name="Ecircumflex" unicode="&#xca;" horiz-adv-x="543" 
d="M405 682h44v-86h-258v-202h248v-87h-248v-221h284v-86h-376v682h38l100 128h68zM271 754l-59 -72h118l-58 72h-1z" />
    <glyph glyph-name="Edieresis" unicode="&#xcb;" horiz-adv-x="543" 
d="M211 732h-88v77h88v-77zM418 732h-88v77h88v-77zM475 0h-376v682h350v-86h-258v-202h248v-87h-248v-221h284v-86z" />
    <glyph glyph-name="Igrave" unicode="&#xcc;" horiz-adv-x="292" 
d="M183 682h8v-682h-91v682h8l-94 118h93z" />
    <glyph glyph-name="Iacute" unicode="&#xcd;" horiz-adv-x="292" 
d="M183 682h8v-682h-91v682h8l76 118h93z" />
    <glyph glyph-name="Icircumflex" unicode="&#xce;" horiz-adv-x="292" 
d="M191 0h-91v682h91v-682zM280 682h-75l-58 72h-1l-59 -72h-75l100 128h68z" />
    <glyph glyph-name="Idieresis" unicode="&#xcf;" horiz-adv-x="292" 
d="M191 0h-91v682h91v-682zM87 732h-88v77h88v-77zM294 732h-88v77h88v-77z" />
    <glyph glyph-name="Eth" unicode="&#xd0;" horiz-adv-x="711" 
d="M664 341q0 -111 -48.5 -189.5t-125.5 -115t-174 -36.5h-217v314h-99v73h99v295h217q96 0 173.5 -36.5t126 -115t48.5 -189.5zM570 341q0 123 -71 189t-184 66h-124v-209h187v-73h-187v-228h124q113 0 184 66t71 189z" />
    <glyph glyph-name="Ntilde" unicode="&#xd1;" horiz-adv-x="756" 
d="M441 701q-23 0 -67 25.5t-58 25.5q-12 0 -20.5 -8t-11.5 -15t-11 -28h-58q16 55 35.5 81.5t58.5 26.5q24 0 67 -25.5t58 -25.5q12 0 20 6t11.5 14t9.5 25q1 4 2 6h58q-15 -56 -35 -82t-59 -26zM657 -12h-71l-394 511h-1v-499h-92v640l-27 37v5h98l395 -518h1v518h91v-694
z" />
    <glyph glyph-name="Ograve" unicode="&#xd2;" horiz-adv-x="742" 
d="M694 341q0 -168 -92.5 -263.5t-231.5 -95.5q-136 0 -229 95.5t-93 263.5q0 153 77.5 246.5t199.5 109.5l-82 103h93l65 -102q126 -10 209.5 -104.5t83.5 -252.5zM599 341q0 129 -64.5 201.5t-162.5 72.5q-99 0 -163.5 -72t-64.5 -202q0 -129 64 -201.5t162 -72.5
t163.5 72t65.5 202z" />
    <glyph glyph-name="Oacute" unicode="&#xd3;" horiz-adv-x="742" 
d="M694 341q0 -168 -92.5 -263.5t-231.5 -95.5q-136 0 -229 95.5t-93 263.5q0 157 82 251.5t209 105.5l66 102h93l-82 -103q121 -16 199.5 -109.5t78.5 -246.5zM599 341q0 129 -64.5 201.5t-162.5 72.5q-99 0 -163.5 -72t-64.5 -202q0 -129 64 -201.5t162 -72.5t163.5 72
t65.5 202z" />
    <glyph glyph-name="Ocircumflex" unicode="&#xd4;" horiz-adv-x="742" 
d="M505 682h-25q96 -34 155 -122t59 -219q0 -168 -92.5 -263.5t-231.5 -95.5q-136 0 -229 95.5t-93 263.5q0 131 58.5 219t154.5 122h-24l100 128h68zM599 341q0 129 -64.5 201.5t-162.5 72.5q-99 0 -163.5 -72t-64.5 -202q0 -129 64 -201.5t162 -72.5t163.5 72t65.5 202z
M372 700q24 0 46 -3l-46 57h-1l-47 -58q30 4 48 4z" />
    <glyph glyph-name="Otilde" unicode="&#xd5;" horiz-adv-x="742" 
d="M440 701q-24 0 -67 25.5t-58 25.5q-12 0 -20.5 -8t-11.5 -15t-11 -28h-58q16 55 35.5 81.5t58.5 26.5q24 0 67 -25.5t58 -25.5q12 0 20 6t11.5 14t9.5 25q1 4 2 6h58q-15 -56 -35 -82t-59 -26zM694 341q0 -168 -92.5 -263.5t-231.5 -95.5q-136 0 -229 95.5t-93 263.5
t92.5 263.5t231.5 95.5q136 0 229 -95.5t93 -263.5zM599 341q0 129 -64.5 201.5t-162.5 72.5q-99 0 -163.5 -72t-64.5 -202q0 -129 64 -201.5t162 -72.5t163.5 72t65.5 202z" />
    <glyph glyph-name="Odieresis" unicode="&#xd6;" horiz-adv-x="742" 
d="M311 732h-88v77h88v-77zM518 732h-88v77h88v-77zM694 341q0 -168 -92.5 -263.5t-231.5 -95.5q-136 0 -229 95.5t-93 263.5t92.5 263.5t231.5 95.5q136 0 229 -95.5t93 -263.5zM599 341q0 129 -64.5 201.5t-162.5 72.5q-99 0 -163.5 -72t-64.5 -202q0 -129 64 -201.5
t162 -72.5t163.5 72t65.5 202z" />
    <glyph glyph-name="multiply" unicode="&#xd7;" 
d="M455 139l-47 -47l-139 138l-138 -137l-47 45l139 139l-139 138l47 47l138 -138l140 139l46 -46l-139 -140z" />
    <glyph glyph-name="Oslash" unicode="&#xd8;" horiz-adv-x="742" 
d="M140 -18h-92l82 108q-82 96 -82 251q0 168 93 263.5t231 95.5q105 0 186 -58l44 58h92l-82 -108q82 -98 82 -251q0 -168 -92.5 -263.5t-231.5 -95.5q-105 0 -186 58zM599 341q0 106 -46 176l-315 -405q55 -43 132 -43q99 0 164 71t65 201zM144 341q0 -105 44 -174
l315 404q-57 43 -131 43q-98 0 -163 -71.5t-65 -201.5z" />
    <glyph glyph-name="Ugrave" unicode="&#xd9;" horiz-adv-x="655" 
d="M365 682h-75l-94 118h93zM328 -18q-110 0 -174.5 58t-64.5 166v476h92v-464q0 -75 38 -112.5t107 -37.5t107.5 37.5t38.5 112.5v464h93v-476q0 -108 -63.5 -166t-173.5 -58z" />
    <glyph glyph-name="Uacute" unicode="&#xda;" horiz-adv-x="655" 
d="M357 682h-75l76 118h93zM328 -18q-110 0 -174.5 58t-64.5 166v476h92v-464q0 -75 38 -112.5t107 -37.5t107.5 37.5t38.5 112.5v464h93v-476q0 -108 -63.5 -166t-173.5 -58z" />
    <glyph glyph-name="Ucircumflex" unicode="&#xdb;" horiz-adv-x="655" 
d="M328 -18q-110 0 -174.5 58t-64.5 166v476h92v-464q0 -75 38 -112.5t107 -37.5t107.5 37.5t38.5 112.5v464h93v-476q0 -108 -63.5 -166t-173.5 -58zM459 682h-75l-58 72h-1l-59 -72h-75l100 128h68z" />
    <glyph glyph-name="Udieresis" unicode="&#xdc;" horiz-adv-x="655" 
d="M266 732h-88v77h88v-77zM473 732h-88v77h88v-77zM328 -18q-110 0 -174.5 58t-64.5 166v476h92v-464q0 -75 38 -112.5t107 -37.5t107.5 37.5t38.5 112.5v464h93v-476q0 -108 -63.5 -166t-173.5 -58z" />
    <glyph glyph-name="Yacute" unicode="&#xdd;" horiz-adv-x="593" 
d="M342 0h-91v281l-242 401h109l178 -307h1l180 307h107l-242 -401v-281zM331 682h-75l76 118h93z" />
    <glyph glyph-name="Thorn" unicode="&#xde;" horiz-adv-x="586" 
d="M534 412q0 -108 -79.5 -172.5t-263.5 -78.5v-161h-92v682h92v-60h102q105 0 173 -54.5t68 -155.5zM440 405q0 62 -42 97t-111 35h-96v-290q249 12 249 158z" />
    <glyph glyph-name="germandbls" unicode="&#xdf;" horiz-adv-x="619" 
d="M388 -18q-96 0 -154 49v88h3q25 -31 64.5 -48t80.5 -17q45 0 69.5 19t24.5 52q0 28 -18 47.5t-44.5 30t-57.5 24.5t-57.5 30t-44.5 47.5t-18 75.5t19.5 75.5t47 48t55.5 30.5t47.5 33t19.5 45q0 68 -112 68q-62 0 -98 -26t-36 -79v-575h-86v430h-44v4l44 72v79
q0 79 58.5 125.5t162.5 46.5q96 0 149 -36t53 -103q0 -40 -20 -68.5t-49 -44t-57.5 -30t-48.5 -35.5t-20 -51q0 -35 24.5 -56.5t60 -34.5t71 -29t60 -50.5t24.5 -88.5q0 -66 -45 -107t-128 -41z" />
    <glyph glyph-name="agrave" unicode="&#xe0;" horiz-adv-x="545" 
d="M465 0h-84v40h-1q-65 -58 -152 -58q-74 0 -122 43t-48 116q0 75 49.5 119.5t138.5 44.5q76 0 133 -34v51q0 64 -37.5 95t-98.5 31q-44 0 -84.5 -20t-66.5 -51h-3v90q71 57 171 57q92 0 148.5 -50t56.5 -149v-325zM379 114v87q-50 32 -118 32q-56 0 -86.5 -22.5
t-30.5 -64.5q0 -39 29 -64t82 -25q73 0 124 57zM311 558h-77l-139 192h93z" />
    <glyph glyph-name="aacute" unicode="&#xe1;" horiz-adv-x="545" 
d="M465 0h-84v40h-1q-65 -58 -152 -58q-74 0 -122 43t-48 116q0 75 49.5 119.5t138.5 44.5q76 0 133 -34v51q0 64 -37.5 95t-98.5 31q-44 0 -84.5 -20t-66.5 -51h-3v90q71 57 171 57q92 0 148.5 -50t56.5 -149v-325zM379 114v87q-50 32 -118 32q-56 0 -86.5 -22.5
t-30.5 -64.5q0 -39 29 -64t82 -25q73 0 124 57zM303 557h-77l125 193h91z" />
    <glyph glyph-name="acircumflex" unicode="&#xe2;" horiz-adv-x="545" 
d="M465 0h-84v40h-1q-65 -58 -152 -58q-74 0 -122 43t-48 116q0 75 49.5 119.5t138.5 44.5q76 0 133 -34v51q0 64 -37.5 95t-98.5 31q-44 0 -84.5 -20t-66.5 -51h-3v90q71 57 171 57q92 0 148.5 -50t56.5 -149v-325zM379 114v87q-50 32 -118 32q-56 0 -86.5 -22.5
t-30.5 -64.5q0 -39 29 -64t82 -25q73 0 124 57zM443 558h-77l-95 133h-1l-96 -133h-77l142 199h62z" />
    <glyph glyph-name="atilde" unicode="&#xe3;" horiz-adv-x="545" 
d="M465 0h-84v40h-1q-65 -58 -152 -58q-74 0 -122 43t-48 116q0 75 49.5 119.5t138.5 44.5q76 0 133 -34v51q0 64 -37.5 95t-98.5 31q-44 0 -84.5 -20t-66.5 -51h-3v90q71 57 171 57q92 0 148.5 -50t56.5 -149v-325zM379 114v87q-50 32 -118 32q-56 0 -86.5 -22.5
t-30.5 -64.5q0 -39 29 -64t82 -25q73 0 124 57zM351 614q-31 0 -82 35.5t-71 35.5q-19 0 -29.5 -16.5t-22.5 -54.5h-57q15 69 38 102.5t64 33.5q31 0 82 -35.5t71 -35.5q19 0 29.5 16t22.5 55h57q-15 -70 -38 -103t-64 -33z" />
    <glyph glyph-name="adieresis" unicode="&#xe4;" horiz-adv-x="545" 
d="M465 0h-84v40h-1q-65 -58 -152 -58q-74 0 -122 43t-48 116q0 75 49.5 119.5t138.5 44.5q76 0 133 -34v51q0 64 -37.5 95t-98.5 31q-44 0 -84.5 -20t-66.5 -51h-3v90q71 57 171 57q92 0 148.5 -50t56.5 -149v-325zM379 114v87q-50 32 -118 32q-56 0 -86.5 -22.5
t-30.5 -64.5q0 -39 29 -64t82 -25q73 0 124 57zM210 665h-88v85h88v-85zM417 665h-88v85h88v-85z" />
    <glyph glyph-name="aring" unicode="&#xe5;" horiz-adv-x="545" 
d="M465 0h-84v40h-1q-65 -58 -152 -58q-74 0 -122 43t-48 116q0 75 49.5 119.5t138.5 44.5q76 0 133 -34v51q0 64 -37.5 95t-98.5 31q-44 0 -84.5 -20t-66.5 -51h-3v90q71 57 171 57q92 0 148.5 -50t56.5 -149v-325zM379 114v87q-50 32 -118 32q-56 0 -86.5 -22.5
t-30.5 -64.5q0 -39 29 -64t82 -25q73 0 124 57zM388 672q0 -46 -33 -71t-82 -25t-81 25t-32 71t33 70.5t82 24.5q48 0 80.5 -24.5t32.5 -70.5zM328 672q0 23 -15 36.5t-39 13.5q-25 0 -40.5 -13.5t-15.5 -36.5q0 -25 15.5 -38.5t40.5 -13.5t39.5 13.5t14.5 38.5z" />
    <glyph glyph-name="ae" unicode="&#xe6;" horiz-adv-x="883" 
d="M632 -18q-132 0 -201 90h-2q-78 -90 -201 -90q-74 0 -122 43t-48 116q0 75 49.5 119.5t138.5 44.5q76 0 133 -34v52q0 64 -37.5 94.5t-98.5 30.5q-44 0 -84.5 -20t-66.5 -50h-3v89q71 57 171 57q123 0 169 -95h2q55 95 179 95q96 0 160.5 -64.5t64.5 -169.5q0 -35 -2 -50
h-368q3 -87 52.5 -135t131.5 -48q98 0 159 70h3v-88q-71 -57 -179 -57zM255 57q88 0 144 70q-17 41 -19 73q-50 33 -115 33q-121 0 -121 -88q0 -39 28.5 -63.5t82.5 -24.5zM746 312q-3 61 -41 98.5t-96 37.5q-59 0 -97 -35t-46 -101h280z" />
    <glyph glyph-name="ccedilla" unicode="&#xe7;" horiz-adv-x="469" 
d="M364 -119q0 -35 -29.5 -54.5t-79.5 -19.5q-54 0 -91 17v49h3q32 -21 74 -21q52 0 52 31q0 20 -21 27.5t-66 10.5l17 66q-82 16 -133.5 85.5t-51.5 180.5q0 125 64.5 198t165.5 73q95 0 156 -55v-94h-3q-53 72 -140 72q-70 0 -111 -53t-41 -141q0 -89 43.5 -141.5
t116.5 -52.5q83 0 135 73h3v-94q-60 -51 -142 -55l-8 -29q87 -13 87 -73z" />
    <glyph glyph-name="egrave" unicode="&#xe8;" horiz-adv-x="547" 
d="M476 39q-73 -57 -179 -57q-114 0 -186.5 71.5t-72.5 199.5q0 126 65.5 198.5t171.5 72.5q96 0 160.5 -65t64.5 -170q0 -19 -2 -49h-368q4 -87 53 -134.5t130 -47.5q98 0 160 69h3v-88zM410 312q-2 59 -39.5 97.5t-95.5 38.5q-60 0 -98.5 -35.5t-46.5 -100.5h280zM307 558
h-77l-139 192h93z" />
    <glyph glyph-name="eacute" unicode="&#xe9;" horiz-adv-x="547" 
d="M304 557h-77l125 193h91zM476 39q-73 -57 -179 -57q-114 0 -186.5 71.5t-72.5 199.5q0 126 65.5 198.5t171.5 72.5q96 0 160.5 -65t64.5 -170q0 -19 -2 -49h-368q4 -87 53 -134.5t130 -47.5q98 0 160 69h3v-88zM410 312q-2 59 -39.5 97.5t-95.5 38.5q-60 0 -98.5 -35.5
t-46.5 -100.5h280z" />
    <glyph glyph-name="ecircumflex" unicode="&#xea;" horiz-adv-x="547" 
d="M446 558h-77l-95 133h-1l-96 -133h-77l142 199h62zM476 39q-73 -57 -179 -57q-114 0 -186.5 71.5t-72.5 199.5q0 126 65.5 198.5t171.5 72.5q96 0 160.5 -65t64.5 -170q0 -19 -2 -49h-368q4 -87 53 -134.5t130 -47.5q98 0 160 69h3v-88zM410 312q-2 59 -39.5 97.5
t-95.5 38.5q-60 0 -98.5 -35.5t-46.5 -100.5h280z" />
    <glyph glyph-name="edieresis" unicode="&#xeb;" horiz-adv-x="547" 
d="M214 665h-88v85h88v-85zM421 665h-88v85h88v-85zM476 39q-73 -57 -179 -57q-114 0 -186.5 71.5t-72.5 199.5q0 126 65.5 198.5t171.5 72.5q96 0 160.5 -65t64.5 -170q0 -19 -2 -49h-368q4 -87 53 -134.5t130 -47.5q98 0 160 69h3v-88zM410 312q-2 59 -39.5 97.5
t-95.5 38.5q-60 0 -98.5 -35.5t-46.5 -100.5h280z" />
    <glyph glyph-name="igrave" unicode="&#xec;" horiz-adv-x="258" 
d="M172 0h-86v506h86v-506zM163 558h-77l-139 192h93z" />
    <glyph glyph-name="iacute" unicode="&#xed;" horiz-adv-x="258" 
d="M172 0h-86v506h86v-506zM170 557h-77l125 193h91z" />
    <glyph glyph-name="icircumflex" unicode="&#xee;" horiz-adv-x="258" 
d="M172 0h-86v506h86v-506zM302 558h-77l-95 133h-1l-96 -133h-77l142 199h62z" />
    <glyph glyph-name="idieresis" unicode="&#xef;" horiz-adv-x="258" 
d="M172 0h-86v506h86v-506zM70 665h-88v85h88v-85zM277 665h-88v85h88v-85z" />
    <glyph glyph-name="eth" unicode="&#xf0;" horiz-adv-x="580" 
d="M465 639l-98 -21l113 -172q63 -97 63 -194q0 -125 -71.5 -197.5t-182.5 -72.5q-109 0 -180 72.5t-71 197.5q0 115 64 188t167 73q40 0 71 -12l-64 98l-147 -30v73l106 22l-54 84v2h101l43 -67l140 29v-73zM451 252q0 88 -44 138t-116 50q-73 0 -117.5 -49.5t-44.5 -138.5
t44.5 -141t115.5 -52q73 0 117.5 51.5t44.5 141.5z" />
    <glyph glyph-name="ntilde" unicode="&#xf1;" horiz-adv-x="602" 
d="M521 0h-86v314q0 66 -35.5 99t-93.5 33q-80 0 -134 -62v-384h-86v506h85v-42h1q66 60 159 60q83 0 136.5 -47t53.5 -136v-341zM384 614q-31 0 -82 35.5t-71 35.5q-19 0 -29.5 -16.5t-22.5 -54.5h-57q15 69 38 102.5t64 33.5q31 0 82 -35.5t71 -35.5q19 0 29.5 16t22.5 55
h57q-15 -70 -38 -103t-64 -33z" />
    <glyph glyph-name="ograve" unicode="&#xf2;" horiz-adv-x="580" 
d="M451 253q0 90 -44 142.5t-116 52.5t-117 -52t-45 -143q0 -90 44 -142t116 -52q73 0 117.5 51.5t44.5 142.5zM543 253q0 -126 -71.5 -198.5t-182.5 -72.5q-109 0 -180 72.5t-71 198.5t71 198.5t182 72.5q109 0 180.5 -72.5t71.5 -198.5zM328 558h-77l-139 192h93z" />
    <glyph glyph-name="oacute" unicode="&#xf3;" horiz-adv-x="580" 
d="M328 557h-77l125 193h91zM451 253q0 90 -44 142.5t-116 52.5t-117 -52t-45 -143q0 -90 44 -142t116 -52q73 0 117.5 51.5t44.5 142.5zM543 253q0 -126 -71.5 -198.5t-182.5 -72.5q-109 0 -180 72.5t-71 198.5t71 198.5t182 72.5q109 0 180.5 -72.5t71.5 -198.5z" />
    <glyph glyph-name="ocircumflex" unicode="&#xf4;" horiz-adv-x="580" 
d="M463 558h-77l-95 133h-1l-96 -133h-77l142 199h62zM451 253q0 90 -44 142.5t-116 52.5t-117 -52t-45 -143q0 -90 44 -142t116 -52q73 0 117.5 51.5t44.5 142.5zM543 253q0 -126 -71.5 -198.5t-182.5 -72.5q-109 0 -180 72.5t-71 198.5t71 198.5t182 72.5
q109 0 180.5 -72.5t71.5 -198.5z" />
    <glyph glyph-name="otilde" unicode="&#xf5;" horiz-adv-x="580" 
d="M451 253q0 90 -44 142.5t-116 52.5t-117 -52t-45 -143q0 -90 44 -142t116 -52q73 0 117.5 51.5t44.5 142.5zM543 253q0 -126 -71.5 -198.5t-182.5 -72.5q-109 0 -180 72.5t-71 198.5t71 198.5t182 72.5q109 0 180.5 -72.5t71.5 -198.5zM370 614q-31 0 -82 35.5t-71 35.5
q-19 0 -29.5 -16.5t-22.5 -54.5h-57q15 69 38 102.5t64 33.5q31 0 82 -35.5t71 -35.5q19 0 29.5 16t22.5 55h57q-15 -70 -38 -103t-64 -33z" />
    <glyph glyph-name="odieresis" unicode="&#xf6;" horiz-adv-x="580" 
d="M230 665h-88v85h88v-85zM437 665h-88v85h88v-85zM451 253q0 90 -44 142.5t-116 52.5t-117 -52t-45 -143q0 -90 44 -142t116 -52q73 0 117.5 51.5t44.5 142.5zM543 253q0 -126 -71.5 -198.5t-182.5 -72.5q-109 0 -180 72.5t-71 198.5t71 198.5t182 72.5q109 0 180.5 -72.5
t71.5 -198.5z" />
    <glyph glyph-name="divide" unicode="&#xf7;" 
d="M483 245h-426v66h426v-66zM313 49h-87v92h87v-92zM313 415h-87v92h87v-92z" />
    <glyph glyph-name="oslash" unicode="&#xf8;" horiz-adv-x="580" 
d="M126 -18h-88l62 82q-62 73 -62 189q0 126 71 198.5t182 72.5q76 0 136 -37l27 37h89l-62 -83q62 -72 62 -188q0 -126 -71.5 -198.5t-182.5 -72.5q-75 0 -136 36zM129 253q0 -69 26 -116l223 285q-38 26 -87 26q-72 0 -117 -52t-45 -143zM451 253q0 66 -26 115l-223 -284
q38 -25 87 -25q73 0 117.5 51.5t44.5 142.5z" />
    <glyph glyph-name="ugrave" unicode="&#xf9;" horiz-adv-x="583" 
d="M503 506v-321q0 -95 -57 -149t-155 -54q-97 0 -154 53.5t-57 149.5v321h86v-315q0 -66 32.5 -99t92.5 -33t93 33t33 99v315h86zM330 558h-77l-139 192h93z" />
    <glyph glyph-name="uacute" unicode="&#xfa;" horiz-adv-x="583" 
d="M324 557h-77l125 193h91zM503 506v-321q0 -95 -57 -149t-155 -54q-97 0 -154 53.5t-57 149.5v321h86v-315q0 -66 32.5 -99t92.5 -33t93 33t33 99v315h86z" />
    <glyph glyph-name="ucircumflex" unicode="&#xfb;" horiz-adv-x="583" 
d="M464 558h-77l-95 133h-1l-96 -133h-77l142 199h62zM503 506v-321q0 -95 -57 -149t-155 -54q-97 0 -154 53.5t-57 149.5v321h86v-315q0 -66 32.5 -99t92.5 -33t93 33t33 99v315h86z" />
    <glyph glyph-name="udieresis" unicode="&#xfc;" horiz-adv-x="583" 
d="M231 665h-88v85h88v-85zM438 665h-88v85h88v-85zM503 506v-321q0 -95 -57 -149t-155 -54q-97 0 -154 53.5t-57 149.5v321h86v-315q0 -66 32.5 -99t92.5 -33t93 33t33 99v315h86z" />
    <glyph glyph-name="yacute" unicode="&#xfd;" horiz-adv-x="523" 
d="M240 -193h-94l78 194l-215 505h98l160 -394h1l141 394h95zM303 557h-77l125 193h91z" />
    <glyph glyph-name="thorn" unicode="&#xfe;" horiz-adv-x="599" 
d="M468 253q0 90 -45 141.5t-118 51.5q-81 0 -133 -62v-274q52 -50 126 -50q78 0 124 50.5t46 142.5zM559 253q0 -126 -67.5 -198.5t-174.5 -72.5q-84 0 -144 42h-1v-217h-86v943h86v-285h1q65 59 157 59q101 0 165 -73t64 -198z" />
    <glyph glyph-name="ydieresis" unicode="&#xff;" horiz-adv-x="523" 
d="M240 -193h-94l78 194l-215 505h98l160 -394h1l141 394h95zM202 665h-88v85h88v-85zM409 665h-88v85h88v-85z" />
    <glyph glyph-name="Amacron" unicode="&#x100;" horiz-adv-x="667" 
d="M652 0h-101l-83 213h-272l-83 -213h-97l279 700h77zM438 294l-106 274h-1l-105 -274h212zM485 747h-302v62h302v-62z" />
    <glyph glyph-name="amacron" unicode="&#x101;" horiz-adv-x="545" 
d="M465 0h-84v40h-1q-65 -58 -152 -58q-74 0 -122 43t-48 116q0 75 49.5 119.5t138.5 44.5q76 0 133 -34v51q0 64 -37.5 95t-98.5 31q-44 0 -84.5 -20t-66.5 -51h-3v90q71 57 171 57q92 0 148.5 -50t56.5 -149v-325zM379 114v87q-50 32 -118 32q-56 0 -86.5 -22.5
t-30.5 -64.5q0 -39 29 -64t82 -25q73 0 124 57zM431 668h-322v67h322v-67z" />
    <glyph glyph-name="Abreve" unicode="&#x102;" horiz-adv-x="667" 
d="M652 0h-101l-83 213h-272l-83 -213h-97l279 700h27q-57 3 -91.5 31.5t-41.5 77.5h64q13 -51 81 -51t81 51h64q-7 -49 -42 -77.5t-91 -31.5h26zM438 294l-106 274h-1l-105 -274h212z" />
    <glyph glyph-name="abreve" unicode="&#x103;" horiz-adv-x="545" 
d="M465 0h-84v40h-1q-65 -58 -152 -58q-74 0 -122 43t-48 116q0 75 49.5 119.5t138.5 44.5q76 0 133 -34v51q0 64 -37.5 95t-98.5 31q-44 0 -84.5 -20t-66.5 -51h-3v90q71 57 171 57q92 0 148.5 -50t56.5 -149v-325zM379 114v87q-50 32 -118 32q-56 0 -86.5 -22.5
t-30.5 -64.5q0 -39 29 -64t82 -25q73 0 124 57zM273 592q-74 0 -116 43.5t-49 114.5h65q8 -44 34 -70t66 -26t66 26t34 70h65q-7 -71 -49 -114.5t-116 -43.5z" />
    <glyph glyph-name="Aogonek" unicode="&#x104;" horiz-adv-x="667" 
d="M662 -169q-40 -24 -91 -24q-47 0 -71 21t-24 54q0 53 75 118l-83 213h-272l-83 -213h-97l279 700h77l280 -700h-41q-36 -35 -51 -56t-15 -42q0 -39 46 -39q37 0 68 28h3v-60zM438 294l-106 274h-1l-105 -274h212z" />
    <glyph glyph-name="aogonek" unicode="&#x105;" horiz-adv-x="545" 
d="M493 -169q-40 -24 -91 -24q-47 0 -71 21t-24 54q0 52 74 118v40h-1q-65 -58 -152 -58q-74 0 -122 43t-48 116q0 75 49.5 119.5t138.5 44.5q76 0 133 -34v51q0 64 -37.5 95t-98.5 31q-44 0 -84.5 -20t-66.5 -51h-3v90q71 57 171 57q92 0 148.5 -50t56.5 -149v-325h-23
q-36 -35 -51 -56t-15 -42q0 -39 46 -39q37 0 68 28h3v-60zM379 114v87q-50 32 -118 32q-56 0 -86.5 -22.5t-30.5 -64.5q0 -39 29 -64t82 -25q73 0 124 57z" />
    <glyph glyph-name="Cacute" unicode="&#x106;" horiz-adv-x="613" 
d="M559 165v-110q-86 -73 -207 -73q-133 0 -218.5 95t-85.5 264q0 156 74.5 250.5t194.5 106.5l66 102h93l-82 -103q93 -12 161 -70v-110h-4q-70 96 -188 96q-100 0 -159.5 -73.5t-59.5 -198.5t60.5 -198.5t162.5 -73.5q57 0 106.5 26t81.5 70h4z" />
    <glyph glyph-name="cacute" unicode="&#x107;" horiz-adv-x="469" 
d="M292 557h-77l125 193h91zM427 132v-94q-66 -56 -157 -56q-100 0 -166 72t-66 199q0 125 64.5 198t165.5 73q95 0 156 -55v-94h-3q-53 72 -140 72q-70 0 -111 -53t-41 -141q0 -89 43.5 -141.5t116.5 -52.5q83 0 135 73h3z" />
    <glyph glyph-name="Ccircumflex" unicode="&#x108;" horiz-adv-x="613" 
d="M484 682h-24q53 -19 95 -55v-110h-4q-70 96 -188 96q-100 0 -159.5 -73.5t-59.5 -198.5t60.5 -198.5t162.5 -73.5q57 0 106.5 26t81.5 70h4v-110q-86 -73 -207 -73q-133 0 -218.5 95t-85.5 264q0 130 53 218.5t143 122.5h-28l100 128h68zM349 700q24 0 48 -3l-46 57h-1
l-47 -58q30 4 46 4z" />
    <glyph glyph-name="ccircumflex" unicode="&#x109;" horiz-adv-x="469" 
d="M437 558h-77l-95 133h-1l-96 -133h-77l142 199h62zM427 132v-94q-66 -56 -157 -56q-100 0 -166 72t-66 199q0 125 64.5 198t165.5 73q95 0 156 -55v-94h-3q-53 72 -140 72q-70 0 -111 -53t-41 -141q0 -89 43.5 -141.5t116.5 -52.5q83 0 135 73h3z" />
    <glyph glyph-name="Cdotaccent" unicode="&#x10a;" horiz-adv-x="613" 
d="M396 732h-94v77h94v-77zM559 165v-110q-86 -73 -207 -73q-133 0 -218.5 95t-85.5 264q0 167 84 263t217 96q123 0 206 -73v-110h-4q-70 96 -188 96q-100 0 -159.5 -73.5t-59.5 -198.5t60.5 -198.5t162.5 -73.5q57 0 106.5 26t81.5 70h4z" />
    <glyph glyph-name="cdotaccent" unicode="&#x10b;" horiz-adv-x="469" 
d="M427 132v-94q-66 -56 -157 -56q-100 0 -166 72t-66 199q0 125 64.5 198t165.5 73q95 0 156 -55v-94h-3q-53 72 -140 72q-70 0 -111 -53t-41 -141q0 -89 43.5 -141.5t116.5 -52.5q83 0 135 73h3zM302 665h-94v85h94v-85z" />
    <glyph glyph-name="Ccaron" unicode="&#x10c;" horiz-adv-x="613" 
d="M559 165v-110q-86 -73 -207 -73q-133 0 -218.5 95t-85.5 264q0 151 69.5 244.5t184.5 110.5l-83 107h75l58 -71h1l59 71h75l-84 -107q88 -13 152 -69v-110h-4q-70 96 -188 96q-100 0 -159.5 -73.5t-59.5 -198.5t60.5 -198.5t162.5 -73.5q57 0 106.5 26t81.5 70h4z" />
    <glyph glyph-name="ccaron" unicode="&#x10d;" horiz-adv-x="469" 
d="M282 551h-62l-142 199h77l95 -133h1l96 133h77zM427 132v-94q-66 -56 -157 -56q-100 0 -166 72t-66 199q0 125 64.5 198t165.5 73q95 0 156 -55v-94h-3q-53 72 -140 72q-70 0 -111 -53t-41 -141q0 -89 43.5 -141.5t116.5 -52.5q83 0 135 73h3z" />
    <glyph glyph-name="Dcaron" unicode="&#x10e;" horiz-adv-x="711" 
d="M664 341q0 -111 -48.5 -189.5t-125.5 -115t-174 -36.5h-217v682h167l-94 121h75l58 -71h1l59 71h75l-96 -122q139 -9 229.5 -96.5t90.5 -243.5zM570 341q0 123 -71 189t-184 66h-124v-510h124q113 0 184 66t71 189z" />
    <glyph glyph-name="dcaron" unicode="&#x10f;" horiz-adv-x="700" 
d="M633 551h-68l54 199h81zM513 0h-85v42h-1q-68 -60 -158 -60q-101 0 -165 73t-64 198q0 126 67.5 198.5t174.5 72.5q84 0 144 -42h1v268h86v-750zM427 122v274q-52 50 -126 50q-78 0 -124 -50.5t-46 -142.5q0 -90 44.5 -141.5t118.5 -51.5q79 0 133 62z" />
    <glyph glyph-name="Dcroat" unicode="&#x110;" horiz-adv-x="711" 
d="M664 341q0 -111 -48.5 -189.5t-125.5 -115t-174 -36.5h-217v314h-99v73h99v295h217q96 0 173.5 -36.5t126 -115t48.5 -189.5zM570 341q0 123 -71 189t-184 66h-124v-209h187v-73h-187v-228h124q113 0 184 66t71 189z" />
    <glyph glyph-name="dcroat" unicode="&#x111;" horiz-adv-x="599" 
d="M513 0h-85v42h-1q-68 -60 -158 -60q-101 0 -165 73t-64 198q0 126 67.5 198.5t174.5 72.5q84 0 144 -42h1v114h-189v69h189v85h86v-85h86v-69h-86v-596zM427 122v274q-52 50 -126 50q-78 0 -124 -50.5t-46 -142.5q0 -90 44.5 -141.5t118.5 -51.5q79 0 133 62z" />
    <glyph glyph-name="Emacron" unicode="&#x112;" horiz-adv-x="543" 
d="M424 747h-302v62h302v-62zM475 0h-376v682h350v-86h-258v-202h248v-87h-248v-221h284v-86z" />
    <glyph glyph-name="emacron" unicode="&#x113;" horiz-adv-x="547" 
d="M476 39q-73 -57 -179 -57q-114 0 -186.5 71.5t-72.5 199.5q0 126 65.5 198.5t171.5 72.5q96 0 160.5 -65t64.5 -170q0 -19 -2 -49h-368q4 -87 53 -134.5t130 -47.5q98 0 160 69h3v-88zM410 312q-2 59 -39.5 97.5t-95.5 38.5q-60 0 -98.5 -35.5t-46.5 -100.5h280zM434 668
h-322v67h322v-67z" />
    <glyph glyph-name="Ebreve" unicode="&#x114;" horiz-adv-x="543" 
d="M271 700q-61 0 -99 29t-46 80h64q14 -51 81 -51t81 51h64q-8 -51 -46 -80t-99 -29zM475 0h-376v682h350v-86h-258v-202h248v-87h-248v-221h284v-86z" />
    <glyph glyph-name="ebreve" unicode="&#x115;" horiz-adv-x="547" 
d="M476 39q-73 -57 -179 -57q-114 0 -186.5 71.5t-72.5 199.5q0 126 65.5 198.5t171.5 72.5q96 0 160.5 -65t64.5 -170q0 -19 -2 -49h-368q4 -87 53 -134.5t130 -47.5q98 0 160 69h3v-88zM410 312q-2 59 -39.5 97.5t-95.5 38.5q-60 0 -98.5 -35.5t-46.5 -100.5h280zM273 592
q-74 0 -116 43.5t-49 114.5h65q8 -44 34 -70t66 -26t66 26t34 70h65q-7 -71 -49 -114.5t-116 -43.5z" />
    <glyph glyph-name="Edotaccent" unicode="&#x116;" horiz-adv-x="543" 
d="M318 732h-94v77h94v-77zM475 0h-376v682h350v-86h-258v-202h248v-87h-248v-221h284v-86z" />
    <glyph glyph-name="edotaccent" unicode="&#x117;" horiz-adv-x="547" 
d="M476 39q-73 -57 -179 -57q-114 0 -186.5 71.5t-72.5 199.5q0 126 65.5 198.5t171.5 72.5q96 0 160.5 -65t64.5 -170q0 -19 -2 -49h-368q4 -87 53 -134.5t130 -47.5q98 0 160 69h3v-88zM410 312q-2 59 -39.5 97.5t-95.5 38.5q-60 0 -98.5 -35.5t-46.5 -100.5h280zM320 665
h-94v85h94v-85z" />
    <glyph glyph-name="Eogonek" unicode="&#x118;" horiz-adv-x="543" 
d="M475 0h-51q-36 -35 -51 -56t-15 -42q0 -39 46 -39q37 0 68 28h3v-60q-40 -24 -91 -24q-47 0 -71 21t-24 54q0 52 74 118h-264v682h350v-86h-258v-202h248v-87h-248v-221h284v-86z" />
    <glyph glyph-name="eogonek" unicode="&#x119;" horiz-adv-x="547" 
d="M476 -169q-40 -24 -91 -24q-46 0 -70.5 21t-24.5 54q0 44 61 107q-24 -7 -54 -7q-114 0 -186.5 71.5t-72.5 199.5q0 126 65.5 198.5t171.5 72.5q96 0 160.5 -65t64.5 -170q0 -19 -2 -49h-368q4 -87 53 -134.5t130 -47.5q98 0 160 69h3v-88q-42 -28 -79 -69.5t-37 -68.5
q0 -38 46 -38q38 0 67 28h3v-60zM410 312q-2 59 -39.5 97.5t-96.5 38.5t-97.5 -35.5t-46.5 -100.5h280z" />
    <glyph glyph-name="Ecaron" unicode="&#x11a;" horiz-adv-x="543" 
d="M475 0h-376v682h132l-94 121h75l58 -71h1l59 71h75l-95 -121h139v-86h-258v-202h248v-87h-248v-221h284v-86z" />
    <glyph glyph-name="ecaron" unicode="&#x11b;" horiz-adv-x="547" 
d="M304 551h-62l-142 199h77l95 -133h1l96 133h77zM476 39q-73 -57 -179 -57q-114 0 -186.5 71.5t-72.5 199.5q0 126 65.5 198.5t171.5 72.5q96 0 160.5 -65t64.5 -170q0 -19 -2 -49h-368q4 -87 53 -134.5t130 -47.5q98 0 160 69h3v-88zM410 312q-2 59 -39.5 97.5
t-95.5 38.5q-60 0 -98.5 -35.5t-46.5 -100.5h280z" />
    <glyph glyph-name="Gcircumflex" unicode="&#x11c;" horiz-adv-x="701" 
d="M503 682h-13q56 -19 110 -59v-106h-4q-88 97 -213 97q-107 0 -173 -72.5t-66 -202.5q0 -133 60.5 -204t155.5 -71q87 0 141.5 51.5t56.5 161.5h-226v4l41 82h280q0 -4 0.5 -25t0.5 -25q0 -168 -83 -249.5t-211 -81.5q-135 0 -223.5 95t-88.5 264q0 130 58 219t156 122
h-27l100 128h68zM373 700q14 0 42 -2l-45 56h-1l-48 -58q23 4 52 4z" />
    <glyph glyph-name="gcircumflex" unicode="&#x11d;" horiz-adv-x="584" 
d="M469 558h-77l-95 133h-1l-96 -133h-77l142 199h62zM417 133v267q-49 46 -119 46q-75 0 -120.5 -49t-45.5 -135q0 -84 44.5 -134t115.5 -50q75 0 125 55zM288 -196q-111 0 -182 58v88h4q64 -70 168 -70q71 0 105 37t34 98v42h-1q-64 -57 -154 -57q-96 0 -159.5 69
t-63.5 193t66 193t171 69q81 0 147 -48h1l76 35h3v-490q0 -106 -58 -161.5t-157 -55.5z" />
    <glyph glyph-name="Gbreve" unicode="&#x11e;" horiz-adv-x="701" 
d="M360 -18q-135 0 -223.5 95t-88.5 264q0 162 87.5 258t223.5 101q-58 1 -94.5 30t-43.5 79h64q13 -51 81 -51t81 51h64q-7 -49 -42 -77.5t-91 -31.5q124 -1 222 -77v-106h-4q-88 97 -213 97q-107 0 -173 -72.5t-66 -202.5q0 -133 60.5 -204t155.5 -71q87 0 141.5 51.5
t56.5 161.5h-226v4l41 82h280q0 -4 0.5 -25t0.5 -25q0 -168 -83 -249.5t-211 -81.5z" />
    <glyph glyph-name="gbreve" unicode="&#x11f;" horiz-adv-x="584" 
d="M417 133v267q-49 46 -119 46q-75 0 -120.5 -49t-45.5 -135q0 -84 44.5 -134t115.5 -50q75 0 125 55zM288 -196q-111 0 -182 58v88h4q64 -70 168 -70q71 0 105 37t34 98v42h-1q-64 -57 -154 -57q-96 0 -159.5 69t-63.5 193t66 193t171 69q81 0 147 -48h1l76 35h3v-490
q0 -106 -58 -161.5t-157 -55.5zM296 592q-74 0 -116 43.5t-49 114.5h65q8 -44 34 -70t66 -26t66 26t34 70h65q-7 -71 -49 -114.5t-116 -43.5z" />
    <glyph glyph-name="Gdotaccent" unicode="&#x120;" horiz-adv-x="701" 
d="M414 732h-94v77h94v-77zM360 -18q-135 0 -223.5 95t-88.5 264q0 167 92 263t233 96q128 0 227 -77v-106h-4q-88 97 -213 97q-107 0 -173 -72.5t-66 -202.5q0 -133 60.5 -204t155.5 -71q87 0 141.5 51.5t56.5 161.5h-226v4l41 82h280q0 -4 0.5 -25t0.5 -25
q0 -168 -83 -249.5t-211 -81.5z" />
    <glyph glyph-name="gdotaccent" unicode="&#x121;" horiz-adv-x="584" 
d="M417 133v267q-49 46 -119 46q-75 0 -120.5 -49t-45.5 -135q0 -84 44.5 -134t115.5 -50q75 0 125 55zM288 -196q-111 0 -182 58v88h4q64 -70 168 -70q71 0 105 37t34 98v42h-1q-64 -57 -154 -57q-96 0 -159.5 69t-63.5 193t66 193t171 69q81 0 147 -48h1l76 35h3v-490
q0 -106 -58 -161.5t-157 -55.5zM343 665h-94v85h94v-85z" />
    <glyph glyph-name="Gcommaaccent" unicode="&#x122;" horiz-adv-x="701" 
d="M298 -193h-77l101 156h90zM360 -18q-135 0 -223.5 95t-88.5 264q0 167 92 263t233 96q128 0 227 -77v-106h-4q-88 97 -213 97q-107 0 -173 -72.5t-66 -202.5q0 -133 60.5 -204t155.5 -71q87 0 141.5 51.5t56.5 161.5h-226v4l41 82h280q0 -4 0.5 -25t0.5 -25
q0 -168 -83 -249.5t-211 -81.5z" />
    <glyph glyph-name="gcommaaccent" unicode="&#x123;" horiz-adv-x="584" 
d="M337 594h-90l114 156h77zM417 133v267q-49 46 -119 46q-75 0 -120.5 -49t-45.5 -135q0 -84 44.5 -134t115.5 -50q75 0 125 55zM288 -196q-111 0 -182 58v88h4q64 -70 168 -70q71 0 105 37t34 98v42h-1q-64 -57 -154 -57q-96 0 -159.5 69t-63.5 193t66 193t171 69
q81 0 147 -48h1l76 35h3v-490q0 -106 -58 -161.5t-157 -55.5z" />
    <glyph glyph-name="Hcircumflex" unicode="&#x124;" horiz-adv-x="753" 
d="M661 0h-92v310h-371v-310h-92v682h92v-286h371v286h92v-682zM518 682h-75l-58 72h-1l-59 -72h-75l100 128h68z" />
    <glyph glyph-name="hcircumflex" unicode="&#x125;" horiz-adv-x="590" 
d="M303 770h-77l-95 133h-1l-96 -133h-77l142 199h62zM509 0h-86v314q0 65 -34 98.5t-89 33.5q-76 0 -128 -62v-384h-86v750h86v-285h1q64 59 152 59q80 0 132 -47t52 -136v-341z" />
    <glyph glyph-name="Hbar" unicode="&#x126;" horiz-adv-x="753" 
d="M660 0h-91v310h-372v-310h-91v505h-106v74h106v103h91v-103h372v103h91v-103h94v-74h-94v-505zM197 396h372v109h-372v-109z" />
    <glyph glyph-name="hbar" unicode="&#x127;" horiz-adv-x="590" 
d="M509 0h-86v314q0 65 -34 98.5t-89 33.5q-76 0 -128 -62v-384h-86v596h-86v69h86v85h86v-85h207v-69h-207v-131h1q64 59 152 59q80 0 132 -47t52 -136v-341z" />
    <glyph glyph-name="Itilde" unicode="&#x128;" horiz-adv-x="292" 
d="M191 0h-91v682h91v-682zM212 701q-24 0 -67 25.5t-58 25.5q-12 0 -20.5 -8t-11.5 -15t-11 -28h-58q16 55 35.5 81.5t58.5 26.5q24 0 67 -25.5t58 -25.5q12 0 20 6t11.5 14t9.5 25q1 4 2 6h58q-15 -56 -35 -82t-59 -26z" />
    <glyph glyph-name="itilde" unicode="&#x129;" horiz-adv-x="258" 
d="M172 0h-86v506h86v-506zM209 614q-31 0 -82 35.5t-71 35.5q-19 0 -29.5 -16.5t-22.5 -54.5h-57q15 69 38 102.5t64 33.5q31 0 82 -35.5t71 -35.5q19 0 29.5 16t22.5 55h57q-15 -70 -38 -103t-64 -33z" />
    <glyph glyph-name="Imacron" unicode="&#x12a;" horiz-adv-x="292" 
d="M191 0h-91v682h91v-682zM297 747h-302v62h302v-62z" />
    <glyph glyph-name="imacron" unicode="&#x12b;" horiz-adv-x="258" 
d="M172 0h-86v506h86v-506zM290 668h-322v67h322v-67z" />
    <glyph glyph-name="Ibreve" unicode="&#x12c;" horiz-adv-x="292" 
d="M191 0h-91v682h91v-682zM146 700q-61 0 -99 29t-46 80h64q13 -51 81 -51t81 51h64q-8 -51 -46 -80t-99 -29z" />
    <glyph glyph-name="ibreve" unicode="&#x12d;" horiz-adv-x="258" 
d="M172 0h-86v506h86v-506zM129 592q-74 0 -116 43.5t-49 114.5h65q8 -44 34 -70t66 -26t66 26t34 70h65q-7 -71 -49 -114.5t-116 -43.5z" />
    <glyph glyph-name="Iogonek" unicode="&#x12e;" horiz-adv-x="292" 
d="M221 -169q-40 -24 -91 -24q-47 0 -71 21t-24 54q0 52 74 118h-9v682h91v-682h-21q-36 -35 -51 -56t-15 -42q0 -39 46 -39q37 0 68 28h3v-60z" />
    <glyph glyph-name="iogonek" unicode="&#x12f;" horiz-adv-x="258" 
d="M204 -169q-40 -24 -91 -24q-47 0 -71 21t-24 54q0 52 74 118h-6v506h86v-506h-19q-36 -35 -51 -56t-15 -42q0 -39 46 -39q37 0 68 28h3v-60zM176 665h-94v85h94v-85z" />
    <glyph glyph-name="Idotaccent" unicode="&#x130;" horiz-adv-x="292" 
d="M191 0h-91v682h91v-682zM192 732h-94v77h94v-77z" />
    <glyph glyph-name="dotlessi" unicode="&#x131;" horiz-adv-x="258" 
d="M172 0h-86v506h86v-506z" />
    <glyph glyph-name="IJ" unicode="&#x132;" horiz-adv-x="711" 
d="M191 0h-91v682h91v-682zM454 -18q-63 0 -105 33v99h4q33 -45 86 -45q93 0 93 119v407h-188v5l41 82h237v-509q0 -88 -41.5 -139.5t-126.5 -51.5z" />
    <glyph glyph-name="ij" unicode="&#x133;" horiz-adv-x="516" 
d="M287 -193q-58 0 -96 27v84h3q31 -34 75 -34q35 0 55 23.5t20 70.5v528h86v-530q0 -82 -38.5 -125.5t-104.5 -43.5zM172 0h-86v506h86v-506zM434 665h-94v85h94v-85zM176 665h-94v85h94v-85z" />
    <glyph glyph-name="Jcircumflex" unicode="&#x134;" horiz-adv-x="420" 
d="M334 682h-4v-509q0 -88 -41.5 -139.5t-126.5 -51.5q-63 0 -105 33v99h4q33 -45 86 -45q93 0 93 119v407h-188v5l41 82h-27l100 128h68zM200 754l-59 -72h118l-58 72h-1z" />
    <glyph glyph-name="jcircumflex" unicode="&#x135;" horiz-adv-x="258" 
d="M28 -193q-54 0 -95 29v73h3q30 -33 74 -33q34 0 55 25t21 76v529h86v-533q0 -80 -38.5 -123t-105.5 -43zM302 558h-77l-95 133h-1l-96 -133h-77l142 199h62z" />
    <glyph glyph-name="Kcommaaccent" unicode="&#x136;" horiz-adv-x="610" 
d="M271 -193h-77l101 156h90zM191 0h-92v682h92v-682zM589 0h-112l-270 343v4l260 335h109l-262 -334v-2z" />
    <glyph glyph-name="kcommaaccent" unicode="&#x137;" horiz-adv-x="510" 
d="M215 -193h-77l101 156h90zM172 0h-86v750h86v-750zM494 0h-106l-203 255v3l195 248h102l-197 -248v-2z" />
    <glyph glyph-name="Lacute" unicode="&#x139;" horiz-adv-x="488" 
d="M183 682h-75l76 118h93zM455 0h-356v682h92v-596h264v-86z" />
    <glyph glyph-name="lacute" unicode="&#x13a;" horiz-adv-x="258" 
d="M167 770h-77l125 193h91zM172 0h-86v750h86v-750z" />
    <glyph glyph-name="Lcommaaccent" unicode="&#x13b;" horiz-adv-x="488" 
d="M225 -193h-77l101 156h90zM455 0h-356v682h92v-596h264v-86z" />
    <glyph glyph-name="lcommaaccent" unicode="&#x13c;" horiz-adv-x="258" 
d="M62 -193h-77l101 156h90zM172 0h-86v750h86v-750z" />
    <glyph glyph-name="Lcaron" unicode="&#x13d;" horiz-adv-x="488" 
d="M311 551h-68l54 199h81zM455 0h-356v682h92v-596h264v-86z" />
    <glyph glyph-name="lcaron" unicode="&#x13e;" horiz-adv-x="350" 
d="M293 551h-68l54 199h81zM172 0h-86v750h86v-750z" />
    <glyph glyph-name="Ldot" unicode="&#x13f;" horiz-adv-x="506" 
d="M455 0h-355v682h91v-594h264v-88zM444 314h-94v103h94v-103z" />
    <glyph glyph-name="ldot" unicode="&#x140;" horiz-adv-x="357" 
d="M172 0h-86v750h86v-750zM351 215h-94v102h94v-102z" />
    <glyph glyph-name="Lslash" unicode="&#x141;" horiz-adv-x="488" 
d="M455 0h-356v265l-99 -47v82l99 48v334h92v-290l189 91v-83l-189 -91v-223h264v-86z" />
    <glyph glyph-name="lslash" unicode="&#x142;" horiz-adv-x="258" 
d="M172 0h-86v379l-86 -41v77l86 41v294h86v-253l86 42v-77l-86 -42v-420z" />
    <glyph glyph-name="Nacute" unicode="&#x143;" horiz-adv-x="756" 
d="M406 682h-75l76 118h93zM657 -12h-71l-394 511h-1v-499h-92v640l-27 37v5h98l395 -518h1v518h91v-694z" />
    <glyph glyph-name="nacute" unicode="&#x144;" horiz-adv-x="602" 
d="M342 557h-77l125 193h91zM521 0h-86v314q0 66 -35.5 99t-93.5 33q-80 0 -134 -62v-384h-86v506h85v-42h1q66 60 159 60q83 0 136.5 -47t53.5 -136v-341z" />
    <glyph glyph-name="Ncommaaccent" unicode="&#x145;" horiz-adv-x="756" 
d="M335 -193h-77l101 156h90zM657 -12h-71l-394 511h-1v-499h-92v640l-27 37v5h98l395 -518h1v518h91v-694z" />
    <glyph glyph-name="ncommaaccent" unicode="&#x146;" horiz-adv-x="602" 
d="M250 -193h-77l101 156h90zM521 0h-86v314q0 66 -35.5 99t-93.5 33q-80 0 -134 -62v-384h-86v506h85v-42h1q66 60 159 60q83 0 136.5 -47t53.5 -136v-341z" />
    <glyph glyph-name="Ncaron" unicode="&#x147;" horiz-adv-x="756" 
d="M412 675h-68l-100 128h75l58 -71h1l59 71h75zM657 -12h-71l-394 511h-1v-499h-92v640l-27 37v5h98l395 -518h1v518h91v-694z" />
    <glyph glyph-name="ncaron" unicode="&#x148;" horiz-adv-x="602" 
d="M332 551h-62l-142 199h77l95 -133h1l96 133h77zM521 0h-86v314q0 66 -35.5 99t-93.5 33q-80 0 -134 -62v-384h-86v506h85v-42h1q66 60 159 60q83 0 136.5 -47t53.5 -136v-341z" />
    <glyph glyph-name="Eng" unicode="&#x14a;" horiz-adv-x="756" 
d="M499 -193q-62 0 -100 33v85h4q30 -35 82 -35q37 0 59.5 25.5t22.5 71.5v13l-375 495h-1v-495h-92v640l-27 37v5h98l395 -522h1v522h91v-694q0 -87 -41.5 -134t-116.5 -47z" />
    <glyph glyph-name="eng" unicode="&#x14b;" horiz-adv-x="602" 
d="M381 -193q-55 0 -93 27v82h3q30 -32 70 -32q34 0 54 24t20 74v332q0 66 -35.5 99t-93.5 33q-80 0 -134 -62v-384h-86v506h85v-42h1q66 60 158 60q84 0 137.5 -46.5t53.5 -136.5v-365q0 -80 -37.5 -124.5t-102.5 -44.5z" />
    <glyph glyph-name="Omacron" unicode="&#x14c;" horiz-adv-x="742" 
d="M522 747h-302v62h302v-62zM694 341q0 -168 -92.5 -263.5t-231.5 -95.5q-136 0 -229 95.5t-93 263.5t92.5 263.5t231.5 95.5q136 0 229 -95.5t93 -263.5zM599 341q0 129 -64.5 201.5t-162.5 72.5q-99 0 -163.5 -72t-64.5 -202q0 -129 64 -201.5t162 -72.5t163.5 72
t65.5 202z" />
    <glyph glyph-name="omacron" unicode="&#x14d;" horiz-adv-x="580" 
d="M451 668h-322v67h322v-67zM451 253q0 90 -44 142.5t-116 52.5t-117 -52t-45 -143q0 -90 44 -142t116 -52q73 0 117.5 51.5t44.5 142.5zM543 253q0 -126 -71.5 -198.5t-182.5 -72.5q-109 0 -180 72.5t-71 198.5t71 198.5t182 72.5q109 0 180.5 -72.5t71.5 -198.5z" />
    <glyph glyph-name="Obreve" unicode="&#x14e;" horiz-adv-x="742" 
d="M694 341q0 -168 -92.5 -263.5t-231.5 -95.5q-136 0 -229 95.5t-93 263.5q0 166 90 261t227 98q-59 2 -95.5 30.5t-43.5 78.5h64q14 -51 81 -51t81 51h64q-8 -50 -44.5 -78.5t-94.5 -30.5q134 -2 225.5 -97.5t91.5 -261.5zM599 341q0 129 -64.5 201.5t-162.5 72.5
q-99 0 -163.5 -72t-64.5 -202q0 -129 64 -201.5t162 -72.5t163.5 72t65.5 202z" />
    <glyph glyph-name="obreve" unicode="&#x14f;" horiz-adv-x="580" 
d="M451 253q0 90 -44 142.5t-116 52.5t-117 -52t-45 -143q0 -90 44 -142t116 -52q73 0 117.5 51.5t44.5 142.5zM543 253q0 -126 -71.5 -198.5t-182.5 -72.5q-109 0 -180 72.5t-71 198.5t71 198.5t182 72.5q109 0 180.5 -72.5t71.5 -198.5zM290 592q-74 0 -116 43.5
t-49 114.5h65q8 -44 34 -70t66 -26t66 26t34 70h65q-7 -71 -49 -114.5t-116 -43.5z" />
    <glyph glyph-name="Ohungarumlaut" unicode="&#x150;" horiz-adv-x="742" 
d="M490 682h-10q96 -34 155 -122t59 -219q0 -168 -92.5 -263.5t-231.5 -95.5q-136 0 -229 95.5t-93 263.5q0 131 58.5 219t154.5 122h-21l77 118h93l-81 -103q21 3 43 3q16 0 50 -4l67 104h93zM599 341q0 129 -64.5 201.5t-162.5 72.5q-99 0 -163.5 -72t-64.5 -202
q0 -129 64 -201.5t162 -72.5t163.5 72t65.5 202z" />
    <glyph glyph-name="ohungarumlaut" unicode="&#x151;" horiz-adv-x="580" 
d="M247 557h-77l126 193h90zM417 557h-77l125 193h91zM451 253q0 90 -44 142.5t-116 52.5t-117 -52t-45 -143q0 -90 44 -142t116 -52q73 0 117.5 51.5t44.5 142.5zM543 253q0 -126 -71.5 -198.5t-182.5 -72.5q-109 0 -180 72.5t-71 198.5t71 198.5t182 72.5
q109 0 180.5 -72.5t71.5 -198.5z" />
    <glyph glyph-name="OE" unicode="&#x152;" horiz-adv-x="966" 
d="M899 0h-363v41q-74 -59 -177 -59q-129 0 -220 96t-91 263t90.5 263t222.5 96q101 0 175 -60v42h337v-86h-258v-203h248v-86h-248v-221h284v-86zM524 132v417q-62 65 -152 65q-98 0 -163 -71.5t-65 -201.5q0 -129 64 -201t162 -72q92 0 154 64z" />
    <glyph glyph-name="oe" unicode="&#x153;" horiz-adv-x="958" 
d="M887 39q-74 -57 -180 -57q-73 0 -130 32t-85 93h-1q-26 -59 -79.5 -92t-122.5 -33q-109 0 -180 72.5t-71 198.5t71 198.5t182 72.5q67 0 119 -32t79 -89h1q25 59 77 90t118 31q96 0 160.5 -65t64.5 -169q0 -35 -2 -50h-369q4 -89 53.5 -135.5t130.5 -46.5q100 0 160 69h4
v-88zM451 253q0 90 -44 142t-116 52t-117 -52t-45 -142t44 -142t116 -52q73 0 117.5 51.5t44.5 142.5zM820 312q-2 59 -40 97.5t-96 38.5t-97 -36t-46 -100h279z" />
    <glyph glyph-name="Racute" unicode="&#x154;" horiz-adv-x="628" 
d="M304 682q103 -3 164 -54.5t61 -143.5q0 -79 -41.5 -130t-136.5 -80v-2l250 -272h-115l-279 312v5q130 19 179.5 56.5t49.5 100.5q0 57 -41.5 90t-114.5 33h-89v-597h-92v682h130l76 118h93z" />
    <glyph glyph-name="racute" unicode="&#x155;" horiz-adv-x="383" 
d="M239 557h-77l125 193h91zM176 0h-86v506h82v-43h1q63 61 130 61q29 0 53 -9v-87h-3q-29 16 -60 16q-53 0 -117 -60v-384z" />
    <glyph glyph-name="Rcommaaccent" unicode="&#x156;" horiz-adv-x="628" 
d="M274 -193h-77l101 156h90zM601 0h-115l-279 312v5q130 19 179.5 56.5t49.5 100.5q0 57 -41.5 90t-114.5 33h-89v-597h-92v682h194q107 0 171.5 -51.5t64.5 -146.5q0 -79 -41.5 -130t-136.5 -80v-2z" />
    <glyph glyph-name="rcommaaccent" unicode="&#x157;" horiz-adv-x="383" 
d="M71 -193h-77l101 156h90zM176 0h-86v506h82v-43h1q63 61 130 61q29 0 53 -9v-87h-3q-29 16 -60 16q-53 0 -117 -60v-384z" />
    <glyph glyph-name="Rcaron" unicode="&#x158;" horiz-adv-x="628" 
d="M601 0h-115l-279 312v5q130 19 179.5 56.5t49.5 100.5q0 57 -41.5 90t-114.5 33h-89v-597h-92v682h146l-94 121h75l58 -71h1l59 71h75l-96 -122q95 -8 150.5 -58.5t55.5 -138.5q0 -79 -41.5 -130t-136.5 -80v-2z" />
    <glyph glyph-name="rcaron" unicode="&#x159;" horiz-adv-x="383" 
d="M243 551h-62l-142 199h77l95 -133h1l96 133h77zM176 0h-86v506h82v-43h1q63 61 130 61q29 0 53 -9v-87h-3q-29 16 -60 16q-53 0 -117 -60v-384z" />
    <glyph glyph-name="Sacute" unicode="&#x15a;" 
d="M482 174q0 -83 -58 -137.5t-159 -54.5q-121 0 -194 66v103h3q34 -42 83 -64.5t102 -22.5q62 0 97 27t35 76q0 33 -17.5 58.5t-45.5 41.5t-61.5 30.5t-67.5 31.5t-62 39t-45.5 58.5t-17.5 84.5q0 71 42 123.5t126 63.5l66 102h93l-82 -103q85 -11 139 -63v-102h-3
q-32 42 -77.5 64t-92.5 22q-57 0 -88 -27t-31 -71q0 -45 32.5 -75t79 -49.5t93 -42t79 -67.5t32.5 -112z" />
    <glyph glyph-name="sacute" unicode="&#x15b;" horiz-adv-x="451" 
d="M253 557h-77l125 193h91zM390 131q0 -68 -45 -108.5t-129 -40.5q-95 0 -152 49v90h3q55 -67 147 -67q42 0 67 19.5t25 50.5q0 27 -18 47t-44.5 30.5t-57.5 25t-57.5 30.5t-44.5 47.5t-18 74.5q0 65 41.5 105t120.5 40q89 0 144 -49v-90h-3q-55 67 -135 67q-40 0 -61 -19
t-21 -49q0 -31 24.5 -51.5t59.5 -34t70 -30t59.5 -51t24.5 -86.5z" />
    <glyph glyph-name="Scircumflex" unicode="&#x15c;" 
d="M410 682h-30q46 -17 78 -48v-102h-3q-32 42 -77.5 64t-92.5 22q-57 0 -88 -27t-31 -71q0 -45 32.5 -75t79 -49.5t93 -42t79 -67.5t32.5 -112q0 -83 -58 -137.5t-159 -54.5q-121 0 -194 66v103h3q34 -42 83 -64.5t102 -22.5q62 0 97 27t35 76q0 33 -17.5 58.5t-45.5 41.5
t-61.5 30.5t-67.5 31.5t-62 39t-45.5 58.5t-17.5 84.5q0 56 26.5 102t80.5 69h-39l100 128h68zM279 700q21 0 44 -3l-46 57h-1l-48 -58q21 4 51 4z" />
    <glyph glyph-name="scircumflex" unicode="&#x15d;" horiz-adv-x="451" 
d="M399 558h-77l-95 133h-1l-96 -133h-77l142 199h62zM390 131q0 -68 -45 -108.5t-129 -40.5q-95 0 -152 49v90h3q55 -67 147 -67q42 0 67 19.5t25 50.5q0 27 -18 47t-44.5 30.5t-57.5 25t-57.5 30.5t-44.5 47.5t-18 74.5q0 65 41.5 105t120.5 40q89 0 144 -49v-90h-3
q-55 67 -135 67q-40 0 -61 -19t-21 -49q0 -31 24.5 -51.5t59.5 -34t70 -30t59.5 -51t24.5 -86.5z" />
    <glyph glyph-name="Scedilla" unicode="&#x15e;" 
d="M364 -119q0 -35 -29.5 -54.5t-79.5 -19.5q-54 0 -91 17v49h3q32 -21 74 -21q52 0 52 31q0 20 -21 27.5t-66 10.5l17 64q-92 9 -152 63v103h3q34 -42 83 -64.5t102 -22.5q62 0 97 27t35 76q0 33 -17.5 58.5t-45.5 41.5t-61.5 30.5t-67.5 31.5t-62 39t-45.5 58.5
t-17.5 84.5q0 80 52 134.5t153 54.5q110 0 179 -66v-102h-3q-32 42 -77.5 64t-92.5 22q-57 0 -88 -27t-31 -71q0 -45 32.5 -75t79 -49.5t93 -42t79 -67.5t32.5 -112q0 -79 -52.5 -132.5t-144.5 -58.5l-8 -29q87 -13 87 -73z" />
    <glyph glyph-name="scedilla" unicode="&#x15f;" horiz-adv-x="451" 
d="M323 -119q0 -35 -29.5 -54.5t-79.5 -19.5q-54 0 -91 17v49h3q32 -21 74 -21q52 0 52 31q0 20 -21 27.5t-66 10.5l16 63q-72 8 -117 47v90h3q55 -67 147 -67q42 0 67 19.5t25 50.5q0 27 -18 47t-44.5 30.5t-57.5 25t-57.5 30.5t-44.5 47.5t-18 74.5q0 65 41.5 105
t120.5 40q89 0 144 -49v-90h-3q-55 67 -135 67q-40 0 -61 -19t-21 -49q0 -31 24.5 -51.5t59.5 -34t70 -30t59.5 -51t24.5 -86.5q0 -62 -37.5 -101t-108.5 -46l-8 -30q87 -13 87 -73z" />
    <glyph glyph-name="Scaron" unicode="&#x160;" 
d="M482 174q0 -83 -58 -137.5t-159 -54.5q-121 0 -194 66v103h3q34 -42 83 -64.5t102 -22.5q62 0 97 27t35 76q0 33 -17.5 58.5t-45.5 41.5t-61.5 30.5t-67.5 31.5t-62 39t-45.5 58.5t-17.5 84.5q0 68 38.5 119.5t114.5 64.5l-84 108h75l58 -71h1l59 71h75l-84 -107
q79 -13 131 -62v-102h-3q-32 42 -77.5 64t-92.5 22q-57 0 -88 -27t-31 -71q0 -45 32.5 -75t79 -49.5t93 -42t79 -67.5t32.5 -112z" />
    <glyph glyph-name="scaron" unicode="&#x161;" horiz-adv-x="451" 
d="M256 551h-62l-142 199h77l95 -133h1l96 133h77zM390 131q0 -68 -45 -108.5t-129 -40.5q-95 0 -152 49v90h3q55 -67 147 -67q42 0 67 19.5t25 50.5q0 27 -18 47t-44.5 30.5t-57.5 25t-57.5 30.5t-44.5 47.5t-18 74.5q0 65 41.5 105t120.5 40q89 0 144 -49v-90h-3
q-55 67 -135 67q-40 0 -61 -19t-21 -49q0 -31 24.5 -51.5t59.5 -34t70 -30t59.5 -51t24.5 -86.5z" />
    <glyph glyph-name="Tcommaaccent" unicode="&#x162;" horiz-adv-x="535" 
d="M200 -193h-77l101 156h90zM313 -1h-91v596h-192v86h475v-86h-192v-596z" />
    <glyph glyph-name="Tcommaaccent" unicode="&#x21a;" horiz-adv-x="535" 
d="M200 -193h-77l101 156h90zM313 -1h-91v596h-192v86h475v-86h-192v-596z" />
    <glyph glyph-name="tcommaaccent" unicode="&#x163;" horiz-adv-x="328" 
d="M72 -193h-77l101 156h90zM179 0h-86v430h-44v4l44 72v152h86v-152h122v-76h-122v-430z" />
    <glyph glyph-name="tcommaaccent" unicode="&#x21b;" horiz-adv-x="328" 
d="M72 -193h-77l101 156h90zM179 0h-86v430h-44v4l44 72v152h86v-152h122v-76h-122v-430z" />
    <glyph glyph-name="Tcaron" unicode="&#x164;" horiz-adv-x="535" 
d="M313 -1h-91v596h-192v86h199l-95 122h75l58 -71h1l59 71h75l-96 -122h199v-86h-192v-596z" />
    <glyph glyph-name="tcaron" unicode="&#x165;" horiz-adv-x="362" 
d="M300 551h-68l54 199h81zM179 0h-86v430h-44v4l44 72v152h86v-152h122v-76h-122v-430z" />
    <glyph glyph-name="Tbar" unicode="&#x166;" horiz-adv-x="535" 
d="M313 0h-91v270h-132v74h132v252h-192v86h475v-86h-192v-252h132v-74h-132v-270z" />
    <glyph glyph-name="tbar" unicode="&#x167;" horiz-adv-x="328" 
d="M179 0h-86v207h-69v69h69v154h-44v4l44 72v152h86v-152h122v-76h-122v-154h106v-69h-106v-207z" />
    <glyph glyph-name="Utilde" unicode="&#x168;" horiz-adv-x="655" 
d="M396 701q-24 0 -67 25.5t-58 25.5q-12 0 -20.5 -8t-11.5 -15t-11 -28h-58q16 55 35.5 81.5t58.5 26.5q24 0 67 -25.5t58 -25.5q12 0 20 6t11.5 14t9.5 25q1 4 2 6h58q-15 -56 -35 -82t-59 -26zM328 -18q-110 0 -174.5 58t-64.5 166v476h92v-464q0 -75 38 -112.5
t107 -37.5t107.5 37.5t38.5 112.5v464h93v-476q0 -108 -63.5 -166t-173.5 -58z" />
    <glyph glyph-name="utilde" unicode="&#x169;" horiz-adv-x="583" 
d="M503 506v-321q0 -95 -57 -149t-155 -54q-97 0 -154 53.5t-57 149.5v321h86v-315q0 -66 32.5 -99t92.5 -33t93 33t33 99v315h86zM374 614q-31 0 -82 35.5t-71 35.5q-19 0 -29.5 -16.5t-22.5 -54.5h-57q15 69 38 102.5t64 33.5q31 0 82 -35.5t71 -35.5q19 0 29.5 16
t22.5 55h57q-15 -70 -38 -103t-64 -33z" />
    <glyph glyph-name="Umacron" unicode="&#x16a;" horiz-adv-x="655" 
d="M478 747h-302v62h302v-62zM328 -18q-110 0 -174.5 58t-64.5 166v476h92v-464q0 -75 38 -112.5t107 -37.5t107.5 37.5t38.5 112.5v464h93v-476q0 -108 -63.5 -166t-173.5 -58z" />
    <glyph glyph-name="umacron" unicode="&#x16b;" horiz-adv-x="583" 
d="M503 506v-321q0 -95 -57 -149t-155 -54q-97 0 -154 53.5t-57 149.5v321h86v-315q0 -66 32.5 -99t92.5 -33t93 33t33 99v315h86zM452 668h-322v67h322v-67z" />
    <glyph glyph-name="Ubreve" unicode="&#x16c;" horiz-adv-x="655" 
d="M326 700q-61 0 -99 29t-46 80h64q13 -51 81 -51t81 51h64q-8 -51 -46 -80t-99 -29zM328 -18q-110 0 -174.5 58t-64.5 166v476h92v-464q0 -75 38 -112.5t107 -37.5t107.5 37.5t38.5 112.5v464h93v-476q0 -108 -63.5 -166t-173.5 -58z" />
    <glyph glyph-name="ubreve" unicode="&#x16d;" horiz-adv-x="583" 
d="M503 506v-321q0 -95 -57 -149t-155 -54q-97 0 -154 53.5t-57 149.5v321h86v-315q0 -66 32.5 -99t92.5 -33t93 33t33 99v315h86zM291 592q-74 0 -116 43.5t-49 114.5h65q8 -44 34 -70t66 -26t66 26t34 70h65q-7 -71 -49 -114.5t-116 -43.5z" />
    <glyph glyph-name="Uring" unicode="&#x16e;" horiz-adv-x="655" 
d="M328 -18q-110 0 -174.5 58t-64.5 166v476h92v-464q0 -75 38 -112.5t107 -37.5t107.5 37.5t38.5 112.5v464h93v-476q0 -108 -63.5 -166t-173.5 -58zM438 772q0 -44 -32 -67t-79 -23q-48 0 -79 23t-31 67q0 42 32 65t80 23q47 0 78 -23t31 -65zM382 772q0 20 -15.5 32
t-38.5 12q-24 0 -40 -12t-16 -32q0 -22 15.5 -34t40.5 -12q24 0 39 12t15 34z" />
    <glyph glyph-name="uring" unicode="&#x16f;" horiz-adv-x="583" 
d="M405 672q0 -46 -33 -71t-82 -25t-81 25t-32 71t33 70.5t82 24.5q48 0 80.5 -24.5t32.5 -70.5zM345 672q0 23 -15 36.5t-39 13.5q-25 0 -40.5 -13.5t-15.5 -36.5q0 -25 15.5 -38.5t40.5 -13.5t39.5 13.5t14.5 38.5zM503 506v-321q0 -95 -57 -149t-155 -54q-97 0 -154 53.5
t-57 149.5v321h86v-315q0 -66 32.5 -99t92.5 -33t93 33t33 99v315h86z" />
    <glyph glyph-name="Uhungarumlaut" unicode="&#x170;" horiz-adv-x="655" 
d="M328 -18q-110 0 -174.5 58t-64.5 166v476h92v-464q0 -75 38 -112.5t107 -37.5t107.5 37.5t38.5 112.5v464h93v-476q0 -108 -63.5 -166t-173.5 -58zM267 682h-77l77 118h93zM440 682h-77l76 118h93z" />
    <glyph glyph-name="uhungarumlaut" unicode="&#x171;" horiz-adv-x="583" 
d="M503 506v-321q0 -95 -57 -149t-155 -54q-97 0 -154 53.5t-57 149.5v321h86v-315q0 -66 32.5 -99t92.5 -33t93 33t33 99v315h86zM242 557h-77l126 193h90zM412 557h-77l125 193h91z" />
    <glyph glyph-name="Uogonek" unicode="&#x172;" horiz-adv-x="655" 
d="M431 -169q-40 -24 -91 -24q-47 0 -71 21t-24 54q0 48 56 101q-99 7 -155.5 64.5t-56.5 158.5v476h92v-464q0 -75 38 -112.5t107 -37.5t107.5 37.5t38.5 112.5v464h93v-476q0 -99 -53.5 -156t-147.5 -66q-50 -49 -50 -82q0 -39 46 -39q37 0 68 28h3v-60z" />
    <glyph glyph-name="uogonek" unicode="&#x173;" horiz-adv-x="583" 
d="M503 506v-321q0 -84 -44 -136t-123 -63q-51 -52 -51 -84q0 -39 46 -39q37 0 68 28h3v-60q-40 -24 -91 -24q-47 0 -71 21t-24 54q0 46 55 101q-89 5 -140 58t-51 144v321h86v-315q0 -66 32.5 -99t92.5 -33t93 33t33 99v315h86z" />
    <glyph glyph-name="Wcircumflex" unicode="&#x174;" horiz-adv-x="964" 
d="M599 682h-75l-58 72h-1l-59 -72h73l181 -532h1l184 532h97l-246 -700h-71l-143 404h-1l-142 -404h-71l-245 700h99l187 -532h1l129 367l-57 165h-51l100 128h68z" />
    <glyph glyph-name="wcircumflex" unicode="&#x175;" horiz-adv-x="814" 
d="M580 558h-77l-95 133h-1l-96 -133h-77l142 199h62zM605 -18h-55l-142 349h-1l-142 -349h-56l-190 524h96l128 -363h1l160 381h8l159 -380h1l128 362h95z" />
    <glyph glyph-name="Ycircumflex" unicode="&#x176;" horiz-adv-x="593" 
d="M342 0h-91v281l-242 401h109l178 -307h1l180 307h107l-242 -401v-281zM431 682h-75l-58 72h-1l-59 -72h-75l100 128h68z" />
    <glyph glyph-name="ycircumflex" unicode="&#x177;" horiz-adv-x="523" 
d="M240 -193h-94l78 194l-215 505h98l160 -394h1l141 394h95zM435 558h-77l-95 133h-1l-96 -133h-77l142 199h62z" />
    <glyph glyph-name="Ydieresis" unicode="&#x178;" horiz-adv-x="593" 
d="M342 0h-91v281l-242 401h109l178 -307h1l180 307h107l-242 -401v-281zM238 732h-88v77h88v-77zM445 732h-88v77h88v-77z" />
    <glyph glyph-name="Zacute" unicode="&#x179;" horiz-adv-x="636" 
d="M341 682h217v-6l-349 -589v-1h371v-86h-527v6l348 589v1h-324v86h189l76 118h93z" />
    <glyph glyph-name="zacute" unicode="&#x17a;" horiz-adv-x="480" 
d="M272 557h-77l125 193h91zM443 0h-412v6l256 423v1h-237v76h379v-6l-257 -423v-1h271v-76z" />
    <glyph glyph-name="Zdotaccent" unicode="&#x17b;" horiz-adv-x="636" 
d="M355 732h-94v77h94v-77zM580 0h-527v6l348 589v1h-324v86h481v-6l-349 -589v-1h371v-86z" />
    <glyph glyph-name="zdotaccent" unicode="&#x17c;" horiz-adv-x="480" 
d="M443 0h-412v6l256 423v1h-237v76h379v-6l-257 -423v-1h271v-76zM282 665h-94v85h94v-85z" />
    <glyph glyph-name="Zcaron" unicode="&#x17d;" horiz-adv-x="636" 
d="M580 0h-527v6l348 589v1h-324v86h200l-94 121h75l58 -71h1l59 71h75l-95 -121h202v-6l-349 -589v-1h371v-86z" />
    <glyph glyph-name="zcaron" unicode="&#x17e;" horiz-adv-x="480" 
d="M266 551h-62l-142 199h77l95 -133h1l96 133h77zM443 0h-412v6l256 423v1h-237v76h379v-6l-257 -423v-1h271v-76z" />
    <glyph glyph-name="florin" unicode="&#x192;" horiz-adv-x="528" 
d="M214 0h-88v301h-82v77h82v114q0 99 55.5 153.5t152.5 54.5q96 0 164 -57v-97h-4q-62 74 -152 74q-63 0 -95.5 -37t-32.5 -100v-105h213v-77h-213v-301z" />
    <glyph glyph-name="Aringacute" unicode="&#x1fa;" horiz-adv-x="667" 
d="M444 772q0 -32 -18.5 -53.5t-48.5 -30.5l275 -688h-101l-83 213h-272l-83 -213h-97l274 687q-67 19 -67 85q0 69 80 85l66 103h93l-84 -106q66 -19 66 -82zM438 294l-106 274h-1l-105 -274h212zM388 772q0 20 -15.5 32t-38.5 12q-24 0 -40 -12t-16 -32q0 -22 15.5 -34
t40.5 -12q24 0 39 12t15 34z" />
    <glyph glyph-name="aringacute" unicode="&#x1fb;" horiz-adv-x="545" 
d="M465 0h-84v40h-1q-65 -58 -152 -58q-74 0 -122 43t-48 116q0 75 49.5 119.5t138.5 44.5q76 0 133 -34v51q0 64 -37.5 95t-98.5 31q-44 0 -84.5 -20t-66.5 -51h-3v90q71 57 171 57q92 0 148.5 -50t56.5 -149v-325zM379 114v87q-50 32 -118 32q-56 0 -86.5 -22.5
t-30.5 -64.5q0 -39 29 -64t82 -25q73 0 124 57zM306 802h-77l125 193h91zM387 672q0 -46 -33 -71t-82 -25t-81 25t-32 71t33 70.5t82 24.5q48 0 80.5 -24.5t32.5 -70.5zM327 672q0 23 -15 36.5t-39 13.5q-25 0 -40.5 -13.5t-15.5 -36.5q0 -25 15.5 -38.5t40.5 -13.5
t39.5 13.5t14.5 38.5z" />
    <glyph glyph-name="AEacute" unicode="&#x1fc;" horiz-adv-x="915" 
d="M549 682h-75l76 118h93zM847 0h-375v277h-193l-163 -277h-106l400 682h411v-86h-258v-220h248v-86h-248v-204h284v-86zM470 611l-146 -248h148v248h-2z" />
    <glyph glyph-name="aeacute" unicode="&#x1fd;" horiz-adv-x="883" 
d="M469 557h-77l125 193h91zM632 -18q-132 0 -201 90h-2q-78 -90 -201 -90q-74 0 -122 43t-48 116q0 75 49.5 119.5t138.5 44.5q76 0 133 -34v52q0 64 -37.5 94.5t-98.5 30.5q-44 0 -84.5 -20t-66.5 -50h-3v89q71 57 171 57q123 0 169 -95h2q55 95 179 95q96 0 160.5 -64.5
t64.5 -169.5q0 -35 -2 -50h-368q3 -87 52.5 -135t131.5 -48q98 0 159 70h3v-88q-71 -57 -179 -57zM255 57q88 0 144 70q-17 41 -19 73q-50 33 -115 33q-121 0 -121 -88q0 -39 28.5 -63.5t82.5 -24.5zM746 312q-3 61 -41 98.5t-96 37.5q-59 0 -97 -35t-46 -101h280z" />
    <glyph glyph-name="Oslashacute" unicode="&#x1fe;" horiz-adv-x="742" 
d="M140 -18h-92l82 108q-82 96 -82 251q0 157 82.5 251t208.5 106l66 102h93l-82 -103q80 -11 142 -55l44 58h92l-82 -108q82 -98 82 -251q0 -168 -92.5 -263.5t-231.5 -95.5q-105 0 -186 58zM599 341q0 106 -46 176l-315 -405q55 -43 132 -43q99 0 164 71t65 201zM144 341
q0 -105 44 -174l315 404q-57 43 -131 43q-98 0 -163 -71.5t-65 -201.5z" />
    <glyph glyph-name="oslashacute" unicode="&#x1ff;" horiz-adv-x="580" 
d="M126 -18h-88l62 82q-62 73 -62 189q0 126 71 198.5t182 72.5q76 0 136 -37l27 37h89l-62 -83q62 -72 62 -188q0 -126 -71.5 -198.5t-182.5 -72.5q-75 0 -136 36zM129 253q0 -69 26 -116l223 285q-38 26 -87 26q-72 0 -117 -52t-45 -143zM451 253q0 66 -26 115l-223 -284
q38 -25 87 -25q73 0 117.5 51.5t44.5 142.5zM328 557h-77l125 193h91z" />
    <glyph glyph-name="Scommaaccent" unicode="&#x218;" 
d="M205 -193h-77l101 156h90zM482 174q0 -83 -58 -137.5t-159 -54.5q-121 0 -194 66v103h3q34 -42 83 -64.5t102 -22.5q62 0 97 27t35 76q0 33 -17.5 58.5t-45.5 41.5t-61.5 30.5t-67.5 31.5t-62 39t-45.5 58.5t-17.5 84.5q0 80 52 134.5t153 54.5q110 0 179 -66v-102h-3
q-32 42 -77.5 64t-92.5 22q-57 0 -88 -27t-31 -71q0 -45 32.5 -75t79 -49.5t93 -42t79 -67.5t32.5 -112z" />
    <glyph glyph-name="scommaaccent" unicode="&#x219;" horiz-adv-x="451" 
d="M170 -193h-77l101 156h90zM390 131q0 -68 -45 -108.5t-129 -40.5q-95 0 -152 49v90h3q55 -67 147 -67q42 0 67 19.5t25 50.5q0 27 -18 47t-44.5 30.5t-57.5 25t-57.5 30.5t-44.5 47.5t-18 74.5q0 65 41.5 105t120.5 40q89 0 144 -49v-90h-3q-55 67 -135 67q-40 0 -61 -19
t-21 -49q0 -31 24.5 -51.5t59.5 -34t70 -30t59.5 -51t24.5 -86.5z" />
    <glyph glyph-name="commaaccent.alt" unicode="&#x2bb;" horiz-adv-x="500" 
d="M244 594h-90l114 156h77z" />
    <glyph glyph-name="commaaccent.alt" unicode="&#xe026;" horiz-adv-x="500" 
d="M244 594h-90l114 156h77z" />
    <glyph glyph-name="commaaccent.alt" unicode="&#x312;" horiz-adv-x="500" 
d="M244 594h-90l114 156h77z" />
    <glyph glyph-name="circumflex" unicode="&#x2c6;" horiz-adv-x="500" 
d="M423 558h-77l-95 133h-1l-96 -133h-77l142 199h62z" />
    <glyph glyph-name="circumflex" unicode="&#x302;" horiz-adv-x="500" 
d="M423 558h-77l-95 133h-1l-96 -133h-77l142 199h62z" />
    <glyph glyph-name="caron" unicode="&#x2c7;" horiz-adv-x="500" 
d="M281 551h-62l-142 199h77l95 -133h1l96 133h77z" />
    <glyph glyph-name="caron" unicode="&#x30c;" horiz-adv-x="500" 
d="M281 551h-62l-142 199h77l95 -133h1l96 133h77z" />
    <glyph glyph-name="breve" unicode="&#x2d8;" horiz-adv-x="500" 
d="M250 592q-74 0 -116 43.5t-49 114.5h65q8 -44 34 -70t66 -26t66 26t34 70h65q-7 -71 -49 -114.5t-116 -43.5z" />
    <glyph glyph-name="breve" unicode="&#x306;" horiz-adv-x="500" 
d="M250 592q-74 0 -116 43.5t-49 114.5h65q8 -44 34 -70t66 -26t66 26t34 70h65q-7 -71 -49 -114.5t-116 -43.5z" />
    <glyph glyph-name="dotaccent" unicode="&#x2d9;" horiz-adv-x="500" 
d="M297 665h-94v85h94v-85z" />
    <glyph glyph-name="dotaccent" unicode="&#x307;" horiz-adv-x="500" 
d="M297 665h-94v85h94v-85z" />
    <glyph glyph-name="ring" unicode="&#x2da;" horiz-adv-x="500" 
d="M364 672q0 -46 -33 -71t-82 -25t-81 25t-32 71t33 70.5t82 24.5q48 0 80.5 -24.5t32.5 -70.5zM304 672q0 23 -15 36.5t-39 13.5q-25 0 -40.5 -13.5t-15.5 -36.5q0 -25 15.5 -38.5t40.5 -13.5t39.5 13.5t14.5 38.5z" />
    <glyph glyph-name="ring" unicode="&#x30a;" horiz-adv-x="500" 
d="M364 672q0 -46 -33 -71t-82 -25t-81 25t-32 71t33 70.5t82 24.5q48 0 80.5 -24.5t32.5 -70.5zM304 672q0 23 -15 36.5t-39 13.5q-25 0 -40.5 -13.5t-15.5 -36.5q0 -25 15.5 -38.5t40.5 -13.5t39.5 13.5t14.5 38.5z" />
    <glyph glyph-name="ogonek" unicode="&#x2db;" horiz-adv-x="500" 
d="M343 -169q-40 -24 -91 -24q-47 0 -71 21t-24 54q0 53 81 124h61q-41 -38 -57 -60.5t-16 -43.5q0 -39 46 -39q37 0 68 28h3v-60z" />
    <glyph glyph-name="ogonek" unicode="&#x328;" horiz-adv-x="500" 
d="M343 -169q-40 -24 -91 -24q-47 0 -71 21t-24 54q0 53 81 124h61q-41 -38 -57 -60.5t-16 -43.5q0 -39 46 -39q37 0 68 28h3v-60z" />
    <glyph glyph-name="tilde" unicode="&#x2dc;" horiz-adv-x="500" 
d="M330 614q-31 0 -82 35.5t-71 35.5q-19 0 -29.5 -16.5t-22.5 -54.5h-57q15 69 38 102.5t64 33.5q31 0 82 -35.5t71 -35.5q19 0 29.5 16t22.5 55h57q-15 -70 -38 -103t-64 -33z" />
    <glyph glyph-name="tilde" unicode="&#x303;" horiz-adv-x="500" 
d="M330 614q-31 0 -82 35.5t-71 35.5q-19 0 -29.5 -16.5t-22.5 -54.5h-57q15 69 38 102.5t64 33.5q31 0 82 -35.5t71 -35.5q19 0 29.5 16t22.5 55h57q-15 -70 -38 -103t-64 -33z" />
    <glyph glyph-name="hungarumlaut" unicode="&#x2dd;" horiz-adv-x="500" 
d="M134 557h-77l126 193h90zM304 557h-77l125 193h91z" />
    <glyph glyph-name="hungarumlaut" unicode="&#x30b;" horiz-adv-x="500" 
d="M134 557h-77l126 193h90zM304 557h-77l125 193h91z" />
    <glyph glyph-name="caronSlovak" unicode="&#x315;" horiz-adv-x="500" 
d="M250 551h-68l54 199h81z" />
    <glyph glyph-name="caronSlovak" unicode="&#xe01e;" horiz-adv-x="500" 
d="M250 551h-68l54 199h81z" />
    <glyph glyph-name="commaaccent" unicode="&#x326;" horiz-adv-x="500" 
d="M231 -193h-77l101 156h90z" />
    <glyph glyph-name="uni037E" unicode="&#x37e;" horiz-adv-x="270" 
d="M183 403h-94v103h94v-103zM112 -138h-79l73 241h81v-5z" />
    <glyph glyph-name="tonos" unicode="&#x384;" horiz-adv-x="500" 
d="M259 557h-66l33 193h81z" />
    <glyph glyph-name="dieresistonos" unicode="&#x385;" horiz-adv-x="500" 
d="M163 600h-79v76h79v-76zM416 600h-79v76h79v-76zM269 557h-68l24 193h80z" />
    <glyph glyph-name="Alphatonos" unicode="&#x386;" horiz-adv-x="677" 
d="M121 489h-66l33 193h81zM662 0h-101l-83 213h-272l-83 -213h-97l279 700h77zM448 294l-106 274h-1l-105 -274h212z" />
    <glyph glyph-name="anoteleia" unicode="&#x387;" horiz-adv-x="265" 
d="M180 215h-94v102h94v-102z" />
    <glyph glyph-name="Epsilontonos" unicode="&#x388;" horiz-adv-x="588" 
d="M51 489h-66l33 193h81zM521 0h-376v682h350v-86h-258v-203h248v-86h-248v-221h284v-86z" />
    <glyph glyph-name="Etatonos" unicode="&#x389;" horiz-adv-x="799" 
d="M51 489h-66l33 193h81zM700 0h-92v310h-371v-310h-92v682h92v-286h371v286h92v-682z" />
    <glyph glyph-name="Iotatonos" unicode="&#x38a;" horiz-adv-x="336" 
d="M51 489h-66l33 193h81zM237 0h-91v682h91v-682z" />
    <glyph glyph-name="Omicrontonos" unicode="&#x38c;" horiz-adv-x="775" 
d="M51 489h-66l33 193h81zM727 341q0 -168 -92.5 -263.5t-231.5 -95.5q-136 0 -229 95.5t-93 263.5t93 263.5t231 95.5q136 0 229 -95.5t93 -263.5zM632 341q0 129 -64.5 201t-162.5 72t-163 -71.5t-65 -201.5q0 -129 64 -201t162 -72q99 0 164 71.5t65 201.5z" />
    <glyph glyph-name="Upsilontonos" unicode="&#x38e;" horiz-adv-x="691" 
d="M51 489h-66l33 193h81zM440 0h-91v281l-242 401h109l178 -307h1l180 307h107l-242 -401v-281z" />
    <glyph glyph-name="Omegatonos" unicode="&#x38f;" horiz-adv-x="779" 
d="M726 0h-283v66q177 122 177 301q0 117 -60 182t-156 65t-156.5 -65t-60.5 -182q0 -179 177 -301v-66h-283v86h145v1q-135 120 -135 299q0 147 89 230.5t224 83.5q134 0 223 -83.5t89 -230.5q0 -178 -134 -299v-1h144v-86zM58 489h-66l33 193h81z" />
    <glyph glyph-name="iotadieresistonos" unicode="&#x390;" horiz-adv-x="258" 
d="M172 0h-86v506h86v-506zM163 557h-68l24 193h80zM57 600h-79v76h79v-76zM310 600h-79v76h79v-76z" />
    <glyph glyph-name="Alpha" unicode="&#x391;" horiz-adv-x="667" 
d="M652 0h-101l-83 213h-272l-83 -213h-97l279 700h77zM438 294l-106 274h-1l-105 -274h212z" />
    <glyph glyph-name="Beta" unicode="&#x392;" horiz-adv-x="613" 
d="M548 184q0 -184 -245 -184h-204v682h195q98 0 156.5 -45.5t58.5 -128.5q0 -108 -98 -158v-1q58 -13 97.5 -56t39.5 -109zM454 197q0 51 -39 79t-105 28h-119v-223h109q154 0 154 116zM415 494q0 50 -36 79t-97 29h-91v-220h130q94 30 94 112z" />
    <glyph glyph-name="Gamma" unicode="&#x393;" horiz-adv-x="485" 
d="M191 0h-91v682h355v-88h-264v-594z" />
    <glyph glyph-name="uni0394" unicode="&#x394;" horiz-adv-x="667" 
d="M652 0h-636l279 700h77zM519 86l-187 484h-1l-187 -484h375z" />
    <glyph glyph-name="Epsilon" unicode="&#x395;" horiz-adv-x="543" 
d="M475 0h-376v682h350v-86h-258v-203h248v-86h-248v-221h284v-86z" />
    <glyph glyph-name="Zeta" unicode="&#x396;" horiz-adv-x="636" 
d="M580 0h-527v6l348 589v1h-324v86h481v-6l-349 -589v-1h371v-86z" />
    <glyph glyph-name="Eta" unicode="&#x397;" horiz-adv-x="753" 
d="M654 0h-92v310h-371v-310h-92v682h92v-286h371v286h92v-682z" />
    <glyph glyph-name="Theta" unicode="&#x398;" horiz-adv-x="742" 
d="M694 341q0 -168 -92.5 -263.5t-231.5 -95.5q-136 0 -229 95.5t-93 263.5t93 263.5t231 95.5q136 0 229 -95.5t93 -263.5zM599 341q0 129 -64.5 201t-162.5 72t-163 -71.5t-65 -201.5q0 -129 64 -201t162 -72q99 0 164 71.5t65 201.5zM507 298h-273v86h273v-86z" />
    <glyph glyph-name="Iota" unicode="&#x399;" horiz-adv-x="290" 
d="M191 0h-91v682h91v-682z" />
    <glyph glyph-name="Kappa" unicode="&#x39a;" horiz-adv-x="610" 
d="M191 0h-92v682h92v-682zM589 0h-112l-270 343v4l260 335h110l-263 -334v-2z" />
    <glyph glyph-name="Lambda" unicode="&#x39b;" horiz-adv-x="654" 
d="M639 0h-104l-209 549h-1l-208 -549h-101l275 700h71z" />
    <glyph glyph-name="Mu" unicode="&#x39c;" horiz-adv-x="872" 
d="M788 0h-92l-41 467h-1l-215 -485h-7l-216 486h-1l-39 -468h-92l60 694h70l222 -518h1l221 518h70z" />
    <glyph glyph-name="Nu" unicode="&#x39d;" horiz-adv-x="756" 
d="M657 -12h-71l-394 511h-1v-499h-92v640l-27 37v5h98l395 -518h1v518h91v-694z" />
    <glyph glyph-name="Xi" unicode="&#x39e;" horiz-adv-x="618" 
d="M556 0h-493v86h493v-86zM532 596h-447v86h447v-86zM520 307h-421v86h421v-86z" />
    <glyph glyph-name="Omicron" unicode="&#x39f;" horiz-adv-x="742" 
d="M694 341q0 -168 -92.5 -263.5t-231.5 -95.5q-136 0 -229 95.5t-93 263.5t93 263.5t231 95.5q136 0 229 -95.5t93 -263.5zM599 341q0 129 -64.5 201t-162.5 72t-163 -71.5t-65 -201.5q0 -129 64 -201t162 -72q99 0 164 71.5t65 201.5z" />
    <glyph glyph-name="Pi" unicode="&#x3a0;" horiz-adv-x="736" 
d="M637 0h-91v596h-355v-596h-92v682h538v-682z" />
    <glyph glyph-name="Rho" unicode="&#x3a1;" horiz-adv-x="586" 
d="M534 472q0 -107 -80 -172t-263 -79v-221h-92v682h194q105 0 173 -54.5t68 -155.5zM440 465q0 62 -42 97t-111 35h-96v-290q249 12 249 158z" />
    <glyph glyph-name="Sigma" unicode="&#x3a3;" horiz-adv-x="570" 
d="M526 0h-500v6l248 345v1l-236 324v6h468v-86h-298v-1l179 -241v-6l-193 -261v-1h332v-86z" />
    <glyph glyph-name="Tau" unicode="&#x3a4;" horiz-adv-x="535" 
d="M313 0h-91v596h-192v86h475v-86h-192v-596z" />
    <glyph glyph-name="Upsilon" unicode="&#x3a5;" horiz-adv-x="593" 
d="M342 0h-91v281l-242 401h109l178 -307h1l180 307h107l-242 -401v-281z" />
    <glyph glyph-name="Phi" unicode="&#x3a6;" horiz-adv-x="783" 
d="M438 -12h-91v62q-133 6 -217 81.5t-84 209.5q0 133 83.5 208t217.5 82v63h91v-63q133 -7 216 -82t83 -208q0 -134 -83 -209t-216 -82v-62zM349 135v412q-95 -5 -151 -58.5t-56 -147.5q0 -95 56 -148.5t151 -57.5zM437 135q93 4 148.5 57.5t55.5 148.5q0 94 -55.5 147.5
t-148.5 58.5v-412z" />
    <glyph glyph-name="Chi" unicode="&#x3a7;" horiz-adv-x="665" 
d="M631 0h-112l-191 278h-1l-174 -278h-110l220 347l-229 335h110l185 -271h1l175 271h109l-219 -337z" />
    <glyph glyph-name="Psi" unicode="&#x3a8;" horiz-adv-x="777" 
d="M434 0h-92v141q-136 5 -202 65t-66 189v287h90v-288q0 -84 42.5 -124.5t135.5 -44.5v457h92v-457q93 3 135.5 43.5t42.5 125.5v288h91v-287q0 -129 -66.5 -189t-202.5 -65v-141z" />
    <glyph glyph-name="uni03A9" unicode="&#x3a9;" horiz-adv-x="749" 
d="M697 0h-283v66q177 122 177 301q0 117 -60 182t-156 65t-156.5 -65t-60.5 -182q0 -179 177 -301v-66h-283v86h145v1q-135 120 -135 299q0 147 89 230.5t224 83.5q134 0 223 -83.5t89 -230.5q0 -178 -134 -299v-1h144v-86z" />
    <glyph glyph-name="Iotadieresis" unicode="&#x3aa;" horiz-adv-x="292" 
d="M191 0h-91v682h91v-682zM87 732h-88v77h88v-77zM294 732h-88v77h88v-77z" />
    <glyph glyph-name="Upsilondieresis" unicode="&#x3ab;" horiz-adv-x="591" 
d="M340 0h-91v281l-242 401h109l178 -307h1l180 307h107l-242 -401v-281zM236 732h-88v77h88v-77zM443 732h-88v77h88v-77z" />
    <glyph glyph-name="alphatonos" unicode="&#x3ac;" horiz-adv-x="590" 
d="M339 557h-66l33 193h81zM418 122v274q-50 50 -122 50q-76 0 -120.5 -50.5t-44.5 -142.5q0 -90 43 -141.5t115 -51.5q77 0 129 62zM504 0h-85v42h-1q-66 -60 -154 -60q-99 0 -161.5 72.5t-62.5 198.5t65.5 198.5t171.5 72.5q83 0 147 -48h1l76 35h3v-511z" />
    <glyph glyph-name="epsilontonos" unicode="&#x3ad;" horiz-adv-x="462" 
d="M292 557h-66l33 193h81zM45 135q0 49 28.5 84.5t73.5 48.5v1q-74 36 -74 118q0 64 47 100.5t131 36.5q101 0 157 -50v-90h-3q-51 68 -137 68q-49 0 -75 -21.5t-26 -55.5q0 -35 27.5 -57t70.5 -22h91v-72h-146q-74 -18 -74 -81q0 -44 35.5 -66.5t85.5 -22.5q104 0 152 68
h3v-90q-58 -50 -173 -50q-90 0 -142 40.5t-52 112.5z" />
    <glyph glyph-name="etatonos" unicode="&#x3ae;" horiz-adv-x="602" 
d="M349 557h-66l33 193h81zM521 -193h-86v507q0 66 -35.5 99t-93.5 33q-80 0 -134 -62v-384h-86v506h85v-42h1q66 60 159 60q83 0 136.5 -47t53.5 -136v-534z" />
    <glyph glyph-name="iotatonos" unicode="&#x3af;" horiz-adv-x="258" 
d="M172 0h-86v506h86v-506zM165 557h-66l33 193h81z" />
    <glyph glyph-name="upsilondieresistonos" unicode="&#x3b0;" horiz-adv-x="585" 
d="M210 600h-79v76h79v-76zM463 600h-79v76h79v-76zM316 557h-68l24 193h80zM401 506h89q17 -138 17 -243q0 -281 -223 -281q-95 0 -149 55t-54 151v318h86v-313q0 -66 31 -100t88 -34q76 0 105.5 53.5t29.5 147.5q0 120 -20 246z" />
    <glyph glyph-name="alpha" unicode="&#x3b1;" horiz-adv-x="590" 
d="M418 122v274q-50 50 -122 50q-76 0 -120.5 -50.5t-44.5 -142.5q0 -90 43 -141.5t115 -51.5q77 0 129 62zM504 0h-85v42h-1q-66 -60 -154 -60q-99 0 -161.5 72.5t-62.5 198.5t65.5 198.5t171.5 72.5q83 0 147 -48h1l76 35h3v-511z" />
    <glyph glyph-name="beta" unicode="&#x3b2;" horiz-adv-x="592" 
d="M548 207q0 -105 -62 -165t-158 -60q-90 0 -150 42h-1v-179l-84 -38h-2v762q0 188 201 188q92 0 148 -47t56 -133q0 -58 -26 -99t-80 -73v-1q66 -12 112 -60.5t46 -136.5zM457 216q0 71 -44 105.5t-118 34.5h-62v78h73q54 23 77 54t23 77q0 52 -31.5 84t-83.5 32
q-114 0 -114 -114v-457q50 -50 135 -50q62 0 103.5 40t41.5 116z" />
    <glyph glyph-name="gamma" unicode="&#x3b3;" horiz-adv-x="499" 
d="M286 -156l-82 -37h-2q0 104 -13 170.5t-58 192.5l-119 336h96l93 -273q29 -88 37 -116h1l16 45q72 212 146 344h94q-25 -44 -47 -88t-45.5 -98.5t-35 -81.5t-38.5 -96t-33 -84l-22 -57q12 -67 12 -157z" />
    <glyph glyph-name="delta" unicode="&#x3b4;" horiz-adv-x="574" 
d="M536 238q0 -116 -70.5 -186t-179.5 -70q-106 0 -177 69.5t-71 183.5q0 84 42 144.5t136 115.5q-51 32 -72 61t-21 74q0 59 43 93t127 34q103 0 176 -48v-91h-3q-67 67 -163 67q-93 0 -93 -57q0 -25 20.5 -45t74.5 -50l49 -28q87 -48 134.5 -110t47.5 -157zM445 237
q0 126 -130 198l-28 16q-86 -45 -122 -96.5t-36 -117.5q0 -81 44 -129.5t115 -48.5q69 0 113 48.5t44 129.5z" />
    <glyph glyph-name="epsilon" unicode="&#x3b5;" horiz-adv-x="462" 
d="M45 135q0 49 28.5 84.5t73.5 48.5v1q-74 36 -74 118q0 64 47 100.5t131 36.5q101 0 157 -50v-90h-3q-51 68 -137 68q-49 0 -75 -21.5t-26 -55.5q0 -35 27.5 -57t70.5 -22h91v-72h-146q-74 -18 -74 -81q0 -44 35.5 -66.5t85.5 -22.5q104 0 152 68h3v-90q-58 -50 -173 -50
q-90 0 -142 40.5t-52 112.5z" />
    <glyph glyph-name="zeta" unicode="&#x3b6;" horiz-adv-x="459" 
d="M407 -142h-88q32 54 32 88q0 22 -13 35q-15 13 -60.5 18t-98.5 19.5t-89 53.5q-52 54 -52 147q0 112 60.5 207.5t204.5 245.5v1h-234v77h374v-55q-181 -178 -248 -273t-67 -196q0 -57 34 -96q27 -31 76.5 -42.5t100 -18.5t73.5 -25q27 -20 27 -68q0 -54 -32 -118z" />
    <glyph glyph-name="eta" unicode="&#x3b7;" horiz-adv-x="602" 
d="M521 -193h-86v507q0 66 -35.5 99t-93.5 33q-80 0 -134 -62v-384h-86v506h85v-42h1q66 60 159 60q83 0 136.5 -47t53.5 -136v-534z" />
    <glyph glyph-name="theta" unicode="&#x3b8;" horiz-adv-x="548" 
d="M505 341q0 -180 -63.5 -269.5t-167.5 -89.5q-102 0 -166.5 89.5t-64.5 269.5q0 181 64 270t167 89q106 0 168.5 -88.5t62.5 -270.5zM274 623q-59 0 -97.5 -60t-43.5 -185h282q-5 126 -42.5 185.5t-98.5 59.5zM274 59q61 0 98 59.5t43 182.5h-282q6 -122 44 -182t97 -60z
" />
    <glyph glyph-name="iota" unicode="&#x3b9;" horiz-adv-x="258" 
d="M172 0h-86v506h86v-506z" />
    <glyph glyph-name="kappa" unicode="&#x3ba;" horiz-adv-x="511" 
d="M172 0h-86v506h86v-506zM494 0h-106l-203 255v3l195 248h102l-197 -248v-2z" />
    <glyph glyph-name="lambda" unicode="&#x3bb;" horiz-adv-x="520" 
d="M508 0h-96l-136 394h-1l-165 -394h-98l221 505q-56 147 -126 245h100q66 -103 118 -247z" />
    <glyph glyph-name="uni03BC" unicode="&#x3bc;" horiz-adv-x="595" 
d="M509 0h-82v42h-1q-58 -60 -135 -60q-93 0 -128 65h-2q7 -93 11 -202l-84 -38h-2v699h86v-314q0 -67 34.5 -99.5t90.5 -32.5q82 0 126 69v377h86v-506z" />
    <glyph glyph-name="nu" unicode="&#x3bd;" horiz-adv-x="513" 
d="M279 -18h-59l-208 524h98l145 -398h1q93 181 151 398h92q-54 -217 -220 -524z" />
    <glyph glyph-name="xi" unicode="&#x3be;" horiz-adv-x="471" 
d="M419 -142h-88q32 53 32 88q0 25 -15 36q-15 12 -61.5 17t-99 20t-87.5 53q-52 54 -52 141q0 73 41 122.5t113 65.5v1q-113 53 -113 173q0 83 54 132.5t145 49.5q96 0 160 -54v-90h-3q-57 72 -139 72q-56 0 -90.5 -31.5t-34.5 -89.5q0 -60 43.5 -95.5t102.5 -35.5h69v-76
h-140q-52 -12 -85 -47.5t-33 -88.5q0 -59 36 -95q30 -30 80.5 -41t99.5 -17t71 -24q27 -21 27 -67q0 -55 -33 -119z" />
    <glyph glyph-name="omicron" unicode="&#x3bf;" horiz-adv-x="580" 
d="M451 253q0 90 -44 142.5t-116 52.5t-117 -52t-45 -143q0 -90 44 -142t116 -52q73 0 117.5 51.5t44.5 142.5zM543 253q0 -126 -71.5 -198.5t-182.5 -72.5q-109 0 -180 72.5t-71 198.5t71 198.5t182 72.5q109 0 180.5 -72.5t71.5 -198.5z" />
    <glyph glyph-name="pi" unicode="&#x3c0;" horiz-adv-x="635" 
d="M506 0h-86v430h-187q-3 -202 -29 -430h-86q26 232 29 430h-133v4l44 72h554v-76h-106v-430z" />
    <glyph glyph-name="rho" unicode="&#x3c1;" horiz-adv-x="592" 
d="M553 253q0 -126 -67.5 -198.5t-174.5 -72.5q-85 0 -144 42h-1v-217h-86v471q0 120 59.5 183t168.5 63q111 0 178 -71.5t67 -199.5zM462 253q0 90 -42 143t-115 53q-139 0 -139 -174v-165q52 -50 125 -50q79 0 125 50.5t46 142.5z" />
    <glyph glyph-name="sigma1" unicode="&#x3c2;" horiz-adv-x="441" 
d="M310 -18q-13 12 -54.5 18t-88.5 22.5t-78 54.5q-51 63 -51 174q0 128 62 200.5t159 72.5q83 0 146 -55v-94h-3q-48 73 -131 73q-62 0 -102 -53.5t-40 -141.5q0 -82 37 -125q27 -33 70 -44.5t86.5 -17t64.5 -22.5q25 -24 25 -68q0 -56 -32 -118h-88q32 57 32 88
q0 25 -14 36z" />
    <glyph glyph-name="sigma" unicode="&#x3c3;" horiz-adv-x="592" 
d="M535 230q0 -113 -70.5 -180.5t-178.5 -67.5q-107 0 -177.5 70t-70.5 188q0 131 74.5 198.5t202.5 67.5h254v-77h-136q102 -77 102 -199zM445 238q0 61 -27 106t-89 86h-12q-86 0 -137 -48t-51 -142q0 -83 44 -133t115 -50q69 0 113 49.5t44 131.5z" />
    <glyph glyph-name="tau" unicode="&#x3c4;" horiz-adv-x="439" 
d="M263 0h-86v430h-150v76h385v-76h-149v-430z" />
    <glyph glyph-name="upsilon" unicode="&#x3c5;" horiz-adv-x="585" 
d="M401 506h89q17 -138 17 -243q0 -281 -223 -281q-95 0 -149 55t-54 151v318h86v-313q0 -66 31 -100t88 -34q76 0 105.5 53.5t29.5 147.5q0 120 -20 246z" />
    <glyph glyph-name="phi" unicode="&#x3c6;" horiz-adv-x="730" 
d="M323 58v392q-86 -2 -140 -52.5t-54 -143.5t54 -143.5t140 -52.5zM692 254q0 -124 -80.5 -194.5t-203.5 -75.5v-177h-86v177q-124 5 -204 75t-80 195q0 124 79 193.5t205 74.5v228h86v-228q125 -5 204.5 -74.5t79.5 -193.5zM601 254q0 93 -54 143.5t-141 52.5v-392
q86 2 140.5 52.5t54.5 143.5z" />
    <glyph glyph-name="chi" unicode="&#x3c7;" horiz-adv-x="507" 
d="M495 -193h-99l-142 283h-1l-136 -283h-97l172 348l-180 351h99l142 -284h1l138 284h98l-173 -351z" />
    <glyph glyph-name="psi" unicode="&#x3c8;" horiz-adv-x="777" 
d="M432 -193h-86v177q-131 5 -198 63.5t-67 182.5v276h86v-277q0 -83 43.5 -125.5t135.5 -43.5v690h86v-689q95 3 138 51.5t43 150.5q0 115 -17 243h86q17 -138 17 -243q0 -142 -66.5 -208t-200.5 -71v-177z" />
    <glyph glyph-name="omega" unicode="&#x3c9;" horiz-adv-x="776" 
d="M531 -18q-50 0 -87 22t-55 60h-2q-18 -38 -54.5 -60t-86.5 -22q-90 0 -137.5 74.5t-47.5 186.5q0 149 67 263h96q-38 -63 -54 -123t-16 -139q0 -81 25 -133.5t76 -52.5q90 0 90 119v189h86v-189q0 -58 24 -88.5t67 -30.5q51 0 76 52.5t25 133.5q0 79 -16 139t-54 123h95
q68 -117 68 -263q0 -112 -47.5 -186.5t-137.5 -74.5z" />
    <glyph glyph-name="iotadieresis" unicode="&#x3ca;" horiz-adv-x="258" 
d="M172 0h-86v506h86v-506zM70 665h-88v85h88v-85zM277 665h-88v85h88v-85z" />
    <glyph glyph-name="upsilondieresis" unicode="&#x3cb;" horiz-adv-x="585" 
d="M230 665h-88v85h88v-85zM437 665h-88v85h88v-85zM401 506h89q17 -138 17 -243q0 -281 -223 -281q-95 0 -149 55t-54 151v318h86v-313q0 -66 31 -100t88 -34q76 0 105.5 53.5t29.5 147.5q0 120 -20 246z" />
    <glyph glyph-name="omicrontonos" unicode="&#x3cc;" horiz-adv-x="580" 
d="M318 557h-66l33 193h81zM451 253q0 90 -44 142.5t-116 52.5t-117 -52t-45 -143q0 -90 44 -142t116 -52q73 0 117.5 51.5t44.5 142.5zM543 253q0 -126 -71.5 -198.5t-182.5 -72.5q-109 0 -180 72.5t-71 198.5t71 198.5t182 72.5q109 0 180.5 -72.5t71.5 -198.5z" />
    <glyph glyph-name="upsilontonos" unicode="&#x3cd;" horiz-adv-x="585" 
d="M320 557h-66l33 193h81zM401 506h89q17 -138 17 -243q0 -281 -223 -281q-95 0 -149 55t-54 151v318h86v-313q0 -66 31 -100t88 -34q76 0 105.5 53.5t29.5 147.5q0 120 -20 246z" />
    <glyph glyph-name="omegatonos" unicode="&#x3ce;" horiz-adv-x="776" 
d="M423 557h-66l33 193h81zM531 -18q-50 0 -87 22t-55 60h-2q-18 -38 -54.5 -60t-86.5 -22q-90 0 -137.5 74.5t-47.5 186.5q0 149 67 263h96q-38 -63 -54 -123t-16 -139q0 -81 25 -133.5t76 -52.5q90 0 90 119v189h86v-189q0 -58 24 -88.5t67 -30.5q51 0 76 52.5t25 133.5
q0 79 -16 139t-54 123h95q68 -117 68 -263q0 -112 -47.5 -186.5t-137.5 -74.5z" />
    <glyph glyph-name="uni0400" unicode="&#x400;" horiz-adv-x="543" 
d="M475 0h-376v682h148l-94 118h93l76 -118h127v-86h-258v-202h248v-87h-248v-221h284v-86z" />
    <glyph glyph-name="uni0401" unicode="&#x401;" horiz-adv-x="543" 
d="M211 732h-88v77h88v-77zM418 732h-88v77h88v-77zM475 0h-376v682h350v-86h-258v-202h248v-87h-248v-221h284v-86z" />
    <glyph glyph-name="uni0402" unicode="&#x402;" horiz-adv-x="716" 
d="M433 7v84q22 -7 45 -7q42 0 69.5 28.5t27.5 85.5q0 63 -37.5 91t-111.5 28h-112v-317h-91v596h-193v86h554v-86h-270v-194h108q246 0 246 -204q0 -99 -54 -148.5t-129 -49.5q-36 0 -52 7z" />
    <glyph glyph-name="uni0403" unicode="&#x403;" horiz-adv-x="485" 
d="M306 682h-75l76 118h93zM191 0h-92v682h356v-86h-264v-596z" />
    <glyph glyph-name="uni0404" unicode="&#x404;" horiz-adv-x="654" 
d="M368 -18q-136 0 -228 94.5t-92 264.5q0 168 90 263.5t227 95.5q127 0 217 -77v-103h-3q-82 94 -205 94q-96 0 -160.5 -59.5t-66.5 -161.5h388v-86h-388q0 -112 63 -175.5t164 -63.5q127 0 209 96h3v-105q-87 -77 -218 -77z" />
    <glyph glyph-name="uni0405" unicode="&#x405;" 
d="M482 174q0 -83 -58 -137.5t-159 -54.5q-121 0 -194 66v104h3q70 -86 185 -86q62 0 97 26.5t35 74.5q0 33 -17.5 58.5t-45.5 41.5t-61.5 30.5t-67.5 31.5t-62 39t-45.5 58.5t-17.5 84.5q0 80 52 134.5t153 54.5q110 0 179 -66v-103h-3q-66 85 -170 85q-57 0 -88 -26
t-31 -70q0 -45 32.5 -75t79 -49.5t93 -42t79 -67.5t32.5 -112z" />
    <glyph glyph-name="uni0406" unicode="&#x406;" horiz-adv-x="290" 
d="M191 0h-91v682h91v-682z" />
    <glyph glyph-name="uni0407" unicode="&#x407;" horiz-adv-x="292" 
d="M191 0h-91v682h91v-682zM87 732h-88v77h88v-77zM294 732h-88v77h88v-77z" />
    <glyph glyph-name="uni0408" unicode="&#x408;" horiz-adv-x="420" 
d="M162 -18q-63 0 -105 33v99h4q33 -45 86 -45q93 0 93 119v407h-188v5l41 82h237v-509q0 -88 -41.5 -139.5t-126.5 -51.5z" />
    <glyph glyph-name="uni0409" unicode="&#x409;" horiz-adv-x="937" 
d="M889 210q0 -210 -253 -210h-191v596h-166l-17 -244q-13 -197 -67.5 -278t-166.5 -84v88q40 0 66.5 20t42.5 62.5t24 94.5t13 131l20 296h341v-263h101q120 0 186.5 -52t66.5 -157zM796 210q0 61 -41.5 92.5t-117.5 31.5h-102v-249h102q159 0 159 125z" />
    <glyph glyph-name="uni040A" unicode="&#x40a;" horiz-adv-x="1000" 
d="M952 200q0 -200 -254 -200h-191v311h-316v-311h-92v682h92v-285h316v285h90v-285h101q121 0 187.5 -48.5t66.5 -148.5zM859 200q0 112 -160 112h-102v-227h102q160 0 160 115z" />
    <glyph glyph-name="uni040B" unicode="&#x40b;" horiz-adv-x="731" 
d="M676 0h-91v180q0 134 -167 134h-105v-314h-91v596h-192v86h503v-86h-220v-197h114q119 0 184 -51t65 -155v-193z" />
    <glyph glyph-name="uni040C" unicode="&#x40c;" horiz-adv-x="610" 
d="M347 682h-75l76 118h93zM191 0h-92v682h92v-682zM589 0h-112l-270 343v4l260 335h110l-263 -334v-2z" />
    <glyph glyph-name="uni040D" unicode="&#x40d;" horiz-adv-x="753" 
d="M417 682h-75l-94 118h93zM654 0h-92v536h-1l-382 -548h-80v694h92v-536h1l382 548h80v-694z" />
    <glyph glyph-name="uni040E" unicode="&#x40e;" horiz-adv-x="584" 
d="M297 700q-61 0 -99 29t-46 80h66q12 -53 79 -53t78 53h67q-8 -51 -46 -80t-99 -29zM265 0h-98l84 187l-239 495h105l181 -390h1l176 390h96z" />
    <glyph glyph-name="uni040F" unicode="&#x40f;" horiz-adv-x="743" 
d="M644 0h-230v-142h-85v142h-230v682h92v-596h361v596h92v-682z" />
    <glyph glyph-name="uni0410" unicode="&#x410;" horiz-adv-x="667" 
d="M652 0h-101l-83 213h-272l-83 -213h-97l279 700h77zM437 294l-105 274h-1l-105 -274h211z" />
    <glyph glyph-name="uni0411" unicode="&#x411;" horiz-adv-x="604" 
d="M548 207q0 -207 -251 -207h-198v682h377v-86h-285v-187h106q251 0 251 -202zM455 207q0 117 -158 117h-106v-239h106q158 0 158 122z" />
    <glyph glyph-name="uni0412" unicode="&#x412;" horiz-adv-x="613" 
d="M548 184q0 -184 -245 -184h-204v682h195q98 0 156.5 -45.5t58.5 -128.5q0 -108 -98 -158v-1q58 -13 97.5 -56t39.5 -109zM454 197q0 51 -39 79t-105 28h-119v-223h109q154 0 154 116zM415 494q0 50 -36 79t-97 29h-91v-220h130q94 30 94 112z" />
    <glyph glyph-name="uni0413" unicode="&#x413;" horiz-adv-x="485" 
d="M191 0h-92v682h356v-86h-264v-596z" />
    <glyph glyph-name="uni0414" unicode="&#x414;" horiz-adv-x="720" 
d="M671 -142h-85v142h-474v-142h-85v228h68q43 69 63.5 136t27.5 169l18 291h392v-596h75v-228zM506 86v511h-217l-14 -216q-6 -100 -25.5 -166t-56.5 -129h313z" />
    <glyph glyph-name="uni0415" unicode="&#x415;" horiz-adv-x="543" 
d="M475 0h-376v682h350v-86h-258v-203h248v-86h-248v-221h284v-86z" />
    <glyph glyph-name="uni0416" unicode="&#x416;" horiz-adv-x="889" 
d="M132 0h-112l255 346v2l-244 334h110l241 -335v-4zM490 0h-91v682h91v-682zM869 0h-112l-250 343v4l241 335h110l-244 -334v-2z" />
    <glyph glyph-name="uni0417" unicode="&#x417;" horiz-adv-x="562" 
d="M258 -18q-114 0 -187 52v99h3q30 -33 78 -51.5t99 -18.5q68 0 110.5 31t42.5 91q0 55 -40 84.5t-112 29.5h-106v84h122q96 36 96 117q0 57 -36.5 88t-96.5 31q-90 0 -153 -70h-3v99q69 52 168 52q96 0 155.5 -50t59.5 -137q0 -110 -98 -163v-1q57 -13 97 -58t40 -117
q0 -93 -66 -142.5t-173 -49.5z" />
    <glyph glyph-name="uni0418" unicode="&#x418;" horiz-adv-x="753" 
d="M654 0h-92v536h-1l-382 -548h-80v694h92v-536h1l382 548h80v-694z" />
    <glyph glyph-name="uni0419" unicode="&#x419;" horiz-adv-x="753" 
d="M379 700q-61 0 -99 29t-46 80h66q12 -53 79 -53t78 53h67q-8 -51 -46 -80t-99 -29zM654 0h-92v536h-1l-382 -548h-80v694h92v-536h1l382 548h80v-694z" />
    <glyph glyph-name="uni041A" unicode="&#x41a;" horiz-adv-x="610" 
d="M191 0h-92v682h92v-682zM589 0h-112l-270 343v4l260 335h110l-263 -334v-2z" />
    <glyph glyph-name="uni041B" unicode="&#x41b;" horiz-adv-x="691" 
d="M586 0h-91v596h-216l-17 -244q-13 -197 -67.5 -278t-166.5 -84v88q40 0 66.5 20t42.5 62.5t24 94.5t13 131l20 296h392v-682z" />
    <glyph glyph-name="uni041C" unicode="&#x41c;" horiz-adv-x="872" 
d="M788 0h-92l-41 467h-1l-215 -485h-7l-216 486h-1l-39 -468h-92l60 694h70l222 -518h1l221 518h70z" />
    <glyph glyph-name="uni041D" unicode="&#x41d;" horiz-adv-x="753" 
d="M654 0h-92v310h-371v-310h-92v682h92v-286h371v286h92v-682z" />
    <glyph glyph-name="uni041E" unicode="&#x41e;" horiz-adv-x="742" 
d="M694 341q0 -168 -92.5 -263.5t-231.5 -95.5q-136 0 -229 95.5t-93 263.5t93 263.5t231 95.5q136 0 229 -95.5t93 -263.5zM599 341q0 129 -64.5 201t-162.5 72t-163 -71.5t-65 -201.5q0 -129 64 -201t162 -72q99 0 164 71.5t65 201.5z" />
    <glyph glyph-name="uni041F" unicode="&#x41f;" horiz-adv-x="743" 
d="M644 0h-92v596h-361v-596h-92v682h545v-682z" />
    <glyph glyph-name="uni0420" unicode="&#x420;" horiz-adv-x="586" 
d="M534 472q0 -107 -80 -172t-263 -79v-221h-92v682h194q105 0 173 -54.5t68 -155.5zM440 465q0 62 -42 97t-111 35h-96v-290q249 12 249 158z" />
    <glyph glyph-name="uni0421" unicode="&#x421;" horiz-adv-x="614" 
d="M559 165v-110q-86 -73 -207 -73q-133 0 -218.5 95t-85.5 264q0 167 84 263t217 96q123 0 206 -73v-110h-4q-70 96 -188 96q-100 0 -159.5 -73.5t-59.5 -198.5t60.5 -198.5t162.5 -73.5q57 0 106.5 26t81.5 70h4z" />
    <glyph glyph-name="uni0422" unicode="&#x422;" horiz-adv-x="535" 
d="M313 0h-91v596h-192v86h475v-86h-192v-596z" />
    <glyph glyph-name="uni0423" unicode="&#x423;" horiz-adv-x="584" 
d="M265 0h-98l84 187l-239 495h105l181 -390h1l176 390h96z" />
    <glyph glyph-name="uni0424" unicode="&#x424;" horiz-adv-x="783" 
d="M438 -12h-91v62q-133 6 -217 81.5t-84 209.5q0 133 83.5 208t217.5 82v63h91v-63q133 -7 216 -82t83 -208q0 -134 -83 -209t-216 -82v-62zM349 135v412q-94 -5 -150.5 -59.5t-56.5 -146.5q0 -93 56.5 -147.5t150.5 -58.5zM437 135q92 4 148 58.5t56 147.5q0 92 -56 146.5
t-148 59.5v-412z" />
    <glyph glyph-name="uni0425" unicode="&#x425;" horiz-adv-x="665" 
d="M631 0h-112l-191 278h-1l-174 -278h-110l220 347l-229 335h110l185 -271h1l175 271h109l-219 -337z" />
    <glyph glyph-name="uni0426" unicode="&#x426;" horiz-adv-x="757" 
d="M707 -142h-85v142h-523v682h92v-596h351v596h92v-596h73v-228z" />
    <glyph glyph-name="uni0427" unicode="&#x427;" horiz-adv-x="624" 
d="M525 0h-91v221q-97 5 -165 19.5t-109.5 34.5t-64 53t-30 67.5t-7.5 85.5v201h91v-196q0 -36 5.5 -60.5t23 -47.5t48.5 -36.5t82.5 -23t125.5 -12.5v376h91v-682z" />
    <glyph glyph-name="uni0428" unicode="&#x428;" horiz-adv-x="998" 
d="M899 0h-800v682h92v-596h263v596h91v-596h264v596h90v-682z" />
    <glyph glyph-name="uni0429" unicode="&#x429;" horiz-adv-x="1023" 
d="M973 -142h-85v142h-789v682h92v-596h263v596h91v-596h264v596h90v-596h74v-228z" />
    <glyph glyph-name="uni042A" unicode="&#x42a;" horiz-adv-x="719" 
d="M671 213q0 -213 -251 -213h-197v595h-193v86h283v-259h107q119 0 185 -51.5t66 -157.5zM578 213q0 124 -161 124h-104v-251h104q161 0 161 127z" />
    <glyph glyph-name="uni042B" unicode="&#x42b;" horiz-adv-x="806" 
d="M530 210q0 -210 -253 -210h-178v682h92v-263h86q120 0 186.5 -51.5t66.5 -157.5zM438 210q0 124 -160 124h-87v-249h87q160 0 160 125zM706 0h-91v682h91v-682z" />
    <glyph glyph-name="uni042C" unicode="&#x42c;" horiz-adv-x="595" 
d="M548 213q0 -108 -65.5 -160.5t-185.5 -52.5h-198v682h92v-260h106q118 0 184.5 -51.5t66.5 -157.5zM455 213q0 124 -160 124h-104v-251h104q160 0 160 127z" />
    <glyph glyph-name="uni042D" unicode="&#x42d;" horiz-adv-x="654" 
d="M286 -18q-131 0 -218 77v105h3q84 -96 210 -96q100 0 163 63.5t64 175.5h-389v86h389q-3 102 -67.5 161.5t-159.5 59.5q-124 0 -206 -94h-3v103q90 77 217 77q137 0 227 -95.5t90 -263.5q0 -170 -92 -264.5t-228 -94.5z" />
    <glyph glyph-name="uni042E" unicode="&#x42e;" horiz-adv-x="1005" 
d="M633 -18q-128 0 -219 86t-100 242h-123v-310h-92v682h92v-286h125q11 99 59 169t114.5 102.5t145.5 32.5q136 0 229.5 -95.5t93.5 -263.5t-93 -263.5t-232 -95.5zM633 68q99 0 164 71.5t65 201.5q0 129 -64.5 201t-162.5 72q-99 0 -164 -71.5t-65 -201.5
q0 -129 64.5 -201t162.5 -72z" />
    <glyph glyph-name="uni042F" unicode="&#x42f;" horiz-adv-x="609" 
d="M516 0h-91v597h-90q-73 0 -114 -33t-41 -90q0 -63 49 -100.5t178 -56.5v-5l-260 -312h-113l231 272v2q-95 29 -137 80t-42 130q0 95 64.5 146.5t172.5 51.5h193v-682z" />
    <glyph glyph-name="uni0430" unicode="&#x430;" horiz-adv-x="545" 
d="M465 0h-84v40h-1q-65 -58 -152 -58q-74 0 -122 43t-48 116q0 75 49.5 119.5t138.5 44.5q76 0 133 -34v51q0 64 -37.5 95t-98.5 31q-44 0 -84.5 -20t-66.5 -51h-3v90q71 57 171 57q92 0 148.5 -50t56.5 -149v-325zM379 114v87q-50 32 -118 32q-56 0 -86.5 -22.5
t-30.5 -64.5q0 -39 29 -64t82 -25q73 0 124 57z" />
    <glyph glyph-name="uni0431" unicode="&#x431;" horiz-adv-x="587" 
d="M549 253q0 -126 -69 -198.5t-180 -72.5q-117 0 -184.5 83t-67.5 237q0 139 32 229q23 70 59 109.5t102 57.5q26 7 122.5 18.5t135.5 40.5h3v-86q-37 -21 -124 -33.5t-104 -16.5q-64 -16 -94.5 -65.5t-42.5 -136.5l2 -1q24 45 69.5 71t101.5 26q102 0 170.5 -68.5
t68.5 -193.5zM458 251q0 88 -43.5 137t-115.5 49q-76 0 -118 -51.5t-42 -121.5q0 -88 41 -146.5t119 -58.5q71 0 115 52t44 140z" />
    <glyph glyph-name="uni0432" unicode="&#x432;" horiz-adv-x="534" 
d="M484 136q0 -136 -182 -136h-216v506h209q73 0 116.5 -34.5t43.5 -95.5q0 -82 -80 -115v-1q49 -9 79 -41.5t30 -82.5zM392 146q0 37 -27.5 55.5t-75.5 18.5h-117v-148h109q111 0 111 74zM363 366q0 31 -25.5 49.5t-69.5 18.5h-96v-145h123q68 23 68 77z" />
    <glyph glyph-name="uni0433" unicode="&#x433;" horiz-adv-x="434" 
d="M172 0h-86v506h321v-76h-235v-430z" />
    <glyph glyph-name="uni0434" unicode="&#x434;" horiz-adv-x="591" 
d="M548 -142h-80v142h-373v-142h-81v219h55q33 53 48.5 101.5t19.5 124.5l13 203h331v-429h67v-219zM395 77v353h-167l-10 -147q-7 -117 -59 -206h236z" />
    <glyph glyph-name="uni0435" unicode="&#x435;" horiz-adv-x="547" 
d="M476 39q-73 -57 -179 -57q-114 0 -186.5 71.5t-72.5 199.5q0 126 65.5 198.5t171.5 72.5q96 0 160.5 -65t64.5 -170q0 -19 -2 -49h-368q4 -87 53 -134.5t130 -47.5q98 0 160 69h3v-88zM410 312q-2 59 -39.5 97.5t-95.5 38.5q-60 0 -98.5 -35.5t-46.5 -100.5h280z" />
    <glyph glyph-name="uni0436" unicode="&#x436;" horiz-adv-x="721" 
d="M122 0h-105l189 256v2l-177 248h101l175 -248v-3zM404 0h-86v506h86v-506zM704 0h-105l-183 255v3l175 248h103l-178 -248v-2z" />
    <glyph glyph-name="uni0437" unicode="&#x437;" horiz-adv-x="463" 
d="M418 132q0 -71 -54 -110.5t-143 -39.5q-115 0 -171 49v91h3q52 -68 149 -68q58 0 91 23.5t33 62.5q0 40 -29.5 62t-85.5 22h-105v72h121q67 25 67 81q0 32 -26.5 53.5t-71.5 21.5q-87 0 -138 -68h-3v90q55 50 156 50q82 0 129.5 -36t47.5 -100q0 -77 -76 -119v-1
q106 -30 106 -136z" />
    <glyph glyph-name="uni0438" unicode="&#x438;" horiz-adv-x="609" 
d="M522 0h-86v377h-1l-273 -389h-76v518h86v-377h1l273 390h76v-519z" />
    <glyph glyph-name="uni0439" unicode="&#x439;" horiz-adv-x="609" 
d="M309 592q-74 0 -116 43.5t-49 114.5h68q8 -45 32.5 -72t64.5 -27t65 27t32 72h68q-7 -71 -49 -114.5t-116 -43.5zM522 0h-86v377h-1l-273 -389h-76v518h86v-377h1l273 390h76v-519z" />
    <glyph glyph-name="uni043A" unicode="&#x43a;" horiz-adv-x="511" 
d="M172 0h-86v506h86v-506zM494 0h-106l-203 255v3l195 248h102l-197 -248v-2z" />
    <glyph glyph-name="uni043B" unicode="&#x43b;" horiz-adv-x="557" 
d="M471 0h-86v430h-163l-12 -165q-11 -148 -54 -211.5t-136 -63.5v76q57 0 80 55t30 172l14 213h327v-506z" />
    <glyph glyph-name="uni043C" unicode="&#x43c;" horiz-adv-x="694" 
d="M626 0h-85l-29 329h-1l-160 -343h-8l-160 344h-1l-28 -330h-85l44 519h76l159 -362h1l157 362h75z" />
    <glyph glyph-name="uni043D" unicode="&#x43d;" horiz-adv-x="607" 
d="M521 0h-86v224h-263v-224h-86v506h86v-206h263v206h86v-506z" />
    <glyph glyph-name="uni043E" unicode="&#x43e;" horiz-adv-x="580" 
d="M451 253q0 90 -44 142.5t-116 52.5t-117 -52t-45 -143q0 -90 44 -142t116 -52q73 0 117.5 51.5t44.5 142.5zM543 253q0 -126 -71.5 -198.5t-182.5 -72.5q-109 0 -180 72.5t-71 198.5t71 198.5t182 72.5q109 0 180.5 -72.5t71.5 -198.5z" />
    <glyph glyph-name="uni043F" unicode="&#x43f;" horiz-adv-x="597" 
d="M511 0h-86v430h-253v-430h-86v506h425v-506z" />
    <glyph glyph-name="uni0440" unicode="&#x440;" horiz-adv-x="599" 
d="M559 253q0 -126 -67.5 -198.5t-174.5 -72.5q-84 0 -144 42h-1v-217h-86v699h85v-42h1q66 60 158 60q101 0 165 -73t64 -198zM468 253q0 90 -45 141.5t-118 51.5q-81 0 -133 -62v-274q52 -50 126 -50q78 0 124 50.5t46 142.5z" />
    <glyph glyph-name="uni0441" unicode="&#x441;" horiz-adv-x="469" 
d="M427 132v-94q-66 -56 -157 -56q-100 0 -166 72t-66 199q0 125 64.5 198t165.5 73q95 0 156 -55v-94h-3q-53 72 -140 72q-70 0 -111 -53t-41 -141q0 -89 43.5 -141.5t116.5 -52.5q83 0 135 73h3z" />
    <glyph glyph-name="uni0442" unicode="&#x442;" horiz-adv-x="422" 
d="M254 0h-86v430h-141v76h368v-76h-141v-430z" />
    <glyph glyph-name="uni0443" unicode="&#x443;" horiz-adv-x="523" 
d="M240 -193h-94l78 194l-215 505h98l160 -394h1l141 394h95z" />
    <glyph glyph-name="uni0444" unicode="&#x444;" horiz-adv-x="761" 
d="M721 253q0 -120 -55 -195.5t-155 -75.5q-44 0 -87 15v-190h-86v190q-52 -15 -88 -15q-100 0 -155.5 75.5t-55.5 195.5q0 119 55.5 195t155.5 76q46 0 88 -14v240h86v-240q38 14 87 14q100 0 155 -76t55 -195zM338 74v358q-32 14 -68 14q-66 0 -102.5 -52t-36.5 -141
t36.5 -141t102.5 -52q32 0 68 14zM630 253q0 89 -36.5 141t-102.5 52q-36 0 -67 -14v-358q34 -14 67 -14q66 0 102.5 52t36.5 141z" />
    <glyph glyph-name="uni0445" unicode="&#x445;" horiz-adv-x="516" 
d="M501 0h-103l-142 197h-1l-130 -197h-100l170 256l-179 250h102l138 -194h1l132 194h100l-172 -250z" />
    <glyph glyph-name="uni0446" unicode="&#x446;" horiz-adv-x="601" 
d="M560 -142h-80v142h-394v506h86v-430h241v430h86v-430h61v-218z" />
    <glyph glyph-name="uni0447" unicode="&#x447;" horiz-adv-x="522" 
d="M435 0h-86v156q-119 6 -186 31t-90.5 62.5t-23.5 98.5v158h88v-141q0 -32 7 -52t29 -37.5t65 -27t111 -12.5v270h86v-506z" />
    <glyph glyph-name="uni0448" unicode="&#x448;" horiz-adv-x="852" 
d="M766 0h-680v506h86v-429h211v429h86v-429h211v429h86v-506z" />
    <glyph glyph-name="uni0449" unicode="&#x449;" horiz-adv-x="876" 
d="M834 -142h-81v142h-667v506h86v-430h211v430h86v-430h211v430h86v-430h68v-218z" />
    <glyph glyph-name="uni044A" unicode="&#x44a;" horiz-adv-x="583" 
d="M448 161q0 40 -27 62t-79 22h-96v-173h89q113 0 113 89zM539 160q0 -78 -47.5 -119t-135.5 -41h-196v430h-133v76h219v-189h122q82 0 126.5 -43t44.5 -114z" />
    <glyph glyph-name="uni044B" unicode="&#x44b;" horiz-adv-x="688" 
d="M447 159q0 -77 -48 -118t-135 -41h-178v506h86v-190h103q80 0 126 -43t46 -114zM355 159q0 85 -106 85h-77v-172h71q112 0 112 87zM602 0h-86v506h86v-506z" />
    <glyph glyph-name="uni044C" unicode="&#x44c;" horiz-adv-x="509" 
d="M465 160q0 -76 -48.5 -118t-134.5 -42h-196v506h86v-189h116q83 0 130 -43.5t47 -113.5zM374 159q0 43 -28 65t-78 22h-96v-174h89q113 0 113 87z" />
    <glyph glyph-name="uni044D" unicode="&#x44d;" horiz-adv-x="521" 
d="M227 -18q-103 0 -173 56v92h3q59 -72 163 -72q78 0 125.5 44.5t47.5 121.5h-289v72h289q-4 69 -50 110.5t-120 41.5q-104 0 -161 -72h-3v92q67 56 174 56q109 0 179.5 -72t70.5 -199q0 -122 -70.5 -196.5t-185.5 -74.5z" />
    <glyph glyph-name="uni044E" unicode="&#x44e;" horiz-adv-x="796" 
d="M505 -18q-101 0 -170 64t-77 178h-86v-224h-86v506h86v-205h88q13 105 81 164t166 59q109 0 180.5 -72.5t71.5 -198.5t-71.5 -198.5t-182.5 -72.5zM505 59q73 0 117.5 51.5t44.5 142.5q0 90 -44 142.5t-116 52.5t-117 -52t-45 -143q0 -90 44 -142t116 -52z" />
    <glyph glyph-name="uni044F" unicode="&#x44f;" horiz-adv-x="528" 
d="M442 0h-86v430h-96q-53 0 -82.5 -20.5t-29.5 -59.5q0 -46 42 -72.5t153 -43.5v-4l-212 -230h-110l195 199v1q-160 37 -160 161q0 70 48.5 107.5t129.5 37.5h208v-506z" />
    <glyph glyph-name="uni0450" unicode="&#x450;" horiz-adv-x="547" 
d="M476 39q-73 -57 -179 -57q-114 0 -186.5 71.5t-72.5 199.5q0 126 65.5 198.5t171.5 72.5q96 0 160.5 -65t64.5 -170q0 -19 -2 -49h-368q4 -87 53 -134.5t130 -47.5q98 0 160 69h3v-88zM410 312q-2 59 -39.5 97.5t-95.5 38.5q-60 0 -98.5 -35.5t-46.5 -100.5h280zM331 558
h-77l-139 192h93z" />
    <glyph glyph-name="uni0451" unicode="&#x451;" horiz-adv-x="547" 
d="M214 665h-88v85h88v-85zM421 665h-88v85h88v-85zM476 39q-73 -57 -179 -57q-114 0 -186.5 71.5t-72.5 199.5q0 126 65.5 198.5t171.5 72.5q96 0 160.5 -65t64.5 -170q0 -19 -2 -49h-368q4 -87 53 -134.5t130 -47.5q98 0 160 69h3v-88zM410 312q-2 59 -39.5 97.5
t-95.5 38.5q-60 0 -98.5 -35.5t-46.5 -100.5h280z" />
    <glyph glyph-name="uni0452" unicode="&#x452;" horiz-adv-x="590" 
d="M423 -16v330q0 65 -34 98.5t-89 33.5q-76 0 -128 -62v-384h-86v596h-86v69h86v85h86v-85h207v-69h-207v-131h1q65 59 152 59q80 0 132 -47t52 -136v-368q0 -79 -37.5 -122.5t-100.5 -43.5q-41 0 -76 16v77h3q21 -18 53 -18t52 25.5t20 76.5z" />
    <glyph glyph-name="uni0453" unicode="&#x453;" horiz-adv-x="434" 
d="M282 557h-77l125 193h91zM172 0h-86v506h321v-76h-235v-430z" />
    <glyph glyph-name="uni0454" unicode="&#x454;" horiz-adv-x="521" 
d="M294 -18q-115 0 -185.5 74.5t-70.5 196.5q0 127 70.5 199t179.5 72t174 -56v-92h-3q-57 72 -161 72q-74 0 -120 -41.5t-50 -110.5h290v-72h-290q0 -77 47.5 -121.5t125.5 -44.5q104 0 163 72h3v-92q-68 -56 -173 -56z" />
    <glyph glyph-name="uni0455" unicode="&#x455;" horiz-adv-x="451" 
d="M390 131q0 -68 -45 -108.5t-129 -40.5q-95 0 -152 49v90h3q55 -67 147 -67q42 0 67 19.5t25 50.5q0 27 -18 47t-44.5 30.5t-57.5 25t-57.5 30.5t-44.5 47.5t-18 74.5q0 65 41.5 105t120.5 40q89 0 144 -49v-90h-3q-55 67 -135 67q-40 0 -61 -19t-21 -49q0 -31 24.5 -51.5
t59.5 -34t70 -30t59.5 -51t24.5 -86.5z" />
    <glyph glyph-name="uni0456" unicode="&#x456;" horiz-adv-x="258" 
d="M172 0h-86v506h86v-506zM176 665h-94v85h94v-85z" />
    <glyph glyph-name="uni0457" unicode="&#x457;" horiz-adv-x="258" 
d="M172 0h-86v506h86v-506zM70 665h-88v85h88v-85zM277 665h-88v85h88v-85z" />
    <glyph glyph-name="uni0458" unicode="&#x458;" horiz-adv-x="258" 
d="M29 -193q-58 0 -96 27v84h3q31 -34 75 -34q35 0 55 23.5t20 70.5v528h86v-530q0 -82 -38.5 -125.5t-104.5 -43.5zM176 665h-94v85h94v-85z" />
    <glyph glyph-name="uni0459" unicode="&#x459;" horiz-adv-x="756" 
d="M712 158q0 -77 -49 -117.5t-137 -40.5h-175v430h-129l-11 -165q-11 -145 -54.5 -207t-137.5 -62v76q40 0 63.5 28t33 72.5t14.5 120.5l13 213h294v-194h100q82 0 128.5 -41.5t46.5 -112.5zM621 158q0 82 -106 82h-78v-168h71q113 0 113 86z" />
    <glyph glyph-name="uni045A" unicode="&#x45a;" horiz-adv-x="805" 
d="M761 154q0 -72 -48 -113t-135 -41h-178v224h-228v-224h-86v506h86v-206h228v206h86v-200h103q80 0 126 -42.5t46 -109.5zM669 154q0 38 -26.5 59t-78.5 21h-78v-162h70q113 0 113 82z" />
    <glyph glyph-name="uni045B" unicode="&#x45b;" horiz-adv-x="590" 
d="M509 0h-86v314q0 65 -34 98.5t-89 33.5q-76 0 -128 -62v-384h-86v596h-86v69h86v85h86v-85h207v-69h-207v-131h1q64 59 152 59q80 0 132 -47t52 -136v-341z" />
    <glyph glyph-name="uni045C" unicode="&#x45c;" horiz-adv-x="510" 
d="M309 557h-77l125 193h91zM172 0h-86v506h86v-506zM494 0h-106l-203 255v3l195 248h102l-197 -248v-2z" />
    <glyph glyph-name="uni045D" unicode="&#x45d;" horiz-adv-x="609" 
d="M522 0h-86v377h-1l-273 -389h-76v518h86v-377h1l273 390h76v-519zM360 558h-77l-139 192h93z" />
    <glyph glyph-name="uni045E" unicode="&#x45e;" horiz-adv-x="523" 
d="M266 592q-74 0 -116 43.5t-49 114.5h68q8 -45 32.5 -72t64.5 -27t65 27t32 72h68q-7 -71 -49 -114.5t-116 -43.5zM240 -193h-94l78 194l-215 505h98l160 -394h1l141 394h95z" />
    <glyph glyph-name="uni045F" unicode="&#x45f;" horiz-adv-x="597" 
d="M339 -142h-81v142h-172v506h86v-430h253v430h86v-506h-172v-142z" />
    <glyph glyph-name="uni0462" unicode="&#x462;" horiz-adv-x="715" 
d="M667 206q0 -103 -66 -154.5t-187 -51.5h-192v535h-192v86h192v61h91v-61h232v-86h-232v-125h100q120 0 187 -51t67 -153zM574 206q0 119 -157 119h-104v-240h104q157 0 157 121z" />
    <glyph glyph-name="uni0463" unicode="&#x463;" horiz-adv-x="584" 
d="M540 154q0 -73 -48 -113.5t-135 -40.5h-192v436h-138v70h138v177h86v-177h183v-70h-183v-129h117q80 0 126 -42t46 -111zM449 155q0 80 -105 80h-93v-163h86q112 0 112 83z" />
    <glyph glyph-name="uni0472" unicode="&#x472;" horiz-adv-x="742" 
d="M694 341q0 -168 -92.5 -263.5t-231.5 -95.5q-136 0 -229 95.5t-93 263.5t93 263.5t231 95.5q136 0 229 -95.5t93 -263.5zM370 68q92 0 155.5 62.5t72.5 176.5h-453q9 -113 71.5 -176t153.5 -63zM372 614q-87 0 -149.5 -57.5t-75.5 -163.5h449q-13 105 -75 163t-149 58z
" />
    <glyph glyph-name="uni0473" unicode="&#x473;" horiz-adv-x="580" 
d="M543 253q0 -126 -71.5 -198.5t-182.5 -72.5q-109 0 -180 72.5t-71 198.5t71 198.5t182 72.5q109 0 180.5 -72.5t71.5 -198.5zM291 448q-64 0 -107 -41.5t-53 -115.5h317q-9 74 -51 115.5t-106 41.5zM289 59q65 0 107.5 41t51.5 115h-317q10 -74 52 -115t106 -41z" />
    <glyph glyph-name="uni0474" unicode="&#x474;" horiz-adv-x="646" 
d="M356 -18h-71l-273 700h101l209 -557h1l108 304q33 96 56 150.5t57 102.5h99q-59 -83 -127 -267z" />
    <glyph glyph-name="uni0475" unicode="&#x475;" horiz-adv-x="521" 
d="M291 -18h-61l-218 524h97l152 -392h1l75 209l8.5 25.5t9.5 28t9 26t11 28t11.5 25t13.5 27t15 23.5h98q-11 -15 -21.5 -32.5t-18 -31.5t-17 -35.5t-14 -33.5t-14 -36.5t-13.5 -34.5z" />
    <glyph glyph-name="uni0490" unicode="&#x490;" horiz-adv-x="485" 
d="M191 0h-92v682h271v139h85v-224h-264v-597z" />
    <glyph glyph-name="uni0491" unicode="&#x491;" horiz-adv-x="434" 
d="M172 0h-86v506h242v142h79v-218h-235v-430z" />
    <glyph glyph-name="uni0492" unicode="&#x492;" horiz-adv-x="485" 
d="M191 0h-92v286h-99v86h99v310h356v-86h-264v-224h166v-86h-166v-286z" />
    <glyph glyph-name="uni0493" unicode="&#x493;" horiz-adv-x="434" 
d="M172 0h-86v200h-74v71h74v235h321v-76h-235v-159h126v-71h-126v-200z" />
    <glyph glyph-name="uni0496" unicode="&#x496;" horiz-adv-x="916" 
d="M132 0h-112l255 346v2l-245 334h111l241 -335v-4zM490 0h-91v682h91v-682zM812 85h87v-227h-84v142h-58l-250 343v4l241 335h111l-245 -334v-2z" />
    <glyph glyph-name="uni0497" unicode="&#x497;" horiz-adv-x="768" 
d="M122 0h-105l189 256v2l-177 248h101l175 -248v-3zM404 0h-86v506h86v-506zM599 0l-183 255v3l175 248h102l-177 -248v-2l136 -180h82v-218h-82v142h-53z" />
    <glyph glyph-name="uni049A" unicode="&#x49a;" horiz-adv-x="633" 
d="M191 0h-92v682h92v-682zM528 85h89v-227h-85v142h-55l-270 343v4l260 335h109l-262 -334v-2z" />
    <glyph glyph-name="uni049B" unicode="&#x49b;" horiz-adv-x="555" 
d="M172 0h-86v506h86v-506zM436 76h85v-218h-82v142h-51l-203 255v3l194 248h103l-197 -248v-2z" />
    <glyph glyph-name="uni04A2" unicode="&#x4a2;" horiz-adv-x="777" 
d="M654 85h74v-227h-85v142h-81v310h-371v-310h-92v682h92v-286h371v286h92v-597z" />
    <glyph glyph-name="uni04A3" unicode="&#x4a3;" horiz-adv-x="631" 
d="M589 -142h-82v142h-72v224h-263v-224h-86v506h86v-206h263v206h86v-430h68v-218z" />
    <glyph glyph-name="uni04AE" unicode="&#x4ae;" horiz-adv-x="593" 
d="M342 0h-91v281l-242 401h109l178 -307h1l180 307h107l-242 -401v-281z" />
    <glyph glyph-name="uni04AF" unicode="&#x4af;" horiz-adv-x="521" 
d="M217 -192v192l-205 506h98l151 -396h1l151 396h96l-206 -506v-192h-86z" />
    <glyph glyph-name="uni04B0" unicode="&#x4b0;" horiz-adv-x="598" 
d="M346 0h-92v234h-124v73h109l-227 375h109l178 -307h1l180 307h107l-226 -375h112v-73h-127v-234z" />
    <glyph glyph-name="uni04B1" unicode="&#x4b1;" horiz-adv-x="521" 
d="M303 -192h-86v131h-131v76h125l-199 491h97l152 -402h1l150 402h97l-200 -491h127v-76h-133v-131z" />
    <glyph glyph-name="uni04B2" unicode="&#x4b2;" horiz-adv-x="678" 
d="M573 85h89v-227h-85v142h-57l-192 278h-1l-174 -278h-109l219 347l-229 335h110l185 -271h1l175 271h109l-220 -337z" />
    <glyph glyph-name="uni04B3" unicode="&#x4b3;" horiz-adv-x="568" 
d="M447 76h87v-218h-81v142h-55l-144 196h-1l-128 -196h-100l172 258l-181 248h102l140 -193h1l130 193h100l-174 -252z" />
    <glyph glyph-name="uni04B6" unicode="&#x4b6;" horiz-adv-x="647" 
d="M599 -142h-85v142h-80v221q-97 5 -165 19.5t-109.5 34.5t-64 53t-30 67.5t-7.5 85.5v201h91v-196q0 -36 5.5 -60.5t23 -47.5t48.5 -36.5t82.5 -23t125.5 -12.5v376h91v-597h74v-227z" />
    <glyph glyph-name="uni04B7" unicode="&#x4b7;" horiz-adv-x="547" 
d="M437 76h67v-218h-81v142h-72v156q-119 6 -186 31t-90.5 62.5t-23.5 98.5v158h88v-141q0 -32 7 -52t29 -37.5t65 -27t111 -13.5v271h86v-430z" />
    <glyph glyph-name="uni04BA" unicode="&#x4ba;" horiz-adv-x="608" 
d="M554 0h-92v201q0 134 -167 134h-104v-335h-92v683h92v-262h114q118 0 183.5 -51.5t65.5 -155.5v-214z" />
    <glyph glyph-name="uni04BB" unicode="&#x4bb;" horiz-adv-x="590" 
d="M509 0h-86v314q0 65 -34 98.5t-89 33.5q-76 0 -128 -62v-384h-86v750h86v-285h1q64 59 152 59q80 0 132 -47t52 -136v-341z" />
    <glyph glyph-name="uni04C0" unicode="&#x4c0;" horiz-adv-x="290" 
d="M191 0h-91v682h91v-682z" />
    <glyph glyph-name="uni04D8" unicode="&#x4d8;" horiz-adv-x="742" 
d="M104 624q97 76 236 76q151 0 247 -95t96 -264q0 -167 -86 -263t-226 -96q-128 0 -213 86t-85 225q0 40 2 59h495q-5 126 -72 193.5t-178 67.5q-134 0 -212 -96h-4v107zM186 265q2 -89 53 -143t133 -54q77 0 131 53t65 144h-382z" />
    <glyph glyph-name="uni04D9" unicode="&#x4d9;" horiz-adv-x="547" 
d="M64 468q72 56 180 56q114 0 186 -71.5t72 -199.5q0 -126 -65 -198.5t-171 -72.5q-96 0 -160.5 65t-64.5 170q0 34 2 49h368q-4 87 -53 134.5t-131 47.5q-100 0 -160 -69h-3v89zM131 194q2 -59 39.5 -97t96.5 -38t97 35t46 100h-279z" />
    <glyph glyph-name="uni04E2" unicode="&#x4e2;" horiz-adv-x="753" 
d="M530 747h-302v62h302v-62zM654 0h-92v536h-1l-382 -548h-80v694h92v-536h1l382 548h80v-694z" />
    <glyph glyph-name="uni04E3" unicode="&#x4e3;" horiz-adv-x="609" 
d="M522 0h-86v377h-1l-273 -389h-76v518h86v-377h1l273 390h76v-519zM467 668h-322v67h322v-67z" />
    <glyph glyph-name="uni04E8" unicode="&#x4e8;" horiz-adv-x="742" 
d="M694 341q0 -168 -92.5 -263.5t-231.5 -95.5q-136 0 -229 95.5t-93 263.5t93 263.5t231 95.5q136 0 229 -95.5t93 -263.5zM370 68q92 0 155.5 62.5t72.5 176.5h-453q9 -113 71.5 -176t153.5 -63zM372 614q-87 0 -149.5 -57.5t-75.5 -163.5h449q-13 105 -75 163t-149 58z
" />
    <glyph glyph-name="uni04E9" unicode="&#x4e9;" horiz-adv-x="580" 
d="M543 253q0 -126 -71.5 -198.5t-182.5 -72.5q-109 0 -180 72.5t-71 198.5t71 198.5t182 72.5q109 0 180.5 -72.5t71.5 -198.5zM291 448q-64 0 -107 -41.5t-53 -115.5h317q-9 74 -51 115.5t-106 41.5zM289 59q65 0 107.5 41t51.5 115h-317q10 -74 52 -115t106 -41z" />
    <glyph glyph-name="uni04EE" unicode="&#x4ee;" horiz-adv-x="584" 
d="M448 747h-302v62h302v-62zM265 0h-98l84 187l-239 495h105l181 -390h1l176 390h96z" />
    <glyph glyph-name="uni04EF" unicode="&#x4ef;" horiz-adv-x="523" 
d="M424 668h-322v67h322v-67zM240 -193h-94l78 194l-215 505h98l160 -394h1l141 394h95z" />
    <glyph glyph-name="Wgrave" unicode="&#x1e80;" horiz-adv-x="964" 
d="M696 -18h-71l-143 404h-1l-142 -404h-71l-245 700h99l187 -532h1l129 367l-57 165h47l-94 118h93l76 -118h-25l181 -532h1l184 532h97z" />
    <glyph glyph-name="wgrave" unicode="&#x1e81;" horiz-adv-x="814" 
d="M605 -18h-55l-142 349h-1l-142 -349h-56l-190 524h96l128 -363h1l160 381h8l159 -380h1l128 362h95zM447 558h-77l-139 192h93z" />
    <glyph glyph-name="Wacute" unicode="&#x1e82;" horiz-adv-x="964" 
d="M696 -18h-71l-143 404h-1l-142 -404h-71l-245 700h99l187 -532h1l129 367l-57 165h42l76 118h93l-94 -118h-20l181 -532h1l184 532h97z" />
    <glyph glyph-name="wacute" unicode="&#x1e83;" horiz-adv-x="814" 
d="M446 557h-77l125 193h91zM605 -18h-55l-142 349h-1l-142 -349h-56l-190 524h96l128 -363h1l160 381h8l159 -380h1l128 362h95z" />
    <glyph glyph-name="Wdieresis" unicode="&#x1e84;" horiz-adv-x="964" 
d="M419 732h-88v77h88v-77zM626 732h-88v77h88v-77zM696 -18h-71l-143 404h-1l-142 -404h-71l-245 700h99l187 -532h1l129 367l-57 165h97l181 -532h1l184 532h97z" />
    <glyph glyph-name="wdieresis" unicode="&#x1e85;" horiz-adv-x="814" 
d="M347 665h-88v85h88v-85zM554 665h-88v85h88v-85zM605 -18h-55l-142 349h-1l-142 -349h-56l-190 524h96l128 -363h1l160 381h8l159 -380h1l128 362h95z" />
    <glyph glyph-name="Ygrave" unicode="&#x1ef2;" horiz-adv-x="593" 
d="M342 0h-91v281l-242 401h109l178 -307h1l180 307h107l-242 -401v-281zM338 682h-75l-94 118h93z" />
    <glyph glyph-name="ygrave" unicode="&#x1ef3;" horiz-adv-x="523" 
d="M240 -193h-94l78 194l-215 505h98l160 -394h1l141 394h95zM299 558h-77l-139 192h93z" />
    <glyph glyph-name="endash" unicode="&#x2013;" 
d="M530 230h-520v71h520v-71z" />
    <glyph glyph-name="emdash" unicode="&#x2014;" horiz-adv-x="1080" 
d="M1070 230h-1050v71h1050v-71z" />
    <glyph glyph-name="quoteleft" unicode="&#x2018;" horiz-adv-x="270" 
d="M136 441h-80v5l75 236h79z" />
    <glyph glyph-name="quoteright" unicode="&#x2019;" horiz-adv-x="270" 
d="M140 441h-78l73 241h81v-5z" />
    <glyph glyph-name="quotesinglbase" unicode="&#x201a;" horiz-adv-x="270" 
d="M126 -138h-79l74 241h80v-5z" />
    <glyph glyph-name="quotedblleft" unicode="&#x201c;" horiz-adv-x="431" 
d="M139 441h-80v5l75 236h79zM305 441h-80v5l75 236h79z" />
    <glyph glyph-name="quotedblright" unicode="&#x201d;" horiz-adv-x="431" 
d="M137 441h-78l73 241h81v-5zM303 441h-78l73 241h81v-5z" />
    <glyph glyph-name="quotedblbase" unicode="&#x201e;" horiz-adv-x="431" 
d="M129 -138h-79l74 241h80v-5zM295 -138h-79l74 241h80v-5z" />
    <glyph glyph-name="dagger" unicode="&#x2020;" horiz-adv-x="530" 
d="M304 0h-78v442h-156v72h156v168h78v-168h156v-72h-156v-442z" />
    <glyph glyph-name="daggerdbl" unicode="&#x2021;" horiz-adv-x="530" 
d="M304 0h-78v168h-156v72h156v202h-156v72h156v168h78v-168h156v-72h-156v-202h156v-72h-156v-168z" />
    <glyph glyph-name="bullet" unicode="&#x2022;" horiz-adv-x="399" 
d="M314 132h-228v270h228v-270z" />
    <glyph glyph-name="ellipsis" unicode="&#x2026;" horiz-adv-x="1000" 
d="M241 0h-94v103h94v-103zM547 0h-94v103h94v-103zM853 0h-94v103h94v-103z" />
    <glyph glyph-name="perthousand" unicode="&#x2030;" horiz-adv-x="1179" 
d="M335 461q0 -119 -45 -176.5t-116 -57.5q-70 0 -115 57.5t-45 176.5t45 176t115 57q71 0 116 -57t45 -176zM265 461q0 170 -91 170q-90 0 -90 -170q0 -172 90 -172q91 0 91 172zM815 222q0 -119 -45 -176.5t-116 -57.5q-70 0 -115 57.5t-45 176.5t45 176t115 57
q71 0 116 -57t45 -176zM745 222q0 170 -91 170q-90 0 -90 -170q0 -172 90 -172q91 0 91 172zM1164 222q0 -119 -45 -176.5t-116 -57.5q-70 0 -115 57.5t-45 176.5t45 176t115 57q71 0 116 -57t45 -176zM1094 222q0 170 -91 170q-90 0 -90 -170q0 -172 90 -172q91 0 91 172z
M263 0h-71l375 682h71z" />
    <glyph glyph-name="guilsinglleft" unicode="&#x2039;" horiz-adv-x="297" 
d="M256 71h-80l-135 191v6l135 191h80l-129 -194z" />
    <glyph glyph-name="guilsinglright" unicode="&#x203a;" horiz-adv-x="297" 
d="M121 71h-80l129 194l-129 194h80l135 -191v-6z" />
    <glyph glyph-name="fraction" unicode="&#x2044;" horiz-adv-x="164" 
d="M-70 0h-71l375 682h71z" />
    <glyph glyph-name="zerosuperior" unicode="&#x2070;" horiz-adv-x="350" 
d="M335 517q0 -119 -45 -176.5t-116 -57.5q-70 0 -115 57.5t-45 176.5t45 176t115 57q71 0 116 -57t45 -176zM265 517q0 170 -91 170q-90 0 -90 -170q0 -172 90 -172q91 0 91 172z" />
    <glyph glyph-name="foursuperior" unicode="&#x2074;" horiz-adv-x="350" 
d="M341 387h-63v-92h-68v92h-200v45l219 318h49v-309h63v-54zM212 441v198h-1l-133 -197v-1h134z" />
    <glyph glyph-name="fivesuperior" unicode="&#x2075;" horiz-adv-x="350" 
d="M317 427q0 -69 -43.5 -106.5t-110.5 -37.5q-69 0 -118 35v66h2q40 -43 108 -43q41 0 66.5 22t25.5 63q0 40 -27 63t-76 23q-48 0 -88 -23h-2l39 249h210v-59h-161l-20 -123q23 10 49 10q64 0 105 -37t41 -102z" />
    <glyph glyph-name="sixsuperior" unicode="&#x2076;" horiz-adv-x="350" 
d="M331 424q0 -67 -43.5 -104t-112.5 -37q-71 0 -113.5 37.5t-42.5 103.5q0 48 25 88l146 226h82v-1l-120 -182v-1q26 9 57 6q55 -6 88.5 -42t33.5 -94zM262 424q0 40 -23 63.5t-64 23.5q-39 0 -63.5 -22.5t-24.5 -64.5q0 -38 23 -62t63 -24t64.5 22t24.5 64z" />
    <glyph glyph-name="sevensuperior" unicode="&#x2077;" horiz-adv-x="350" 
d="M123 296h-73v1l187 378h-216v64h315v-4z" />
    <glyph glyph-name="eightsuperior" unicode="&#x2078;" horiz-adv-x="350" 
d="M327 416q0 -62 -42 -97.5t-111 -35.5t-110.5 35.5t-41.5 97.5q0 85 75 114v1q-60 29 -60 100q0 56 37.5 87.5t99.5 31.5q63 0 100.5 -31.5t37.5 -87.5q0 -69 -61 -100q76 -29 76 -115zM257 420q0 35 -22 57.5t-61 22.5q-38 0 -60.5 -22.5t-22.5 -57.5q0 -37 22 -59.5
t61 -22.5q38 0 60.5 22.5t22.5 59.5zM248 624q0 32 -19.5 51.5t-54.5 19.5q-34 0 -53.5 -19.5t-19.5 -51.5t19.5 -51.5t53.5 -19.5t54 19.5t20 51.5z" />
    <glyph glyph-name="ninesuperior" unicode="&#x2079;" horiz-adv-x="350" 
d="M159 295h-81v1l120 182v1q-22 -8 -58 -6q-54 6 -87.5 42.5t-33.5 93.5q0 68 43.5 104.5t112.5 36.5q70 0 113 -37.5t43 -103.5q0 -46 -29 -94zM262 609q0 39 -23 62.5t-64 23.5q-39 0 -63 -22t-24 -64q0 -39 23 -63t63 -24q39 0 63.5 22t24.5 65z" />
    <glyph glyph-name="plussuperior" unicode="&#x207a;" horiz-adv-x="350" 
d="M200 333h-52v131h-124v51h124v131h52v-131h125v-51h-125v-131z" />
    <glyph glyph-name="minussuperior" unicode="&#x207b;" horiz-adv-x="350" 
d="M325 464h-301v51h301v-51z" />
    <glyph glyph-name="equalsuperior" unicode="&#x207c;" horiz-adv-x="350" 
d="M325 392h-301v51h301v-51zM325 536h-301v53h301v-53z" />
    <glyph glyph-name="parenleftsuperior" unicode="&#x207d;" horiz-adv-x="222" 
d="M212 223h-63q-104 115 -104 274q0 158 104 273h63q-103 -118 -103 -273q0 -156 103 -274z" />
    <glyph glyph-name="parenrightsuperior" unicode="&#x207e;" horiz-adv-x="222" 
d="M73 223h-63q103 118 103 274q0 155 -103 273h63q103 -114 103 -273q0 -160 -103 -274z" />
    <glyph glyph-name="zeroinferior" unicode="&#x2080;" horiz-adv-x="350" 
d="M335 127q0 -119 -45 -176.5t-116 -57.5q-70 0 -115 57.5t-45 176.5t45 176t115 57q71 0 116 -57t45 -176zM265 127q0 170 -91 170q-90 0 -90 -170q0 -172 90 -172q91 0 91 172z" />
    <glyph glyph-name="oneinferior" unicode="&#x2081;" horiz-adv-x="350" 
d="M238 -95h-68v375l-98 -33h-2v64l166 49h2v-455z" />
    <glyph glyph-name="twoinferior" unicode="&#x2082;" horiz-adv-x="350" 
d="M331 -95h-306v45q113 94 153 148t40 110q0 44 -23 68.5t-60 24.5q-57 0 -99 -44h-2v66q50 37 113 37q62 0 101.5 -38t39.5 -106q0 -20 -4 -39.5t-8 -33.5t-16 -33.5t-17.5 -28t-25 -30t-25 -27t-30.5 -30t-30 -29.5v-1h199v-59z" />
    <glyph glyph-name="threeinferior" unicode="&#x2083;" horiz-adv-x="350" 
d="M317 18q0 -60 -41 -92.5t-108 -32.5q-72 0 -123 35v66h2q41 -43 110 -43q40 0 65.5 19.5t25.5 56.5q0 33 -24.5 51.5t-67.5 18.5h-61v59h68q58 21 58 72q0 34 -21.5 53.5t-57.5 19.5q-55 0 -92 -42h-2v67q48 34 109 34q59 0 96.5 -32.5t37.5 -89.5q0 -72 -67 -106
q40 -8 66.5 -37.5t26.5 -76.5z" />
    <glyph glyph-name="fourinferior" unicode="&#x2084;" horiz-adv-x="350" 
d="M341 -3h-63v-92h-68v92h-200v45l219 318h49v-309h63v-54zM212 51v198h-1l-133 -197v-1h134z" />
    <glyph glyph-name="fiveinferior" unicode="&#x2085;" horiz-adv-x="350" 
d="M317 37q0 -69 -43.5 -106.5t-110.5 -37.5q-69 0 -118 35v66h2q40 -43 108 -43q41 0 66.5 22t25.5 63q0 40 -27 63t-76 23q-48 0 -88 -23h-2l39 249h210v-59h-161l-20 -123q23 10 49 10q64 0 105 -37t41 -102z" />
    <glyph glyph-name="sixinferior" unicode="&#x2086;" horiz-adv-x="350" 
d="M331 34q0 -67 -43.5 -104t-112.5 -37q-71 0 -113.5 37.5t-42.5 103.5q0 48 25 88l146 226h82v-1l-120 -182v-1q26 9 57 6q55 -6 88.5 -42t33.5 -94zM262 34q0 40 -23 63.5t-64 23.5q-39 0 -63.5 -22.5t-24.5 -64.5q0 -38 23 -62t63 -24t64.5 22t24.5 64z" />
    <glyph glyph-name="seveninferior" unicode="&#x2087;" horiz-adv-x="350" 
d="M123 -94h-73v1l187 378h-216v64h315v-4z" />
    <glyph glyph-name="eightinferior" unicode="&#x2088;" horiz-adv-x="350" 
d="M327 26q0 -62 -42 -97.5t-111 -35.5t-110.5 35.5t-41.5 97.5q0 85 75 114v1q-60 29 -60 100q0 56 37.5 87.5t99.5 31.5q63 0 100.5 -31.5t37.5 -87.5q0 -69 -61 -100q76 -29 76 -115zM257 30q0 35 -22 57.5t-61 22.5q-38 0 -60.5 -22.5t-22.5 -57.5q0 -37 22 -59.5
t61 -22.5q38 0 60.5 22.5t22.5 59.5zM248 234q0 32 -19.5 51.5t-54.5 19.5q-34 0 -53.5 -19.5t-19.5 -51.5t19.5 -51.5t53.5 -19.5t54 19.5t20 51.5z" />
    <glyph glyph-name="nineinferior" unicode="&#x2089;" horiz-adv-x="350" 
d="M159 -95h-81v1l120 182v1q-22 -8 -58 -6q-54 6 -87.5 42.5t-33.5 93.5q0 68 43.5 104.5t112.5 36.5q70 0 113 -37.5t43 -103.5q0 -46 -29 -94zM262 219q0 39 -23 62.5t-64 23.5q-39 0 -63 -22t-24 -64q0 -39 23 -63t63 -24q39 0 63.5 22t24.5 65z" />
    <glyph glyph-name="parenleftinferior" unicode="&#x208d;" horiz-adv-x="222" 
d="M212 -167h-63q-104 115 -104 274q0 158 104 273h63q-103 -118 -103 -273q0 -156 103 -274z" />
    <glyph glyph-name="parenrightinferior" unicode="&#x208e;" horiz-adv-x="222" 
d="M73 -167h-63q103 118 103 274q0 155 -103 273h63q103 -114 103 -273q0 -160 -103 -274z" />
    <glyph glyph-name="Euro" unicode="&#x20ac;" horiz-adv-x="524" 
d="M493 42q-63 -60 -155 -60q-88 0 -148 59t-78 190h-83v71h77q-1 12 -1 39q0 30 1 45h-77v71h84q19 125 77.5 184t145.5 59q93 0 154 -59v-91h-4q-50 73 -137 73q-122 0 -150 -166h237v-71h-244q-1 -15 -1 -46q0 -26 1 -38h244v-71h-238q28 -172 152 -172q84 0 139 73h4
v-90z" />
    <glyph glyph-name="litre" unicode="&#x2113;" horiz-adv-x="530" 
d="M457 15q-55 -33 -135 -33q-71 0 -119.5 48t-72.5 138q-25 -11 -75 -27v77q42 12 61 20q-7 50 -7 118q0 162 52 253t148 91q71 0 111 -45.5t40 -124.5q0 -103 -62 -186.5t-182 -138.5q27 -146 128 -146q64 0 109 40h4v-84zM204 372q0 -62 2 -91q167 98 167 253
q0 106 -65 106q-104 0 -104 -268z" />
    <glyph glyph-name="numero" unicode="&#x2116;" horiz-adv-x="1138" 
d="M1076 150h-258v59h258v-59zM1045 459q0 55 -27 86.5t-70 31.5q-45 0 -72.5 -31t-27.5 -87q0 -53 27.5 -85t70.5 -32q44 0 71.5 31t27.5 86zM1114 459q0 -81 -47 -128.5t-121 -47.5q-72 0 -119 47.5t-47 128.5q0 83 46.5 130.5t121.5 47.5q73 0 119.5 -47.5t46.5 -130.5z
M657 -12h-71l-394 511h-1v-499h-92v640l-27 37v5h98l395 -518h1v518h91v-694z" />
    <glyph glyph-name="published" unicode="&#x2117;" horiz-adv-x="776" 
d="M338 131h-65v419h126q65 0 106.5 -33.5t41.5 -96.5q0 -135 -209 -154v-135zM338 324q144 7 144 91q0 37 -25 57t-66 20h-53v-168zM387 -18q-143 0 -241 95.5t-98 263.5t98 263.5t243 95.5q143 0 241 -95.5t98 -263.5t-97.5 -263.5t-243.5 -95.5zM386 30q124 0 206 81
t82 230q0 147 -80 229.5t-203 82.5q-124 0 -206.5 -81.5t-82.5 -230.5q0 -146 80.5 -228.5t203.5 -82.5z" />
    <glyph glyph-name="published" unicode="&#xe039;" horiz-adv-x="776" 
d="M338 131h-65v419h126q65 0 106.5 -33.5t41.5 -96.5q0 -135 -209 -154v-135zM338 324q144 7 144 91q0 37 -25 57t-66 20h-53v-168zM387 -18q-143 0 -241 95.5t-98 263.5t98 263.5t243 95.5q143 0 241 -95.5t98 -263.5t-97.5 -263.5t-243.5 -95.5zM386 30q124 0 206 81
t82 230q0 147 -80 229.5t-203 82.5q-124 0 -206.5 -81.5t-82.5 -230.5q0 -146 80.5 -228.5t203.5 -82.5z" />
    <glyph glyph-name="trademark" unicode="&#x2122;" horiz-adv-x="871" 
d="M197 263h-64v356h-116v63h296v-63h-116v-356zM819 263h-65l-24 286h-1l-127 -297h-4l-128 297h-1l-23 -286h-65l36 426h51l132 -313h1l130 313h51z" />
    <glyph glyph-name="Omega" unicode="&#x2126;" horiz-adv-x="749" 
d="M697 0h-283v66q177 122 177 301q0 117 -60 182t-156 65t-156.5 -65t-60.5 -182q0 -179 177 -301v-66h-283v86h145v1q-135 120 -135 299q0 147 89 230.5t224 83.5q134 0 223 -83.5t89 -230.5q0 -178 -134 -299v-1h144v-86z" />
    <glyph glyph-name="estimated" unicode="&#x212e;" horiz-adv-x="826" 
d="M626 157h74q-43 -83 -119 -129t-168 -46q-143 0 -233.5 99t-90.5 259q0 161 91 260.5t234 99.5q147 0 235 -104t89 -274h-540v-143q31 -65 87 -101.5t128 -36.5q68 0 123 31t90 85zM415 641q-75 0 -130.5 -35.5t-86.5 -99.5v-127h430v125q-31 64 -87 100.5t-126 36.5z
" />
    <glyph glyph-name="arrowleft" unicode="&#x2190;" horiz-adv-x="795" 
d="M384 51l-311 284v6l311 284h127l-273 -243h484v-88h-484l273 -243h-127z" />
    <glyph glyph-name="arrowup" unicode="&#x2191;" horiz-adv-x="795" 
d="M684 349v-127l-243 273v-484h-88v484l-243 -273v127l284 311h6z" />
    <glyph glyph-name="arrowright" unicode="&#x2192;" horiz-adv-x="795" 
d="M411 51h-127l273 243h-484v88h484l-273 243h127l311 -284v-6z" />
    <glyph glyph-name="arrowdown" unicode="&#x2193;" horiz-adv-x="795" 
d="M684 322l-284 -311h-6l-284 311v127l243 -273v484h88v-484l243 273v-127z" />
    <glyph glyph-name="arrowupleft" unicode="&#x2196;" horiz-adv-x="795" 
d="M264 68l-90 90l-19 420l4 5l421 -19l89 -90l-365 21l343 -343l-63 -61l-342 342z" />
    <glyph glyph-name="arrowupright" unicode="&#x2197;" horiz-adv-x="795" 
d="M622 158l-90 -90l21 365l-342 -342l-63 61l343 343l-365 -21l90 90l421 19l4 -5z" />
    <glyph glyph-name="arrowdownright" unicode="&#x2198;" horiz-adv-x="795" 
d="M532 619l90 -90l19 -420l-4 -5l-421 19l-90 90l366 -22l-343 343l62 62l342 -342z" />
    <glyph glyph-name="arrowdownleft" unicode="&#x2199;" horiz-adv-x="795" 
d="M174 529l90 90l-22 -365l342 342l63 -62l-343 -343l365 22l-89 -90l-421 -19l-4 5z" />
    <glyph glyph-name="arrowtailleft" unicode="&#x21a2;" horiz-adv-x="795" 
d="M339 565v-183h383v-88h-383v-183h-8l-258 224v6l258 224h8z" />
    <glyph glyph-name="arrowtailright" unicode="&#x21a3;" horiz-adv-x="795" 
d="M464 111h-8v183h-383v88h383v183h8l258 -224v-6z" />
    <glyph glyph-name="partialdiff" unicode="&#x2202;" horiz-adv-x="558" 
d="M49 197q0 95 60.5 152.5t150.5 57.5q39 0 75 -13h1l-188 286v2h106l228 -351q40 -62 40 -134q0 -100 -65 -157.5t-172 -57.5q-103 0 -169.5 55.5t-66.5 159.5zM142 197q0 -69 40 -105t105 -36q67 0 105 38.5t38 102.5q0 70 -40 106t-105 36q-67 0 -105 -39t-38 -103z" />
    <glyph glyph-name="Delta" unicode="&#x2206;" horiz-adv-x="667" 
d="M652 0h-636l279 700h77zM519 86l-187 484h-1l-187 -484h375z" />
    <glyph glyph-name="product" unicode="&#x220f;" horiz-adv-x="753" 
d="M654 -193h-91v784h-372v-784h-91v875h554v-875z" />
    <glyph glyph-name="summation" unicode="&#x2211;" horiz-adv-x="622" 
d="M572 -193h-527v6l273 436v1l-261 426v6h495v-91h-330v-1l210 -336v-7l-223 -348v-1h363v-91z" />
    <glyph glyph-name="minus" unicode="&#x2212;" 
d="M483 245h-426v66h426v-66z" />
    <glyph glyph-name="radical" unicode="&#x221a;" horiz-adv-x="614" 
d="M372 0h-126l-146 477h-72v70h148l136 -463h3l178 598h95z" />
    <glyph glyph-name="infinity" unicode="&#x221e;" horiz-adv-x="593" 
d="M563 279q0 -69 -37.5 -108t-90.5 -39q-82 0 -136 98h-1q-52 -98 -137 -98q-60 0 -95.5 40t-35.5 107q0 61 36 101.5t95 40.5q46 0 77 -26.5t58 -74.5h1q21 34 35 52t40.5 33.5t58.5 15.5q61 0 96.5 -40t35.5 -102zM499 279q0 33 -19.5 53.5t-51.5 20.5q-30 0 -49 -18.5
t-40 -57.5q17 -38 37.5 -58t50.5 -20q32 0 52 20.5t20 59.5zM165 199q32 0 51.5 19t38.5 59q-21 39 -41 58t-49 19q-31 0 -50.5 -21.5t-19.5 -53.5q0 -38 19.5 -59t50.5 -21z" />
    <glyph glyph-name="integral" unicode="&#x222b;" horiz-adv-x="269" 
d="M35 -193q-54 0 -95 29v73h3q30 -33 74 -33q34 0 55 25t21 76v620q0 73 36.5 116.5t107.5 43.5q55 0 92 -25v-80h-3q-33 30 -72 30q-75 0 -75 -91v-618q0 -80 -38.5 -123t-105.5 -43z" />
    <glyph glyph-name="approxequal" unicode="&#x2248;" 
d="M478 374q-45 -52 -108 -52q-35 0 -101 29.5t-98 29.5q-58 0 -109 -58v72q47 52 108 52q36 0 102 -30t97 -30q59 0 109 59v-72zM478 169q-45 -52 -108 -52q-35 0 -101 29.5t-98 29.5q-58 0 -109 -58v72q46 53 108 53q36 0 102 -30t97 -30q60 0 109 59v-73z" />
    <glyph glyph-name="notequal" unicode="&#x2260;" 
d="M483 144h-210l-43 -103h-63l43 103h-153v65h181l58 139h-239v65h267l44 107h63l-44 -107h96v-65h-124l-58 -139h182v-65z" />
    <glyph glyph-name="lessequal" unicode="&#x2264;" 
d="M483 82h-426v67h426v-67zM483 201l-426 128v67l426 129v-67l-332 -94v-2l332 -93v-68z" />
    <glyph glyph-name="greaterequal" unicode="&#x2265;" 
d="M483 329l-426 -128v68l332 93v2l-332 94v67l426 -129v-67zM483 82h-426v67h426v-67z" />
    <glyph glyph-name="blacksquare" unicode="&#x25a0;" horiz-adv-x="795" 
d="M739 0h-683v682h683v-682z" />
    <glyph glyph-name="whitesquare" unicode="&#x25a1;" horiz-adv-x="795" 
d="M739 0h-683v682h683v-682zM104 48h588v587h-588v-587z" />
    <glyph glyph-name="lozenge" unicode="&#x25ca;" 
d="M500 279l-230 -246l-230 246l230 245zM417 279l-147 157l-148 -157l148 -157z" />
    <glyph glyph-name="whitecircle" unicode="&#x25cb;" horiz-adv-x="795" 
d="M777 341q0 -157 -111 -267.5t-269 -110.5q-157 0 -267.5 110.5t-110.5 266.5q0 157 111 267.5t268 110.5t268 -110.5t111 -266.5zM730 341q0 135 -98 232.5t-234 97.5q-137 0 -234.5 -97.5t-97.5 -233.5q0 -135 97.5 -232.5t233.5 -97.5q137 0 235 97.5t98 233.5z" />
    <glyph glyph-name="blackcircle" unicode="&#x25cf;" horiz-adv-x="795" 
d="M777 341q0 -157 -111 -267.5t-269 -110.5q-157 0 -267.5 110.5t-110.5 266.5q0 157 111 267.5t268 110.5t268 -110.5t111 -266.5z" />
    <glyph glyph-name="ballotboxwithx" unicode="&#x2612;" horiz-adv-x="795" 
d="M739 0h-683v682h683v-682zM693 46v590h-591v-590h591zM641 142l-47 -48l-197 198l-199 -198l-47 46l199 199l-198 198l47 48l198 -199l198 200l47 -48l-198 -199z" />
    <glyph glyph-name="pointingindexleftwhite" unicode="&#x261c;" horiz-adv-x="1100" 
d="M31 464q0 34 24.5 45.5t68.5 11.5h159q-27 21 -15 79h175q44 0 82.5 -20t63 -44.5t56 -49.5t59.5 -33l7 45h302q44 -171 0 -403q-39 -1 -103.5 -19.5t-99.5 -18.5q-55 0 -82 36t-29 96q-50 -3 -119.5 -20.5t-125.5 -17.5h-25q-94 0 -94 64q0 7 4 21q-22 3 -37.5 19
t-15.5 42q0 11 3 25q-51 7 -51 59q0 7 4 25h-118q-93 0 -93 58zM62 464q0 -18 14 -22.5t46 -4.5h314l6 -34h-167q-4 -11 -4 -20q0 -20 13 -26.5t45 -6.5h125l5 -33h-137q-4 -8 -4 -19q0 -19 13 -26.5t44 -7.5h97l5 -33h-106q-3 -9 -3 -17q0 -19 17 -26t53 -7h17
q52 0 124.5 19t141.5 22q14 110 -5 194q-34 8 -64.5 27t-53 39.5t-45 40.5t-50.5 33t-61 13h-144q-5 -24 10 -34.5t47 -10.5h118v-33h-351q-31 0 -45.5 -5t-14.5 -22zM824 96q24 0 77 16t80 18q15 80 15 169t-15 159h-231q12 -43 13.5 -101.5t-2.5 -118t-4 -60.5
q0 -82 67 -82zM908 188q0 -20 -14.5 -34.5t-35.5 -14.5q-20 0 -34.5 14.5t-14.5 34.5q0 21 14.5 35.5t34.5 14.5q21 0 35.5 -14.5t14.5 -35.5z" />
    <glyph glyph-name="pointingindexrightwhite" unicode="&#x261e;" horiz-adv-x="1100" 
d="M1069 464q0 -58 -93 -58h-118q4 -18 4 -25q0 -52 -51 -59q3 -14 3 -25q0 -26 -15.5 -42t-37.5 -19q4 -14 4 -21q0 -64 -94 -64h-25q-56 0 -125.5 17.5t-119.5 20.5q-2 -60 -29 -96t-82 -36q-34 0 -98.5 18.5t-104.5 19.5q-44 232 0 403h302l7 -45q28 8 60 33t56 49.5
t63 44.5t82 20h175q12 -58 -15 -79h159q44 0 68.5 -11.5t24.5 -45.5zM1038 464q0 17 -14.5 22t-45.5 5h-351v33h118q32 0 47 10.5t10 34.5h-144q-33 0 -61 -13t-50.5 -33t-45 -40.5t-53 -39.5t-64.5 -27q-19 -84 -5 -194q69 -3 141.5 -22t124.5 -19h17q36 0 53 7t17 26
q0 8 -3 17h-106l6 33h96q31 0 44 7.5t13 26.5q0 11 -4 19h-137l5 33h125q32 0 45.5 7t13.5 26q0 7 -5 20h-167l6 34h314q32 0 46 4.5t14 22.5zM276 96q67 0 67 82q0 1 -4 60.5t-2.5 118t13.5 101.5h-231q-15 -70 -15 -159t15 -169q27 -2 80 -18t77 -16zM192 188
q0 21 14.5 35.5t35.5 14.5q20 0 34.5 -14.5t14.5 -35.5q0 -20 -14.5 -34.5t-34.5 -14.5q-21 0 -35.5 14.5t-14.5 34.5z" />
    <glyph glyph-name="checkmark" unicode="&#x2713;" horiz-adv-x="614" 
d="M325 0h-114l-187 406h95l145 -322h3l227 603h95z" />
    <glyph glyph-name="dingbatnegcircle1" unicode="&#x2776;" horiz-adv-x="900" 
d="M449 -68q-106 0 -193 45.5t-141.5 140t-54.5 223.5q0 192 112 300.5t280 108.5q106 0 192.5 -45.5t141 -140t54.5 -223.5q0 -192 -112 -300.5t-279 -108.5zM447 -21q146 0 242 94t96 268q0 171 -94.5 266.5t-237.5 95.5q-145 0 -241.5 -94t-96.5 -268q0 -171 94 -266.5
t238 -95.5zM494 120h-68v375l-98 -33h-2v64l166 49h2v-455z" />
    <glyph glyph-name="dingbatnegcircle2" unicode="&#x2777;" horiz-adv-x="900" 
d="M449 -68q-106 0 -193 45.5t-141.5 140t-54.5 223.5q0 192 112 300.5t280 108.5q106 0 192.5 -45.5t141 -140t54.5 -223.5q0 -192 -112 -300.5t-279 -108.5zM447 -21q146 0 242 94t96 268q0 171 -94.5 266.5t-237.5 95.5q-145 0 -241.5 -94t-96.5 -268q0 -171 94 -266.5
t238 -95.5zM617 120h-306v45q113 94 153 148t40 110q0 44 -23 68.5t-60 24.5q-57 0 -99 -44h-2v66q50 37 113 37q62 0 101.5 -38t39.5 -106q0 -20 -4 -39.5t-8 -33.5t-16 -33.5t-17.5 -28t-25 -30t-25 -27t-30.5 -30t-30 -29.5v-1h199v-59z" />
    <glyph glyph-name="dingbatnegcircle3" unicode="&#x2778;" horiz-adv-x="900" 
d="M449 -68q-106 0 -193 45.5t-141.5 140t-54.5 223.5q0 192 112 300.5t280 108.5q106 0 192.5 -45.5t141 -140t54.5 -223.5q0 -192 -112 -300.5t-279 -108.5zM447 -21q146 0 242 94t96 268q0 171 -94.5 266.5t-237.5 95.5q-145 0 -241.5 -94t-96.5 -268q0 -171 94 -266.5
t238 -95.5zM606 233q0 -60 -41 -92.5t-108 -32.5q-72 0 -123 35v66h2q41 -43 110 -43q40 0 65.5 19.5t25.5 56.5q0 33 -24.5 51.5t-67.5 18.5h-61v59h68q58 21 58 72q0 34 -21.5 53.5t-57.5 19.5q-55 0 -92 -42h-2v67q48 34 109 34q59 0 96.5 -32.5t37.5 -89.5
q0 -73 -67 -106q40 -8 66.5 -37.5t26.5 -76.5z" />
    <glyph glyph-name="dingbatnegcircle4" unicode="&#x2779;" horiz-adv-x="900" 
d="M449 -68q-106 0 -193 45.5t-141.5 140t-54.5 223.5q0 192 112 300.5t280 108.5q106 0 192.5 -45.5t141 -140t54.5 -223.5q0 -192 -112 -300.5t-279 -108.5zM447 -21q146 0 242 94t96 268q0 171 -94.5 266.5t-237.5 95.5q-145 0 -241.5 -94t-96.5 -268q0 -171 94 -266.5
t238 -95.5zM596 212h-63v-92h-68v92h-200v45l219 318h49v-309h63v-54zM467 266v198h-1l-133 -197v-1h134z" />
    <glyph glyph-name="dingbatnegcircle5" unicode="&#x277a;" horiz-adv-x="900" 
d="M449 -68q-106 0 -193 45.5t-141.5 140t-54.5 223.5q0 192 112 300.5t280 108.5q106 0 192.5 -45.5t141 -140t54.5 -223.5q0 -192 -112 -300.5t-279 -108.5zM447 -21q146 0 242 94t96 268q0 171 -94.5 266.5t-237.5 95.5q-145 0 -241.5 -94t-96.5 -268q0 -171 94 -266.5
t238 -95.5zM587 252q0 -69 -43.5 -106.5t-110.5 -37.5q-69 0 -118 35v66h2q40 -43 108 -43q41 0 66.5 22t25.5 63q0 40 -27 63t-76 23q-48 0 -88 -23h-2l39 249h210v-59h-161l-20 -123q23 10 49 10q64 0 105 -37t41 -102z" />
    <glyph glyph-name="dingbatnegcircle6" unicode="&#x277b;" horiz-adv-x="900" 
d="M449 -68q-106 0 -193 45.5t-141.5 140t-54.5 223.5q0 192 112 300.5t280 108.5q106 0 192.5 -45.5t141 -140t54.5 -223.5q0 -192 -112 -300.5t-279 -108.5zM447 -21q146 0 242 94t96 268q0 171 -94.5 266.5t-237.5 95.5q-145 0 -241.5 -94t-96.5 -268q0 -171 94 -266.5
t238 -95.5zM597 249q0 -67 -43.5 -104t-112.5 -37q-71 0 -113.5 37.5t-42.5 103.5q0 48 25 88l146 226h82v-1l-120 -182v-1q26 9 57 6q55 -6 88.5 -42t33.5 -94zM528 249q0 40 -23 63.5t-64 23.5q-39 0 -63.5 -22.5t-24.5 -64.5q0 -38 23 -62t63 -24t64.5 22t24.5 64z" />
    <glyph glyph-name="dingbatnegcircle7" unicode="&#x277c;" horiz-adv-x="900" 
d="M449 -68q-106 0 -193 45.5t-141.5 140t-54.5 223.5q0 192 112 300.5t280 108.5q106 0 192.5 -45.5t141 -140t54.5 -223.5q0 -192 -112 -300.5t-279 -108.5zM447 -21q146 0 242 94t96 268q0 171 -94.5 266.5t-237.5 95.5q-145 0 -241.5 -94t-96.5 -268q0 -171 94 -266.5
t238 -95.5zM410 120h-73v1l187 378h-216v64h315v-4z" />
    <glyph glyph-name="dingbatnegcircle8" unicode="&#x277d;" horiz-adv-x="900" 
d="M449 -68q-106 0 -193 45.5t-141.5 140t-54.5 223.5q0 192 112 300.5t280 108.5q106 0 192.5 -45.5t141 -140t54.5 -223.5q0 -192 -112 -300.5t-279 -108.5zM447 -21q146 0 242 94t96 268q0 171 -94.5 266.5t-237.5 95.5q-145 0 -241.5 -94t-96.5 -268q0 -171 94 -266.5
t238 -95.5zM602 241q0 -62 -42 -97.5t-111 -35.5t-110.5 35.5t-41.5 97.5q0 85 75 114v1q-60 29 -60 100q0 56 37.5 87.5t99.5 31.5q63 0 100.5 -31.5t37.5 -87.5q0 -69 -61 -100q76 -29 76 -115zM532 245q0 35 -22 57.5t-61 22.5q-38 0 -60.5 -22.5t-22.5 -57.5
q0 -37 22 -59.5t61 -22.5q38 0 60.5 22.5t22.5 59.5zM523 449q0 32 -19.5 51.5t-54.5 19.5q-34 0 -53.5 -19.5t-19.5 -51.5t19.5 -51.5t53.5 -19.5q35 0 54.5 20t19.5 51z" />
    <glyph glyph-name="dingbatnegcircle9" unicode="&#x277e;" horiz-adv-x="900" 
d="M449 -68q-106 0 -193 45.5t-141.5 140t-54.5 223.5q0 192 112 300.5t280 108.5q106 0 192.5 -45.5t141 -140t54.5 -223.5q0 -192 -112 -300.5t-279 -108.5zM447 -21q146 0 242 94t96 268q0 171 -94.5 266.5t-237.5 95.5q-145 0 -241.5 -94t-96.5 -268q0 -171 94 -266.5
t238 -95.5zM435 120h-81v1l120 182v1q-22 -8 -58 -6q-54 6 -87.5 42.5t-33.5 93.5q0 68 43.5 104.5t112.5 36.5q70 0 113 -37.5t43 -103.5q0 -46 -29 -94zM538 434q0 39 -23 62.5t-64 23.5q-39 0 -63 -22t-24 -64q0 -39 23 -63t63 -24q39 0 63.5 22t24.5 65z" />
    <glyph glyph-name="dingbatnegcircle10" unicode="&#x277f;" horiz-adv-x="900" 
d="M449 -68q-106 0 -193 45.5t-141.5 140t-54.5 223.5q0 192 112 300.5t280 108.5q106 0 192.5 -45.5t141 -140t54.5 -223.5q0 -192 -112 -300.5t-279 -108.5zM447 -21q146 0 242 94t96 268q0 171 -94.5 266.5t-237.5 95.5q-145 0 -241.5 -94t-96.5 -268q0 -171 94 -266.5
t238 -95.5zM305 130h-59v420l58 15h1v-435zM692 349q0 -114 -42 -168.5t-109 -54.5t-109 54.5t-42 168.5t42 168.5t109 54.5t109 -54.5t42 -168.5zM630 349q0 166 -89 166q-88 0 -88 -166q0 -168 88 -168q89 0 89 168z" />
    <glyph glyph-name="a.superior" unicode="&#xe000;" horiz-adv-x="361" 
d="M310 295h-64v26h-1q-41 -38 -98 -38q-48 0 -79.5 28t-31.5 76q0 49 32 78t90 29q50 0 86 -21v32q0 39 -23.5 58t-62.5 19q-61 0 -99 -43h-3v62q51 36 115 36q62 0 100.5 -33t38.5 -100v-209zM244 366v62q-30 20 -69 20q-35 0 -54 -15.5t-19 -42.5q0 -24 17.5 -40
t49.5 -16q45 0 75 32z" />
    <glyph glyph-name="b.superior" unicode="&#xe001;" horiz-adv-x="393" 
d="M369 459q0 -82 -43.5 -129t-112.5 -47q-55 0 -98 32h-1l-57 -25h-2v492h65v-184q44 39 101 39q66 0 107 -48t41 -130zM300 459q0 56 -27 87.5t-72 31.5q-49 0 -81 -40v-164q32 -32 78 -32q47 0 74.5 31t27.5 86z" />
    <glyph glyph-name="c.superior" unicode="&#xe002;" horiz-adv-x="306" 
d="M278 384v-66q-41 -35 -101 -35q-66 0 -109.5 46.5t-43.5 129.5q0 82 42.5 130t109.5 48q57 0 100 -35v-66h-2q-29 41 -85 41q-44 0 -70.5 -31.5t-26.5 -86.5q0 -54 26.5 -85t72.5 -31q56 0 85 41h2z" />
    <glyph glyph-name="d.superior" unicode="&#xe003;" horiz-adv-x="393" 
d="M339 295h-65v27h-1q-44 -39 -101 -39q-66 0 -107 47.5t-41 128.5q0 82 43.5 130t112.5 48q52 0 92 -28h1v173h66v-487zM273 381v165q-34 32 -77 32q-47 0 -75.5 -31t-28.5 -88q0 -55 27.5 -86t72.5 -31q49 0 81 39z" />
    <glyph glyph-name="e.superior" unicode="&#xe004;" horiz-adv-x="360" 
d="M315 319q-51 -36 -119 -36q-76 0 -124 47t-48 129q0 83 42.5 130.5t113.5 47.5q65 0 107.5 -42t42.5 -112q0 -19 -1 -29h-237q4 -56 34.5 -86.5t81.5 -30.5q66 0 104 43h3v-61zM262 503q-2 39 -24.5 63.5t-57.5 24.5q-36 0 -59 -23t-28 -65h169z" />
    <glyph glyph-name="f.superior" unicode="&#xe005;" horiz-adv-x="220" 
d="M125 295h-65v273h-31v2l31 55v55q0 50 25 78.5t73 28.5q35 0 63 -16v-59h-2q-21 19 -48 19q-46 0 -46 -55v-51h78v-57h-78v-273z" />
    <glyph glyph-name="g.superior" unicode="&#xe006;" horiz-adv-x="383" 
d="M268 388v161q-31 29 -73 29q-46 0 -73.5 -30t-27.5 -83q0 -51 27 -81t70 -30q48 0 77 34zM188 168q-76 0 -120 36v61h2q41 -45 110 -45q88 0 88 86v26h-1q-39 -36 -100 -36t-102 44.5t-41 124.5q0 82 42.5 127t110.5 45q53 0 96 -32h1l57 25h2v-319q0 -70 -39 -106.5
t-106 -36.5z" />
    <glyph glyph-name="h.superior" unicode="&#xe007;" horiz-adv-x="390" 
d="M339 295h-66v202q0 40 -20.5 60.5t-54.5 20.5q-46 0 -78 -40v-243h-65v487h65v-184q44 39 99 39q51 0 85.5 -30.5t34.5 -88.5v-223z" />
    <glyph glyph-name="i.superior" unicode="&#xe008;" horiz-adv-x="174" 
d="M120 295h-65v330h65v-330zM122 722h-70v60h70v-60z" />
    <glyph glyph-name="j.superior" unicode="&#xe009;" horiz-adv-x="174" 
d="M22 170q-36 0 -64 19v52h1q22 -20 48 -20q22 0 35 15.5t13 47.5v341h65v-344q0 -54 -26.5 -82.5t-71.5 -28.5zM122 722h-70v60h70v-60z" />
    <glyph glyph-name="k.superior" unicode="&#xe00a;" horiz-adv-x="344" 
d="M120 295h-65v487h65v-487zM333 295h-78l-128 166v2l123 162h75l-126 -162v-1z" />
    <glyph glyph-name="l.superior" unicode="&#xe00b;" horiz-adv-x="174" 
d="M120 295h-65v487h65v-487z" />
    <glyph glyph-name="m.superior" unicode="&#xe00c;" horiz-adv-x="609" 
d="M557 295h-65v202q0 40 -20.5 60.5t-54.5 20.5q-48 0 -83 -44q5 -18 5 -35v-204h-66v202q0 40 -20.5 60.5t-54.5 20.5q-46 0 -78 -40v-243h-65v330h64v-27h1q44 39 99 39q72 0 102 -53h1q53 53 116 53q51 0 85 -30.5t34 -88.5v-223z" />
    <glyph glyph-name="n.superior" unicode="&#xe00d;" horiz-adv-x="398" 
d="M346 295h-65v202q0 40 -22 60.5t-57 20.5q-50 0 -82 -40v-243h-65v330h64v-27h1q44 39 102 39q54 0 89 -30.5t35 -88.5v-223z" />
    <glyph glyph-name="o.superior" unicode="&#xe00e;" horiz-adv-x="382" 
d="M289 459q0 57 -26.5 88t-71.5 31t-72 -31.5t-27 -87.5q0 -54 27 -86t72 -32t71.5 32t26.5 86zM358 459q0 -81 -47 -128.5t-120 -47.5t-120 47.5t-47 128.5q0 82 46.5 130t120.5 48t120.5 -48t46.5 -130z" />
    <glyph glyph-name="p.superior" unicode="&#xe00f;" horiz-adv-x="393" 
d="M369 459q0 -82 -43.5 -129t-112.5 -47q-53 0 -93 28v-141h-65v455h64v-27h1q44 39 101 39q66 0 107 -48t41 -130zM300 459q0 56 -27 87.5t-72 31.5q-49 0 -81 -40v-164q32 -32 78 -32q47 0 74.5 31t27.5 86z" />
    <glyph glyph-name="q.superior" unicode="&#xe010;" horiz-adv-x="393" 
d="M339 170h-66v152h-1q-42 -39 -100 -39q-66 0 -107 47.5t-41 128.5q0 82 43.5 130t112.5 48q55 0 98 -32h1l58 25h2v-460zM273 381v165q-34 32 -77 32q-47 0 -75.5 -31t-28.5 -88q0 -55 27.5 -86t72.5 -31q49 0 81 39z" />
    <glyph glyph-name="r.superior" unicode="&#xe011;" horiz-adv-x="255" 
d="M121 295h-65v330h63v-28h1q42 40 84 40q18 0 34 -6v-66h-2q-16 11 -39 11q-33 0 -76 -36v-245z" />
    <glyph glyph-name="s.superior" unicode="&#xe012;" horiz-adv-x="299" 
d="M260 382q0 -44 -30 -71.5t-87 -27.5q-65 0 -103 32v61h2q36 -41 97 -41q27 0 42 12t15 32q0 23 -24 38t-53 23t-53 33t-24 67q0 43 28.5 70t81.5 27q59 0 96 -32v-61h-2q-35 41 -89 41q-50 0 -50 -43q0 -19 16 -31t38.5 -20t44.5 -18.5t38 -33.5t16 -57z" />
    <glyph glyph-name="t.superior" unicode="&#xe013;" horiz-adv-x="220" 
d="M125 295h-65v273h-31v2l31 55v99h65v-99h78v-57h-78v-273z" />
    <glyph glyph-name="u.superior" unicode="&#xe014;" horiz-adv-x="387" 
d="M335 625v-205q0 -64 -38 -100.5t-105 -36.5q-64 0 -102 36.5t-38 100.5v205h65v-202q0 -81 76 -81q77 0 77 81v202h65z" />
    <glyph glyph-name="v.superior" unicode="&#xe015;" horiz-adv-x="348" 
d="M198 283h-48l-142 342h74l92 -244h1l92 244h73z" />
    <glyph glyph-name="w.superior" unicode="&#xe016;" horiz-adv-x="537" 
d="M401 283h-43l-89 220h-1l-88 -220h-43l-126 342h73l79 -232h1l102 244h6l102 -244l79 232h73z" />
    <glyph glyph-name="x.superior" unicode="&#xe017;" horiz-adv-x="345" 
d="M336 295h-77l-87 125h-1l-80 -125h-75l109 167l-116 163h77l86 -123h1l80 123h75l-111 -163z" />
    <glyph glyph-name="y.superior" unicode="&#xe018;" horiz-adv-x="349" 
d="M168 170h-74l52 126l-141 329h74l98 -246l87 246h74z" />
    <glyph glyph-name="z.superior" unicode="&#xe019;" horiz-adv-x="318" 
d="M294 295h-275v4l161 268v1h-149v57h254v-5l-163 -267v-1h172v-57z" />
    <glyph glyph-name="grave.cap" unicode="&#xe01a;" horiz-adv-x="500" 
d="M334 682h-75l-94 118h93z" />
    <glyph glyph-name="acute.cap" unicode="&#xe01b;" horiz-adv-x="500" 
d="M240 682h-75l76 118h93z" />
    <glyph glyph-name="circumflex.cap" unicode="&#xe01c;" horiz-adv-x="500" 
d="M384 682h-75l-58 72h-1l-59 -72h-75l100 128h68z" />
    <glyph glyph-name="caron.cap" unicode="&#xe01d;" horiz-adv-x="500" 
d="M284 675h-68l-100 128h75l58 -71h1l59 71h75z" />
    <glyph glyph-name="tilde.cap" unicode="&#xe01f;" horiz-adv-x="500" 
d="M316 701q-24 0 -67.5 25.5t-57.5 25.5q-12 0 -20.5 -8t-11.5 -15t-11 -28h-58q16 55 35.5 81.5t58.5 26.5q24 0 67 -25.5t58 -25.5q12 0 20 6t11.5 14t9.5 25q1 4 2 6h58q-15 -56 -35 -82t-59 -26z" />
    <glyph glyph-name="dieresis.cap" unicode="&#xe020;" horiz-adv-x="500" 
d="M190 732h-88v77h88v-77zM397 732h-88v77h88v-77z" />
    <glyph glyph-name="macron.cap" unicode="&#xe021;" horiz-adv-x="500" 
d="M401 747h-302v62h302v-62z" />
    <glyph glyph-name="breve.cap" unicode="&#xe022;" horiz-adv-x="500" 
d="M250 700q-61 0 -99 29t-46 80h64q13 -51 81 -51t81 51h64q-8 -51 -46 -80t-99 -29z" />
    <glyph glyph-name="ring.cap" unicode="&#xe023;" horiz-adv-x="500" 
d="M360 772q0 -44 -32 -67t-79 -23q-48 0 -79 23t-31 67q0 42 32 65t80 23q47 0 78 -23t31 -65zM304 772q0 20 -15.5 32t-38.5 12q-24 0 -40 -12t-16 -32q0 -22 15.5 -34t40.5 -12q24 0 39 12t15 34z" />
    <glyph glyph-name="hungarumlaut.cap" unicode="&#xe024;" horiz-adv-x="500" 
d="M156 682h-77l77 118h93zM329 682h-77l76 118h93z" />
    <glyph glyph-name="dotaccent.cap" unicode="&#xe025;" horiz-adv-x="500" 
d="M297 732h-94v77h94v-77z" />
    <glyph glyph-name="hyphen.cap" unicode="&#xe027;" horiz-adv-x="270" 
d="M258 316h-245v80h245v-80z" />
    <glyph glyph-name="exclamdown.cap" unicode="&#xe028;" horiz-adv-x="278" 
d="M187 -68h-96l11 544h74zM184 585h-89v97h89v-97z" />
    <glyph glyph-name="guilsinglleft.cap" unicode="&#xe02a;" horiz-adv-x="297" 
d="M256 158h-80l-135 191v6l135 191h80l-129 -194z" />
    <glyph glyph-name="guilsinglright.cap" unicode="&#xe02b;" horiz-adv-x="297" 
d="M121 158h-80l129 194l-129 194h80l135 -191v-6z" />
    <glyph glyph-name="guillemotleft.cap" unicode="&#xe02c;" horiz-adv-x="485" 
d="M256 158h-80l-135 191v6l135 191h80l-129 -194zM444 158h-80l-135 191v6l135 191h80l-129 -194z" />
    <glyph glyph-name="guillemotright.cap" unicode="&#xe02d;" horiz-adv-x="485" 
d="M121 158h-80l129 194l-129 194h80l135 -191v-6zM309 158h-80l129 194l-129 194h80l135 -191v-6z" />
    <glyph glyph-name="endash.cap" unicode="&#xe02e;" 
d="M530 317h-520v71h520v-71z" />
    <glyph glyph-name="emdash.cap" unicode="&#xe02f;" horiz-adv-x="1080" 
d="M1070 317h-1060v71h1060v-71z" />
    <glyph glyph-name="nbspace" unicode="&#xe030;" 
 />
    <glyph glyph-name="periodcentered.cap" unicode="&#xe031;" horiz-adv-x="270" 
d="M183 302h-94v102h94v-102z" />
    <glyph glyph-name="parenleft.cap" unicode="&#xe032;" horiz-adv-x="333" 
d="M317 -92h-85q-76 85 -118 193.5t-42 227.5t42 227.5t118 193.5h85q-76 -85 -118 -193.5t-42 -227.5t42 -227.5t118 -193.5z" />
    <glyph glyph-name="parenright.cap" unicode="&#xe033;" horiz-adv-x="333" 
d="M101 -92h-85q76 85 118 193.5t42 227.5t-42 227.5t-118 193.5h85q160 -178 160 -421t-160 -421z" />
    <glyph glyph-name="bracketleft.cap" unicode="&#xe034;" horiz-adv-x="332" 
d="M293 -92h-203v842h203v-70h-123v-702h123v-70z" />
    <glyph glyph-name="bracketright.cap" unicode="&#xe035;" horiz-adv-x="332" 
d="M39 750h203v-842h-203v70h123v702h-123v70z" />
    <glyph glyph-name="braceleft.cap" unicode="&#xe036;" horiz-adv-x="343" 
d="M311 -92q-111 0 -157 40.5t-46 140.5v184l-58 54v4l58 54v184q0 100 46 140.5t157 40.5v-70q-70 0 -96.5 -27t-26.5 -85v-187l-54 -52l54 -52v-187q0 -58 26.5 -85t96.5 -27v-70z" />
    <glyph glyph-name="braceright.cap" unicode="&#xe037;" horiz-adv-x="343" 
d="M32 750q111 0 157 -40.5t46 -140.5v-184l58 -54v-4l-58 -54v-184q0 -100 -46 -140.5t-157 -40.5v70q70 0 96.5 27t26.5 85v187l54 52l-54 52v187q0 58 -26.5 85t-96.5 27v70z" />
    <glyph glyph-name="at.cap" unicode="&#xe038;" horiz-adv-x="878" 
d="M442 184q66 0 111 53v234q-42 42 -105 42q-68 0 -107 -43t-39 -121q0 -77 38 -121t102 -44zM480 -82q-191 0 -311.5 112.5t-120.5 317.5q0 201 112 315.5t278 114.5q171 0 282 -102t111 -287q0 -123 -55.5 -192t-157.5 -69h-60v36h-1q-57 -52 -136 -52q-88 0 -144.5 63.5
t-56.5 173.5t59 173t153 63q76 0 132 -42h1l61 31h5v-385q66 0 99.5 52.5t33.5 142.5q0 164 -90.5 248t-233.5 84q-141 0 -232.5 -97.5t-91.5 -270.5t100.5 -269t266.5 -96q173 0 259 86h4v-78q-44 -34 -116.5 -53.5t-149.5 -19.5z" />
    <glyph glyph-name="zero.slash" unicode="&#xe03a;" horiz-adv-x="586" 
d="M538 341q0 -183 -68.5 -271t-176.5 -88q-78 0 -135 44l-25 -44h-83l58 101q-60 92 -60 258q0 184 68.5 271.5t176.5 87.5q78 0 135 -45l25 45h83l-57 -102q59 -91 59 -257zM447 341q0 141 -41.5 208.5t-112.5 67.5t-112 -67.5t-41 -208.5t41 -208.5t112 -67.5t112.5 67.5
t41.5 208.5z" />
    <glyph glyph-name="Euro.LT" unicode="&#xe03b;" 
d="M501 42q-63 -60 -155 -60q-88 0 -148 59t-78 190h-83v71h77q-1 12 -1 39q0 30 1 45h-77v71h84q19 125 77.5 184t145.5 59q93 0 154 -59v-91h-4q-50 73 -137 73q-122 0 -150 -166h237v-71h-244q-1 -15 -1 -46q0 -26 1 -38h244v-71h-238q28 -172 152 -172q84 0 139 73h4
v-90z" />
    <glyph glyph-name="dollar.LT" unicode="&#xe03c;" 
d="M308 -142h-76v125q-95 7 -153 59v92h4q49 -63 149 -72v251q-34 16 -56.5 30.5t-46 38t-35.5 56.5t-12 76q0 71 38.5 121.5t117.5 61.5v127h75v-126q77 -10 133 -57v-90h-4q-52 58 -129 68v-242q73 -33 113.5 -77t40.5 -126q0 -73 -41.5 -124.5t-117.5 -63.5v-128z
M389 168q0 38 -21 63.5t-60 46.5v-212q81 20 81 102zM160 518q0 -37 20 -61.5t58 -44.5v205q-78 -16 -78 -99z" />
    <glyph glyph-name="cent.LT" unicode="&#xe03d;" 
d="M357 -142h-75v126q-104 10 -166 84.5t-62 201.5q0 125 62.5 201t165.5 85v126h75v-128q71 -12 122 -54v-97h-4q-43 60 -118 72v-411q73 11 121 73h4v-97q-50 -43 -125 -54v-128zM146 270q0 -84 35.5 -137t100.5 -67v408q-64 -12 -100 -65t-36 -139z" />
    <glyph glyph-name="sterling.LT" unicode="&#xe03e;" 
d="M473 0h-425v78h108l-25 223h-83v77h74l-6 60q-5 58 -5 71q0 84 55.5 137.5t149.5 53.5q98 0 167 -57v-97h-3q-61 74 -157 74q-57 0 -89 -34.5t-32 -89.5q0 -30 4 -66l6 -52h208v-77h-200l26 -223h227v-78z" />
    <glyph glyph-name="florin.LT" unicode="&#xe03f;" 
d="M212 0h-88v301h-82v77h82v114q0 99 55.5 153.5t152.5 54.5q96 0 164 -57v-97h-4q-62 74 -152 74q-63 0 -95.5 -37t-32.5 -100v-105h213v-77h-213v-301z" />
    <glyph glyph-name="yen.LT" unicode="&#xe040;" 
d="M326 0h-88v155h-184v71h184v84h-184v71h152l-163 301h98l140 -280h1l133 280h94l-153 -301h142v-71h-172v-84h172v-71h-172v-155z" />
    <glyph glyph-name="zero.LT" unicode="&#xe041;" 
d="M502 341q0 -183 -65 -271t-167 -88q-104 0 -168 88t-64 271q0 184 64 271.5t168 87.5q103 0 167.5 -87.5t64.5 -271.5zM410 341q0 141 -38 208.5t-102 67.5q-66 0 -103.5 -67.5t-37.5 -208.5t37.5 -208.5t103.5 -67.5q64 0 102 67.5t38 208.5z" />
    <glyph glyph-name="one.LT" unicode="&#xe042;" 
d="M358 0h-90v593l-149 -53h-3v85l239 75h3v-700z" />
    <glyph glyph-name="two.LT" unicode="&#xe043;" 
d="M507 0h-465v56q176 151 239.5 236.5t63.5 176.5q0 71 -37 112t-96 41q-92 0 -153 -76h-3v95q72 59 172 59q94 0 153.5 -58.5t59.5 -163.5q0 -25 -4 -50t-8 -44t-17 -43.5t-19 -38.5t-27 -39.5t-28 -35t-34 -37.5t-34.5 -35t-40 -38.5t-39.5 -37.5v-1h317v-78z" />
    <glyph glyph-name="three.LT" unicode="&#xe044;" 
d="M485 174q0 -92 -64 -142t-165 -50q-109 0 -183 53v95h3q30 -33 75.5 -51.5t91.5 -18.5q67 0 108 31.5t41 93.5q0 55 -40 86t-111 31h-91v77h107q95 34 95 121q0 57 -36 89.5t-93 32.5q-85 0 -143 -71h-3v96q72 53 165 53q89 0 146.5 -50.5t57.5 -136.5q0 -109 -100 -162
v-1q59 -14 99 -59t40 -117z" />
    <glyph glyph-name="four.LT" unicode="&#xe045;" 
d="M525 142h-102v-142h-89v142h-317v62l345 496h61v-480h102v-78zM336 220v325h-1l-222 -324v-1h223z" />
    <glyph glyph-name="five.LT" unicode="&#xe046;" 
d="M485 200q0 -105 -65.5 -161.5t-166.5 -56.5q-107 0 -179 53v95h3q30 -34 74 -52.5t90 -18.5q68 0 110 36t42 104q0 65 -43 103t-121 38q-73 0 -138 -37h-3l60 379h314v-79h-249l-33 -203q40 14 90 14q95 0 155 -58.5t60 -155.5z" />
    <glyph glyph-name="six.LT" unicode="&#xe047;" 
d="M507 197q0 -104 -66.5 -159.5t-169.5 -55.5q-107 0 -172 57.5t-65 157.5q0 72 40 134l228 351h106v-2l-188 -286h1q36 13 75 13q90 0 150.5 -57.5t60.5 -152.5zM414 197q0 64 -38 103t-105 39q-65 0 -105 -36t-40 -106q0 -64 38 -102.5t105 -38.5q65 0 105 36t40 105z
" />
    <glyph glyph-name="seven.LT" unicode="&#xe048;" 
d="M178 1h-96v2l298 596v1h-343v83h474v-6z" />
    <glyph glyph-name="eight.LT" unicode="&#xe049;" 
d="M499 184q0 -95 -62.5 -148.5t-166.5 -53.5t-167 53.5t-63 148.5q0 65 31.5 111t88.5 67v1q-97 42 -97 155q0 85 56.5 133.5t150.5 48.5q93 0 149.5 -48.5t56.5 -133.5q0 -111 -96 -155v-1q56 -21 87.5 -66.5t31.5 -111.5zM407 187q0 59 -36.5 95t-100.5 36t-101 -36
t-37 -95q0 -60 36 -95.5t102 -35.5q64 0 100.5 35.5t36.5 95.5zM391 512q0 52 -32 83.5t-89 31.5t-89.5 -31.5t-32.5 -83.5t32.5 -84.5t89.5 -32.5q56 0 88.5 32.5t32.5 84.5z" />
    <glyph glyph-name="nine.LT" unicode="&#xe04a;" 
d="M238 0h-106v2l188 286l-1 1q-32 -13 -74 -13q-91 0 -151 57t-60 152q0 104 66.5 159.5t169.5 55.5q106 0 171.5 -57t65.5 -158q0 -71 -54 -155zM415 485q0 64 -38.5 103t-105.5 39q-65 0 -105 -36.5t-40 -105.5q0 -64 38 -103t105 -39q65 0 105.5 36t40.5 106z" />
    <glyph glyph-name="Euro.OT" unicode="&#xe04b;" 
d="M37 307v71h89q23 86 81.5 133t136.5 47q94 0 154 -58v-88h-4q-47 72 -139 72q-105 0 -141 -106h230v-71h-244q-1 -12 -1 -37q0 -21 1 -30h244v-71h-231q35 -113 144 -113q88 0 140 72h4v-88q-60 -58 -155 -58q-79 0 -139 48t-83 139h-87v71h77q-1 10 -1 30q0 25 1 37h-77
z" />
    <glyph glyph-name="dollar.OT" unicode="&#xe04c;" 
d="M467 138q0 -62 -41.5 -102.5t-117.5 -50.5v-127h-76v125q-101 6 -153 52v87h3q55 -62 150 -70v189q-71 21 -110.5 56t-39.5 107q0 60 39 101.5t117 50.5v126h75v-126q87 -10 134 -51v-86h-4q-53 57 -130 68v-183q34 -10 57.5 -21t47.5 -29.5t36.5 -47.5t12.5 -68z
M389 136q0 32 -21 50.5t-60 32.5v-164q81 17 81 81zM158 408q0 -55 80 -81v158q-80 -14 -80 -77z" />
    <glyph glyph-name="cent.OT" unicode="&#xe04d;" 
d="M357 -142h-75v126q-104 10 -166 84.5t-62 201.5q0 125 62.5 201t165.5 85v126h75v-128q71 -12 122 -54v-97h-4q-43 60 -118 72v-411q73 11 121 73h4v-97q-50 -43 -125 -54v-128zM146 270q0 -84 35.5 -137t100.5 -67v408q-64 -12 -100 -65t-36 -139z" />
    <glyph glyph-name="sterling.OT" unicode="&#xe04e;" 
d="M420 206h-199l19 -128h233v-78h-425v78h103l-19 128h-84v71h73l-3 23q-7 49 -7 67q0 84 55.5 137.5t149.5 53.5q98 0 167 -57v-97h-3q-66 74 -158 74q-56 0 -88.5 -32t-32.5 -84q0 -24 7 -63l3 -22h209v-71z" />
    <glyph glyph-name="florin.OT" unicode="&#xe04f;" 
d="M212 0h-88v201h-82v76h82v73q0 99 55.5 153.5t152.5 54.5q96 0 164 -57v-95h-4q-59 73 -152 73q-63 0 -95.5 -36t-32.5 -97v-69h213v-76h-213v-201z" />
    <glyph glyph-name="yen.OT" unicode="&#xe050;" 
d="M49 213v71h146l-157 256h97l140 -235h1l133 235h93l-148 -256h137v-71h-171v-67h171v-70h-171v-76h-88v76h-183v70h183v67h-183z" />
    <glyph glyph-name="zero.OT" unicode="&#xe051;" 
d="M502 270q0 -137 -65.5 -212.5t-166.5 -75.5t-166.5 75.5t-65.5 212.5t65.5 212.5t166.5 75.5t166.5 -75.5t65.5 -212.5zM411 270q0 96 -39 150.5t-102 54.5q-64 0 -102.5 -54.5t-38.5 -150.5q0 -95 38.5 -150t102.5 -55t102.5 55t38.5 150z" />
    <glyph glyph-name="one.OT" unicode="&#xe052;" 
d="M358 0h-90v451l-149 -53h-3v85l239 75h3v-558z" />
    <glyph glyph-name="two.OT" unicode="&#xe053;" 
d="M507 0h-465v56q182 119 244 180t62 131q0 53 -37.5 83t-95.5 30q-87 0 -156 -76h-3v95q72 59 172 59q94 0 153.5 -49t59.5 -132q0 -92 -82 -173q-31 -31 -147 -122q-2 -2 -4 -3v-1h299v-78z" />
    <glyph glyph-name="three.OT" unicode="&#xe054;" 
d="M485 32q0 -92 -64 -142t-165 -50q-109 0 -183 53v95h3q30 -33 75.5 -51.5t91.5 -18.5q67 0 108 31.5t41 93.5q0 55 -40 86t-111 31h-91v77h107q95 34 95 121q0 57 -36 89.5t-93 32.5q-85 0 -143 -71h-3v96q72 53 165 53q89 0 146.5 -50.5t57.5 -136.5q0 -109 -100 -162
v-1q59 -14 99 -59t40 -117z" />
    <glyph glyph-name="four.OT" unicode="&#xe055;" 
d="M525 0h-102v-142h-89v142h-317v62l345 496h61v-480h102v-78zM336 78v325h-1l-222 -324v-1h223z" />
    <glyph glyph-name="five.OT" unicode="&#xe056;" 
d="M485 58q0 -105 -65.5 -161.5t-166.5 -56.5q-107 0 -179 53v95h3q30 -34 74 -52.5t90 -18.5q68 0 110 36t42 104q0 65 -43 103t-121 38q-73 0 -138 -37h-3l60 379h314v-79h-249l-33 -203q40 14 90 14q95 0 155 -58.5t60 -155.5z" />
    <glyph glyph-name="six.OT" unicode="&#xe057;" 
d="M507 197q0 -104 -66.5 -159.5t-169.5 -55.5q-107 0 -172 57.5t-65 157.5q0 72 40 134l228 351h106v-2l-188 -286h1q36 13 75 13q90 0 150.5 -57.5t60.5 -152.5zM414 197q0 64 -38 103t-105 39q-65 0 -105 -36t-40 -106q0 -64 38 -102.5t105 -38.5q65 0 105 36t40 105z
" />
    <glyph glyph-name="seven.OT" unicode="&#xe058;" 
d="M178 -142h-96v2l298 596v1h-343v83h474v-6z" />
    <glyph glyph-name="eight.OT" unicode="&#xe059;" 
d="M499 184q0 -95 -62.5 -148.5t-166.5 -53.5t-167 53.5t-63 148.5q0 65 31.5 111t88.5 67v1q-97 42 -97 155q0 85 56.5 133.5t150.5 48.5q93 0 149.5 -48.5t56.5 -133.5q0 -111 -96 -155v-1q56 -21 87.5 -66.5t31.5 -111.5zM407 187q0 59 -36.5 95t-100.5 36t-101 -36
t-37 -95q0 -60 36 -95.5t102 -35.5q64 0 100.5 35.5t36.5 95.5zM391 512q0 52 -32 83.5t-89 31.5t-89.5 -31.5t-32.5 -83.5t32.5 -84.5t89.5 -32.5q56 0 88.5 32.5t32.5 84.5z" />
    <glyph glyph-name="nine.OT" unicode="&#xe05a;" 
d="M238 -142h-106v2l188 286l-1 1q-32 -13 -74 -13q-91 0 -151 57t-60 152q0 104 66.5 159.5t169.5 55.5q106 0 171.5 -57t65.5 -158q0 -71 -54 -155zM415 343q0 64 -38.5 103t-105.5 39q-65 0 -105 -36.5t-40 -105.5q0 -64 38 -103t105 -39q65 0 105.5 36t40.5 106z" />
    <glyph glyph-name="Euro.OP" unicode="&#xe05b;" horiz-adv-x="524" 
d="M29 307v71h89q23 86 81.5 133t136.5 47q94 0 154 -58v-88h-4q-47 72 -139 72q-105 0 -141 -106h230v-71h-244q-1 -12 -1 -37q0 -21 1 -30h244v-71h-231q35 -113 144 -113q88 0 140 72h4v-88q-60 -58 -155 -58q-79 0 -139 48t-83 139h-87v71h77q-1 10 -1 30q0 25 1 37h-77
z" />
    <glyph glyph-name="dollar.OP" unicode="&#xe05c;" horiz-adv-x="498" 
d="M440 138q0 -62 -41.5 -102.5t-117.5 -50.5v-127h-76v125q-101 6 -153 52v87h3q55 -62 150 -70v189q-71 21 -110.5 56t-39.5 107q0 60 39 101.5t117 50.5v126h75v-126q87 -10 134 -51v-86h-4q-53 57 -130 68v-183q34 -10 57.5 -21t47.5 -29.5t36.5 -47.5t12.5 -68z
M362 136q0 32 -21 50.5t-60 32.5v-164q81 17 81 81zM131 408q0 -55 80 -81v158q-80 -14 -80 -77z" />
    <glyph glyph-name="cent.OP" unicode="&#xe05d;" horiz-adv-x="517" 
d="M346 -142h-75v126q-104 10 -166 84.5t-62 201.5q0 125 62.5 201t165.5 85v126h75v-128q71 -12 122 -54v-97h-4q-43 60 -118 72v-411q73 11 121 73h4v-97q-50 -43 -125 -54v-128zM135 270q0 -84 35.5 -137t100.5 -67v408q-64 -12 -100 -65t-36 -139z" />
    <glyph glyph-name="sterling.OP" unicode="&#xe05e;" horiz-adv-x="530" 
d="M415 206h-199l19 -128h233v-78h-425v78h103l-19 128h-84v71h73l-3 23q-7 49 -7 67q0 84 55.5 137.5t149.5 53.5q98 0 167 -57v-97h-3q-66 74 -158 74q-56 0 -88.5 -32t-32.5 -84q0 -24 7 -63l3 -22h209v-71z" />
    <glyph glyph-name="florin.OP" unicode="&#xe05f;" horiz-adv-x="528" 
d="M207 0h-88v201h-82v76h82v73q0 99 55.5 153.5t152.5 54.5t164 -57v-95h-4q-59 73 -152 73q-63 0 -95.5 -36t-32.5 -97v-69h213v-76h-213v-201z" />
    <glyph glyph-name="yen.OP" unicode="&#xe060;" horiz-adv-x="530" 
d="M44 213v71h146l-157 256h97l140 -235h1l133 235h93l-148 -256h137v-71h-171v-67h171v-70h-171v-76h-88v76h-183v70h183v67h-183z" />
    <glyph glyph-name="zero.OP" unicode="&#xe061;" horiz-adv-x="586" 
d="M538 270q0 -136 -70 -212t-175 -76q-104 0 -174.5 76t-70.5 212q0 137 70 212.5t175 75.5t175 -75.5t70 -212.5zM446 270q0 95 -42.5 150t-110.5 55t-110.5 -55t-42.5 -150t42 -150t111 -55t111 55t42 150z" />
    <glyph glyph-name="one.OP" unicode="&#xe062;" horiz-adv-x="371" 
d="M279 0h-90v451l-149 -53h-3v85l239 75h3v-558z" />
    <glyph glyph-name="two.OP" unicode="&#xe063;" horiz-adv-x="530" 
d="M502 0h-465v56q182 119 244 180t62 131q0 53 -37.5 83t-95.5 30q-87 0 -156 -76h-3v95q72 59 172 59q94 0 153.5 -49t59.5 -132q0 -92 -82 -173q-31 -31 -147 -122q-2 -2 -4 -3v-1h299v-78z" />
    <glyph glyph-name="three.OP" unicode="&#xe064;" horiz-adv-x="520" 
d="M473 32q0 -92 -64 -142t-165 -50q-109 0 -183 53v95h3q30 -33 75.5 -51.5t91.5 -18.5q67 0 108 31.5t41 93.5q0 55 -40 86t-111 31h-91v77h107q95 34 95 121q0 57 -36 89.5t-93 32.5q-85 0 -143 -71h-3v96q72 53 165 53q89 0 146.5 -50.5t57.5 -136.5q0 -109 -100 -162
v-1q59 -14 99 -59t40 -117z" />
    <glyph glyph-name="four.OP" unicode="&#xe065;" horiz-adv-x="530" 
d="M520 0h-102v-142h-89v142h-317v62l345 496h61v-480h102v-78zM331 78v325h-1l-222 -324v-1h223z" />
    <glyph glyph-name="five.OP" unicode="&#xe066;" horiz-adv-x="514" 
d="M471 58q0 -105 -65.5 -161.5t-166.5 -56.5q-107 0 -179 53v95h3q30 -34 74 -52.5t90 -18.5q68 0 110 36t42 104q0 65 -43 103t-121 38q-73 0 -138 -37h-3l60 379h314v-79h-249l-33 -203q40 14 90 14q95 0 155 -58.5t60 -155.5z" />
    <glyph glyph-name="six.OP" unicode="&#xe067;" horiz-adv-x="560" 
d="M517 197q0 -104 -66.5 -159.5t-169.5 -55.5q-107 0 -172 57.5t-65 157.5q0 72 40 134l228 351h106v-2l-188 -286h1q36 13 75 13q90 0 150.5 -57.5t60.5 -152.5zM424 197q0 64 -38 103t-105 39q-65 0 -105 -36t-40 -106q0 -64 38 -102.5t105 -38.5q65 0 105 36t40 105z
" />
    <glyph glyph-name="seven.OP" unicode="&#xe068;" horiz-adv-x="530" 
d="M173 -142h-96v2l298 596v1h-343v83h474v-6z" />
    <glyph glyph-name="eight.OP" unicode="&#xe069;" horiz-adv-x="545" 
d="M502 184q0 -95 -62.5 -148.5t-166.5 -53.5t-167 53.5t-63 148.5q0 65 31.5 111t88.5 67v1q-97 42 -97 155q0 85 56.5 133.5t150.5 48.5q93 0 149.5 -48.5t56.5 -133.5q0 -111 -96 -155v-1q56 -21 87.5 -66.5t31.5 -111.5zM410 187q0 59 -36.5 95t-100.5 36t-101 -36
t-37 -95q0 -60 36 -95.5t102 -35.5q64 0 100.5 35.5t36.5 95.5zM394 512q0 52 -32 83.5t-89 31.5t-89.5 -31.5t-32.5 -83.5t32.5 -84.5t89.5 -32.5q56 0 88.5 32.5t32.5 84.5z" />
    <glyph glyph-name="nine.OP" unicode="&#xe06a;" horiz-adv-x="560" 
d="M248 -142h-106v2l188 286l-1 1q-32 -13 -74 -13q-91 0 -151 57t-60 152q0 104 66.5 159.5t169.5 55.5q106 0 171.5 -57t65.5 -158q0 -71 -54 -155zM425 343q0 64 -38.5 103t-105.5 39q-65 0 -105 -36.5t-40 -105.5q0 -64 38 -103t105 -39q65 0 105.5 36t40.5 106z" />
    <glyph glyph-name="plusinferior" unicode="&#xe06b;" horiz-adv-x="350" 
d="M200 -57h-52v131h-124v51h124v131h52v-131h125v-51h-125v-131z" />
    <glyph glyph-name="minusinferior" unicode="&#xe06c;" horiz-adv-x="350" 
d="M325 74h-301v51h301v-51z" />
    <glyph glyph-name="equalinferior" unicode="&#xe06d;" horiz-adv-x="350" 
d="M325 2h-301v51h301v-51zM325 146h-301v53h301v-53z" />
    <glyph glyph-name="zero.numr" unicode="&#xe06e;" horiz-adv-x="350" 
d="M335 461q0 -119 -45 -176.5t-116 -57.5q-70 0 -115 57.5t-45 176.5t45 176t115 57q71 0 116 -57t45 -176zM265 461q0 170 -91 170q-90 0 -90 -170q0 -172 90 -172q91 0 91 172z" />
    <glyph glyph-name="one.numr" unicode="&#xe06f;" horiz-adv-x="350" 
d="M238 239h-68v375l-98 -33h-2v64l166 49h2v-455z" />
    <glyph glyph-name="two.numr" unicode="&#xe070;" horiz-adv-x="350" 
d="M331 239h-306v45q113 94 153 148t40 110q0 44 -23 68.5t-60 24.5q-57 0 -99 -44h-2v66q50 37 113 37q62 0 101.5 -38t39.5 -106q0 -20 -4 -39.5t-8 -33.5t-16 -33.5t-17.5 -28t-25 -30t-25 -27t-30.5 -30t-30 -29.5v-1h199v-59z" />
    <glyph glyph-name="three.numr" unicode="&#xe071;" horiz-adv-x="350" 
d="M317 352q0 -60 -41 -92.5t-108 -32.5q-72 0 -123 35v66h2q41 -43 110 -43q40 0 65.5 19.5t25.5 56.5q0 33 -24.5 51.5t-67.5 18.5h-61v59h68q58 21 58 72q0 34 -21.5 53.5t-57.5 19.5q-55 0 -92 -42h-2v67q48 34 109 34q59 0 96.5 -32.5t37.5 -89.5q0 -72 -67 -106
q40 -8 66.5 -37.5t26.5 -76.5z" />
    <glyph glyph-name="four.numr" unicode="&#xe072;" horiz-adv-x="350" 
d="M341 331h-63v-92h-68v92h-200v45l219 318h49v-309h63v-54zM212 385v198h-1l-133 -197v-1h134z" />
    <glyph glyph-name="five.numr" unicode="&#xe073;" horiz-adv-x="350" 
d="M317 371q0 -69 -43.5 -106.5t-110.5 -37.5q-69 0 -118 35v66h2q40 -43 108 -43q41 0 66.5 22t25.5 63q0 40 -27 63t-76 23q-48 0 -88 -23h-2l39 249h210v-59h-161l-20 -123q23 10 49 10q64 0 105 -37t41 -102z" />
    <glyph glyph-name="six.numr" unicode="&#xe074;" horiz-adv-x="350" 
d="M331 368q0 -67 -43.5 -104t-112.5 -37q-71 0 -113.5 37.5t-42.5 103.5q0 48 25 88l146 226h82v-1l-120 -182v-1q26 9 57 6q55 -6 88.5 -42t33.5 -94zM262 368q0 40 -23 63.5t-64 23.5q-39 0 -63.5 -22.5t-24.5 -64.5q0 -38 23 -62t63 -24t64.5 22t24.5 64z" />
    <glyph glyph-name="seven.numr" unicode="&#xe075;" horiz-adv-x="350" 
d="M123 240h-73v1l187 378h-216v64h315v-4z" />
    <glyph glyph-name="eight.numr" unicode="&#xe076;" horiz-adv-x="350" 
d="M327 360q0 -62 -42 -97.5t-111 -35.5t-110.5 35.5t-41.5 97.5q0 85 75 114v1q-60 29 -60 100q0 56 37.5 87.5t99.5 31.5q63 0 100.5 -31.5t37.5 -87.5q0 -69 -61 -100q76 -29 76 -115zM257 364q0 35 -22 57.5t-61 22.5q-38 0 -60.5 -22.5t-22.5 -57.5q0 -37 22 -59.5
t61 -22.5q38 0 60.5 22.5t22.5 59.5zM248 568q0 32 -19.5 51.5t-54.5 19.5q-34 0 -53.5 -19.5t-19.5 -51.5t19.5 -51.5t53.5 -19.5t54 19.5t20 51.5z" />
    <glyph glyph-name="nine.numr" unicode="&#xe077;" horiz-adv-x="350" 
d="M159 239h-81v1l120 182v1q-22 -8 -58 -6q-54 6 -87.5 42.5t-33.5 93.5q0 68 43.5 104.5t112.5 36.5q70 0 113 -37.5t43 -103.5q0 -46 -29 -94zM262 553q0 39 -23 62.5t-64 23.5q-39 0 -63 -22t-24 -64q0 -39 23 -63t63 -24q39 0 63.5 22t24.5 65z" />
    <glyph glyph-name="zero.dnom" unicode="&#xe078;" horiz-adv-x="350" 
d="M335 222q0 -119 -45 -176.5t-116 -57.5q-70 0 -115 57.5t-45 176.5t45 176t115 57q71 0 116 -57t45 -176zM265 222q0 170 -91 170q-90 0 -90 -170q0 -172 90 -172q91 0 91 172z" />
    <glyph glyph-name="one.dnom" unicode="&#xe079;" horiz-adv-x="350" 
d="M238 0h-68v375l-98 -33h-2v64l166 49h2v-455z" />
    <glyph glyph-name="two.dnom" unicode="&#xe07a;" horiz-adv-x="350" 
d="M331 0h-306v45q113 94 153 148t40 110q0 44 -23 68.5t-60 24.5q-57 0 -99 -44h-2v66q50 37 113 37q62 0 101.5 -38t39.5 -106q0 -20 -4 -39.5t-8 -33.5t-16 -33.5t-17.5 -28t-25 -30t-25 -27t-30.5 -30t-30 -29.5v-1h199v-59z" />
    <glyph glyph-name="three.dnom" unicode="&#xe07b;" horiz-adv-x="350" 
d="M317 113q0 -60 -41 -92.5t-108 -32.5q-72 0 -123 35v66h2q41 -43 110 -43q40 0 65.5 19.5t25.5 56.5q0 33 -24.5 51.5t-67.5 18.5h-61v59h68q58 21 58 72q0 34 -21.5 53.5t-57.5 19.5q-55 0 -92 -42h-2v67q48 34 109 34q59 0 96.5 -32.5t37.5 -89.5q0 -73 -67 -106
q40 -8 66.5 -37.5t26.5 -76.5z" />
    <glyph glyph-name="four.dnom" unicode="&#xe07c;" horiz-adv-x="350" 
d="M341 92h-63v-92h-68v92h-200v45l219 318h49v-309h63v-54zM212 146v198h-1l-133 -197v-1h134z" />
    <glyph glyph-name="five.dnom" unicode="&#xe07d;" horiz-adv-x="350" 
d="M317 132q0 -69 -43.5 -106.5t-110.5 -37.5q-69 0 -118 35v66h2q40 -43 108 -43q41 0 66.5 22t25.5 63q0 40 -27 63t-76 23q-48 0 -88 -23h-2l39 249h210v-59h-161l-20 -123q23 10 49 10q64 0 105 -37t41 -102z" />
    <glyph glyph-name="six.dnom" unicode="&#xe07e;" horiz-adv-x="350" 
d="M331 129q0 -67 -43.5 -104t-112.5 -37q-71 0 -113.5 37.5t-42.5 103.5q0 48 25 88l146 226h82v-1l-120 -182v-1q26 9 57 6q55 -6 88.5 -42t33.5 -94zM262 129q0 40 -23 63.5t-64 23.5q-39 0 -63.5 -22.5t-24.5 -64.5q0 -38 23 -62t63 -24t64.5 22t24.5 64z" />
    <glyph glyph-name="seven.dnom" unicode="&#xe07f;" horiz-adv-x="350" 
d="M123 1h-73v1l187 378h-216v64h315v-4z" />
    <glyph glyph-name="eight.dnom" unicode="&#xe080;" horiz-adv-x="350" 
d="M327 121q0 -62 -42 -97.5t-111 -35.5t-110.5 35.5t-41.5 97.5q0 85 75 114v1q-60 29 -60 100q0 56 37.5 87.5t99.5 31.5q63 0 100.5 -31.5t37.5 -87.5q0 -69 -61 -100q76 -29 76 -115zM257 125q0 35 -22 57.5t-61 22.5q-38 0 -60.5 -22.5t-22.5 -57.5q0 -37 22 -59.5
t61 -22.5q38 0 60.5 22.5t22.5 59.5zM248 329q0 32 -19.5 51.5t-54.5 19.5q-34 0 -53.5 -19.5t-19.5 -51.5t19.5 -51.5t53.5 -19.5t54 20t20 51z" />
    <glyph glyph-name="nine.dnom" unicode="&#xe081;" horiz-adv-x="350" 
d="M159 0h-81v1l120 182v1q-22 -8 -58 -6q-54 6 -87.5 42.5t-33.5 93.5q0 68 43.5 104.5t112.5 36.5q70 0 113 -37.5t43 -103.5q0 -46 -29 -94zM262 314q0 39 -23 62.5t-64 23.5q-39 0 -63 -22t-24 -64q0 -39 23 -63t63 -24q39 0 63.5 22t24.5 65z" />
    <glyph glyph-name="i.TRK" unicode="&#xe08a;" horiz-adv-x="258" 
d="M172 0h-86v506h86v-506zM176 665h-94v85h94v-85z" />
    <glyph glyph-name="breveCyr" unicode="&#xe08b;" horiz-adv-x="500" 
d="M250 592q-74 0 -116 43.5t-49 114.5h68q8 -45 32.5 -72t64.5 -27t65 27t32 72h68q-7 -71 -49 -114.5t-116 -43.5z" />
    <glyph glyph-name="c_t" unicode="&#xe08c;" horiz-adv-x="797" 
d="M648 0h-86v430h-44v4l44 72v58q0 53 -36.5 86t-103.5 33q-68 0 -105 -32t-37 -84q0 -24 8 -46q80 -3 136 -52v-96h-3q-21 31 -58 52.5t-82 21.5q-69 0 -110.5 -52t-41.5 -142q0 -89 43.5 -141.5t116.5 -52.5q41 0 76.5 20t58.5 53h3v-94q-66 -56 -157 -56q-100 0 -166 72
t-66 199q0 108 49 177t129 88q-13 30 -13 63q0 81 58.5 128.5t162.5 47.5q105 0 164.5 -50t59.5 -140v-61h122v-76h-122v-430z" />
    <glyph glyph-name="breveCyr.cap" unicode="&#xe08d;" horiz-adv-x="500" 
d="M250 700q-61 0 -99 29t-46 80h66q12 -53 79 -53t78 53h67q-8 -51 -46 -80t-99 -29z" />
    <glyph glyph-name="zero.slash.OT" unicode="&#xe08e;" 
d="M502 270q0 -137 -65.5 -212.5t-166.5 -75.5q-68 0 -124 37l-25 -37h-83l59 84q-59 77 -59 204q0 137 65.5 212.5t166.5 75.5q68 0 122 -37l26 37h83l-59 -84q60 -78 60 -204zM411 270q0 96 -39 150.5t-102 54.5q-64 0 -102.5 -54.5t-38.5 -150.5q0 -95 38.5 -150
t102.5 -55t102.5 55t38.5 150z" />
    <glyph glyph-name="percent.of" unicode="&#xe08f;" horiz-adv-x="850" 
d="M293 385q0 57 -26.5 88t-71.5 31t-72 -31.5t-27 -87.5q0 -54 27 -86t72 -32t71.5 32t26.5 86zM362 385q0 -81 -47 -128.5t-120 -47.5t-120 47.5t-47 128.5q0 82 46.5 130t120.5 48t120.5 -48t46.5 -130zM752 157q0 57 -27 88t-71 31q-45 0 -72 -31.5t-27 -87.5
q0 -54 27 -86t72 -32t71.5 32t26.5 86zM821 157q0 -81 -47 -128.5t-120 -47.5t-120 47.5t-47 128.5q0 82 46.5 130t120.5 48t120.5 -48t46.5 -130zM309 0h-72l298 540h71z" />
    <glyph glyph-name="perthousand.of" unicode="&#xe090;" horiz-adv-x="1221" 
d="M293 385q0 57 -26.5 88t-71.5 31t-72 -31.5t-27 -87.5q0 -54 27 -86t72 -32t71.5 32t26.5 86zM362 385q0 -81 -47 -128.5t-120 -47.5t-120 47.5t-47 128.5q0 82 46.5 130t120.5 48t120.5 -48t46.5 -130zM752 157q0 57 -27 88t-71 31q-45 0 -72 -31.5t-27 -87.5
q0 -54 27 -86t72 -32t71.5 32t26.5 86zM821 157q0 -81 -47 -128.5t-120 -47.5t-120 47.5t-47 128.5q0 82 46.5 130t120.5 48t120.5 -48t46.5 -130zM1123 157q0 57 -26.5 88t-71.5 31t-72 -31.5t-27 -87.5q0 -54 27 -86t72 -32t71.5 32t26.5 86zM1192 157q0 -81 -47 -128.5
t-120 -47.5t-120 47.5t-47 128.5q0 82 46.5 130t120.5 48t120.5 -48t46.5 -130zM309 0h-72l298 540h71z" />
    <glyph glyph-name="T_h" unicode="&#xe099;" horiz-adv-x="1067" 
d="M986 0h-86v314q0 65 -34.5 98.5t-89.5 33.5q-74 0 -128 -62v-384h-86v596h-249v-596h-91v596h-192v86h618v-217h1q65 59 153 59q80 0 132 -47t52 -136v-341z" />
    <glyph glyph-name="fi.cap" unicode="&#xe09f;" horiz-adv-x="787" 
d="M687 0h-91v682h91v-682zM191 0h-92v682h350v-86h-258v-228h248v-86h-248v-282z" />
    <glyph glyph-name="fl.cap" unicode="&#xe0a0;" horiz-adv-x="983" 
d="M951 0h-356v682h92v-596h264v-86zM191 0h-92v682h350v-86h-258v-228h248v-86h-248v-282z" />
    <glyph glyph-name="germandbls.cap" unicode="&#xe0aa;" horiz-adv-x="1080" 
d="M482 174q0 -83 -58 -137.5t-159 -54.5q-121 0 -194 66v103h3q34 -42 83 -64.5t102 -22.5q62 0 97 27t35 76q0 33 -17.5 58.5t-45.5 41.5t-61.5 30.5t-67.5 31.5t-62 39t-45.5 58.5t-17.5 84.5q0 80 52 134.5t153 54.5q110 0 179 -66v-102h-3q-32 42 -77.5 64t-92.5 22
q-57 0 -88 -27t-31 -71q0 -45 32.5 -75t79 -49.5t93 -42t79 -67.5t32.5 -112zM1022 174q0 -83 -58 -137.5t-159 -54.5q-121 0 -194 66v103h3q34 -42 83 -64.5t102 -22.5q62 0 97 27t35 76q0 33 -17.5 58.5t-45.5 41.5t-62 30.5t-67.5 31.5t-61.5 39t-45.5 58.5t-17.5 84.5
q0 80 52 134.5t153 54.5q110 0 179 -66v-102h-3q-32 42 -77.5 64t-92.5 22q-57 0 -88 -27t-31 -71q0 -45 32.5 -75t79 -49.5t93 -42t79 -67.5t32.5 -112z" />
    <glyph glyph-name="a.alt" unicode="&#xe0ae;" horiz-adv-x="590" 
d="M418 122v274q-50 50 -122 50q-76 0 -120.5 -50.5t-44.5 -142.5q0 -90 43 -141.5t115 -51.5q77 0 129 62zM504 0h-85v42h-1q-66 -60 -154 -60q-99 0 -161.5 72.5t-62.5 198.5t65.5 198.5t171.5 72.5q83 0 147 -48h1l76 35h3v-511z" />
    <glyph glyph-name="a.alt" unicode="&#xe54a;" horiz-adv-x="590" 
d="M418 122v274q-50 50 -122 50q-76 0 -120.5 -50.5t-44.5 -142.5q0 -90 43 -141.5t115 -51.5q77 0 129 62zM504 0h-85v42h-1q-66 -60 -154 -60q-99 0 -161.5 72.5t-62.5 198.5t65.5 198.5t171.5 72.5q83 0 147 -48h1l76 35h3v-511z" />
    <glyph glyph-name="numbersign.LT" unicode="&#xe14d;" 
d="M373 205l-25 -205h-62l25 205h-116l-25 -205h-63l25 205h-96v57h102l20 159h-98v57h105l24 204h62l-24 -204h117l24 204h62l-24 -204h98v-57h-105l-20 -159h101v-57h-107zM317 262l20 159h-117l-19 -159h116z" />
    <glyph glyph-name="numbersign.OT" unicode="&#xe14f;" 
d="M372 159l-24 -159h-62l24 159h-117l-23 -159h-63l24 159h-95v57h104l16 109h-96v57h105l24 158h62l-24 -158h117l24 158h62l-24 -158h98v-57h-107l-16 -109h99v-57h-108zM319 216l16 109h-117l-16 -109h117z" />
    <glyph glyph-name="numbersign.OP" unicode="&#xe151;" horiz-adv-x="530" 
d="M367 159l-24 -159h-62l24 159h-117l-23 -159h-63l24 159h-95v57h104l16 109h-96v57h105l24 158h62l-24 -158h117l24 158h62l-24 -158h98v-57h-107l-16 -109h99v-57h-108zM314 216l16 109h-117l-16 -109h117z" />
    <glyph glyph-name="cedilla.fr" unicode="&#xe169;" horiz-adv-x="500" 
d="M248 -129h-83l91 129h79z" />
    <glyph glyph-name="Ccedilla.fr" unicode="&#xe16a;" horiz-adv-x="613" 
d="M319 -129h-83l79 113q-119 13 -193 106.5t-74 250.5q0 167 84 263t217 96q123 0 206 -73v-110h-4q-70 96 -188 96q-100 0 -159.5 -73.5t-59.5 -198.5t60.5 -198.5t162.5 -73.5q57 0 106.5 26t81.5 70h4v-110q-71 -60 -164 -70z" />
    <glyph glyph-name="ccedilla.fr" unicode="&#xe16b;" horiz-adv-x="469" 
d="M236 -129h-83l80 114q-86 13 -140.5 83t-54.5 185q0 125 64.5 198t165.5 73q95 0 156 -55v-94h-3q-53 72 -140 72q-70 0 -111 -53t-41 -141q0 -89 43.5 -141.5t116.5 -52.5q83 0 135 73h3v-94q-49 -42 -114 -52z" />
    <glyph glyph-name="agrave.alt" unicode="&#xe1b8;" horiz-adv-x="590" 
d="M418 122v274q-50 50 -122 50q-76 0 -120.5 -50.5t-44.5 -142.5q0 -90 43 -141.5t115 -51.5q77 0 129 62zM504 0h-85v42h-1q-66 -60 -154 -60q-99 0 -161.5 72.5t-62.5 198.5t65.5 198.5t171.5 72.5q83 0 147 -48h1l76 35h3v-511zM349 558h-77l-139 192h93z" />
    <glyph glyph-name="aacute.alt" unicode="&#xe1b9;" horiz-adv-x="590" 
d="M344 557h-77l125 193h91zM418 122v274q-50 50 -122 50q-76 0 -120.5 -50.5t-44.5 -142.5q0 -90 43 -141.5t115 -51.5q77 0 129 62zM504 0h-85v42h-1q-66 -60 -154 -60q-99 0 -161.5 72.5t-62.5 198.5t65.5 198.5t171.5 72.5q83 0 147 -48h1l76 35h3v-511z" />
    <glyph glyph-name="acircumflex.alt" unicode="&#xe1ba;" horiz-adv-x="590" 
d="M473 558h-77l-95 133h-1l-96 -133h-77l142 199h62zM418 122v274q-50 50 -122 50q-76 0 -120.5 -50.5t-44.5 -142.5q0 -90 43 -141.5t115 -51.5q77 0 129 62zM504 0h-85v42h-1q-66 -60 -154 -60q-99 0 -161.5 72.5t-62.5 198.5t65.5 198.5t171.5 72.5q83 0 147 -48h1
l76 35h3v-511z" />
    <glyph glyph-name="atilde.alt" unicode="&#xe1bb;" horiz-adv-x="590" 
d="M418 122v274q-50 50 -122 50q-76 0 -120.5 -50.5t-44.5 -142.5q0 -90 43 -141.5t115 -51.5q77 0 129 62zM504 0h-85v42h-1q-66 -60 -154 -60q-99 0 -161.5 72.5t-62.5 198.5t65.5 198.5t171.5 72.5q83 0 147 -48h1l76 35h3v-511zM379 614q-31 0 -82 35.5t-71 35.5
q-19 0 -29.5 -16.5t-22.5 -54.5h-57q15 69 38 102.5t64 33.5q31 0 82 -35.5t71 -35.5q19 0 29.5 16t22.5 55h57q-15 -70 -38 -103t-64 -33z" />
    <glyph glyph-name="adieresis.alt" unicode="&#xe1bc;" horiz-adv-x="590" 
d="M231 665h-88v85h88v-85zM438 665h-88v85h88v-85zM418 122v274q-50 50 -122 50q-76 0 -120.5 -50.5t-44.5 -142.5q0 -90 43 -141.5t115 -51.5q77 0 129 62zM504 0h-85v42h-1q-66 -60 -154 -60q-99 0 -161.5 72.5t-62.5 198.5t65.5 198.5t171.5 72.5q83 0 147 -48h1l76 35
h3v-511z" />
    <glyph glyph-name="amacron.alt" unicode="&#xe1bd;" horiz-adv-x="590" 
d="M418 122v274q-50 50 -122 50q-76 0 -120.5 -50.5t-44.5 -142.5q0 -90 43 -141.5t115 -51.5q77 0 129 62zM504 0h-85v42h-1q-66 -60 -154 -60q-99 0 -161.5 72.5t-62.5 198.5t65.5 198.5t171.5 72.5q83 0 147 -48h1l76 35h3v-511zM466 668h-322v67h322v-67z" />
    <glyph glyph-name="abreve.alt" unicode="&#xe1be;" horiz-adv-x="590" 
d="M418 122v274q-50 50 -122 50q-76 0 -120.5 -50.5t-44.5 -142.5q0 -90 43 -141.5t115 -51.5q77 0 129 62zM504 0h-85v42h-1q-66 -60 -154 -60q-99 0 -161.5 72.5t-62.5 198.5t65.5 198.5t171.5 72.5q83 0 147 -48h1l76 35h3v-511zM294 592q-74 0 -116 43.5t-49 114.5h65
q8 -44 34 -70t66 -26t66 26t34 70h65q-7 -71 -49 -114.5t-116 -43.5z" />
    <glyph glyph-name="aring.alt" unicode="&#xe1bf;" horiz-adv-x="590" 
d="M416 672q0 -46 -33 -71t-82 -25t-81 25t-32 71t33 70.5t82 24.5q48 0 80.5 -24.5t32.5 -70.5zM356 672q0 23 -15 36.5t-39 13.5q-25 0 -40.5 -13.5t-15.5 -36.5q0 -25 15.5 -38.5t40.5 -13.5t39.5 13.5t14.5 38.5zM418 122v274q-50 50 -122 50q-76 0 -120.5 -50.5
t-44.5 -142.5q0 -90 43 -141.5t115 -51.5q77 0 129 62zM504 0h-85v42h-1q-66 -60 -154 -60q-99 0 -161.5 72.5t-62.5 198.5t65.5 198.5t171.5 72.5q83 0 147 -48h1l76 35h3v-511z" />
    <glyph glyph-name="aringacute.alt" unicode="&#xe1c0;" horiz-adv-x="590" 
d="M334 802h-77l125 193h91zM416 672q0 -46 -33 -71t-82 -25t-81 25t-32 71t33 70.5t82 24.5q48 0 80.5 -24.5t32.5 -70.5zM356 672q0 23 -15 36.5t-39 13.5q-25 0 -40.5 -13.5t-15.5 -36.5q0 -25 15.5 -38.5t40.5 -13.5t39.5 13.5t14.5 38.5zM418 122v274q-50 50 -122 50
q-76 0 -120.5 -50.5t-44.5 -142.5q0 -90 43 -141.5t115 -51.5q77 0 129 62zM504 0h-85v42h-1q-66 -60 -154 -60q-99 0 -161.5 72.5t-62.5 198.5t65.5 198.5t171.5 72.5q83 0 147 -48h1l76 35h3v-511z" />
    <glyph glyph-name="aogonek.alt" unicode="&#xe1c1;" horiz-adv-x="590" 
d="M530 -169q-40 -24 -91 -24q-47 0 -71 21t-24 54q0 53 75 118v42h-1q-66 -60 -154 -60q-99 0 -161.5 72.5t-62.5 198.5t65.5 198.5t171.5 72.5q83 0 147 -48h1l76 35h3v-511h-25q-36 -35 -51 -56t-15 -42q0 -39 46 -39q37 0 68 28h3v-60zM418 122v274q-50 50 -122 50
q-76 0 -120.5 -50.5t-44.5 -142.5q0 -90 43 -141.5t115 -51.5q77 0 129 62z" />
    <glyph glyph-name="A.alt" unicode="&#xe352;" horiz-adv-x="667" 
d="M649 0h-102l-79 186h-273l-79 -186h-97l311 700h8zM433 269l-101 235h-1l-101 -235h203z" />
    </font>
</defs>
</svg>
